<svg width="342" height="307" viewBox="0 0 342 307" fill="none" xmlns="http://www.w3.org/2000/svg">
<path d="M67.5657 187.721C66.2569 187.719 65.0025 187.254 64.0778 186.429C63.1532 185.603 62.6339 184.484 62.6339 183.318V134.364C62.6339 133.354 62.1839 132.386 61.3828 131.672C60.5817 130.959 59.4951 130.558 58.3622 130.558C57.2293 130.558 56.1428 130.959 55.3417 131.672C54.5406 132.386 54.0905 133.354 54.0905 134.364V170.916C54.0382 171.92 53.5539 172.867 52.7382 173.561C51.9225 174.255 50.8381 174.642 49.7104 174.642C48.5826 174.642 47.4982 174.255 46.6825 173.561C45.8668 172.867 45.3825 171.92 45.3302 170.916V150.749C45.3537 150.367 45.2895 149.985 45.1416 149.626C44.9936 149.267 44.7651 148.938 44.4699 148.66C44.1747 148.382 43.819 148.161 43.4246 148.01C43.0302 147.859 42.6053 147.781 42.176 147.781C41.7466 147.781 41.3217 147.859 40.9273 148.01C40.5329 148.161 40.1772 148.382 39.882 148.66C39.5868 148.938 39.3583 149.267 39.2104 149.626C39.0624 149.985 38.9982 150.367 39.0217 150.749V158.253H32.0625V157.413H38.0787V150.749C38.0521 150.255 38.1384 149.761 38.3322 149.298C38.5261 148.834 38.8236 148.41 39.2067 148.052C39.5898 147.694 40.0505 147.409 40.5609 147.214C41.0713 147.019 41.6207 146.919 42.176 146.919C42.7312 146.919 43.2807 147.019 43.791 147.214C44.3014 147.409 44.7621 147.694 45.1452 148.052C45.5283 148.41 45.8258 148.834 46.0197 149.298C46.2136 149.761 46.2998 150.255 46.2732 150.749V170.916C46.3193 171.7 46.7016 172.439 47.3411 172.98C47.9807 173.521 48.8287 173.822 49.7104 173.822C50.592 173.822 51.4401 173.521 52.0796 172.98C52.7192 172.439 53.1014 171.7 53.1475 170.916V134.364C53.1475 133.132 53.6969 131.95 54.6749 131.078C55.6528 130.207 56.9792 129.717 58.3622 129.717C59.7452 129.717 61.0716 130.207 62.0496 131.078C63.0275 131.95 63.5769 133.132 63.5769 134.364V183.318C63.5506 183.8 63.6344 184.282 63.8233 184.734C64.0121 185.186 64.302 185.599 64.6754 185.948C65.0489 186.298 65.498 186.576 65.9956 186.766C66.4933 186.956 67.029 187.054 67.5704 187.054C68.1118 187.054 68.6476 186.956 69.1452 186.766C69.6429 186.576 70.092 186.298 70.4654 185.948C70.8388 185.599 71.1288 185.186 71.3176 184.734C71.5064 184.282 71.5902 183.8 71.5639 183.318V123.608C71.5311 122.849 71.6705 122.092 71.9739 121.382C72.2773 120.671 72.7384 120.023 73.3297 119.476C73.9209 118.928 74.6301 118.492 75.4147 118.195C76.1994 117.897 77.0433 117.744 77.8961 117.744C78.7488 117.744 79.5928 117.897 80.3774 118.195C81.1621 118.492 81.8712 118.928 82.4625 119.476C83.0537 120.023 83.5148 120.671 83.8182 121.382C84.1216 122.092 84.2611 122.849 84.2282 123.608V183.058C84.2282 184.067 84.6782 185.035 85.4793 185.749C86.2804 186.463 87.367 186.864 88.4999 186.864C89.6328 186.864 90.7193 186.463 91.5204 185.749C92.3215 185.035 92.7716 184.067 92.7716 183.058V135.675C92.7716 134.244 93.4094 132.872 94.5447 131.86C95.6801 130.849 97.2199 130.28 98.8255 130.28C100.431 130.28 101.971 130.849 103.106 131.86C104.242 132.872 104.879 134.244 104.879 135.675V170.664C104.879 171.542 105.271 172.384 105.968 173.005C106.664 173.626 107.609 173.974 108.595 173.974C109.58 173.974 110.525 173.626 111.222 173.005C111.919 172.384 112.31 171.542 112.31 170.664V151.623C112.363 150.6 112.856 149.633 113.688 148.926C114.52 148.218 115.625 147.823 116.775 147.823C117.925 147.823 119.031 148.218 119.862 148.926C120.694 149.633 121.187 150.6 121.24 151.623V157.396H128.19V158.236H120.297V151.623C120.25 150.819 119.859 150.061 119.204 149.507C118.548 148.952 117.679 148.643 116.775 148.643C115.871 148.643 115.002 148.952 114.347 149.507C113.691 150.061 113.3 150.819 113.253 151.623V170.664C113.253 171.765 112.762 172.82 111.889 173.599C111.015 174.377 109.83 174.815 108.595 174.815C107.359 174.815 106.174 174.377 105.301 173.599C104.427 172.82 103.936 171.765 103.936 170.664V135.675C103.936 134.467 103.398 133.308 102.44 132.454C101.481 131.6 100.181 131.12 98.8255 131.12C97.47 131.12 96.17 131.6 95.2115 132.454C94.253 133.308 93.7146 134.467 93.7146 135.675V183.049C93.7146 184.282 93.1652 185.464 92.1872 186.335C91.2093 187.206 89.8829 187.696 88.4999 187.696C87.1169 187.696 85.7905 187.206 84.8125 186.335C83.8346 185.464 83.2852 184.282 83.2852 183.049V123.608C83.3156 122.961 83.1987 122.315 82.9416 121.708C82.6845 121.102 82.2924 120.548 81.789 120.081C81.2856 119.613 80.6812 119.241 80.0122 118.987C79.3432 118.732 78.6234 118.601 77.8961 118.601C77.1688 118.601 76.4489 118.732 75.7799 118.987C75.1109 119.241 74.5066 119.613 74.0031 120.081C73.4997 120.548 73.1077 121.102 72.8505 121.708C72.5934 122.315 72.4765 122.961 72.5069 123.608V183.327C72.5019 184.492 71.9795 185.609 71.0536 186.432C70.1278 187.255 68.8738 187.719 67.5657 187.721Z" fill="#1B8C3B"/>
<path d="M158.308 187.603C156.999 187.601 155.744 187.136 154.82 186.311C153.895 185.485 153.376 184.366 153.376 183.2V134.246C153.376 133.236 152.926 132.268 152.125 131.554C151.324 130.841 150.237 130.44 149.104 130.44C147.971 130.44 146.885 130.841 146.084 131.554C145.282 132.268 144.832 133.236 144.832 134.246V170.798C144.78 171.802 144.296 172.749 143.48 173.443C142.664 174.137 141.58 174.524 140.452 174.524C139.325 174.524 138.24 174.137 137.424 173.443C136.609 172.749 136.124 171.802 136.072 170.798V150.631C136.096 150.249 136.031 149.867 135.883 149.508C135.736 149.149 135.507 148.82 135.212 148.542C134.917 148.264 134.561 148.043 134.167 147.892C133.772 147.741 133.347 147.663 132.918 147.663C132.488 147.663 132.064 147.741 131.669 147.892C131.275 148.043 130.919 148.264 130.624 148.542C130.329 148.82 130.1 149.149 129.952 149.508C129.804 149.867 129.74 150.249 129.764 150.631V158.135H122.804V157.295H128.821V150.631C128.794 150.137 128.88 149.643 129.074 149.18C129.268 148.716 129.566 148.292 129.949 147.934C130.332 147.576 130.792 147.291 131.303 147.096C131.813 146.901 132.363 146.801 132.918 146.801C133.473 146.801 134.023 146.901 134.533 147.096C135.043 147.291 135.504 147.576 135.887 147.934C136.27 148.292 136.568 148.716 136.762 149.18C136.955 149.643 137.042 150.137 137.015 150.631V170.798C137.061 171.582 137.443 172.321 138.083 172.862C138.723 173.403 139.571 173.704 140.452 173.704C141.334 173.704 142.182 173.403 142.822 172.862C143.461 172.321 143.843 171.582 143.889 170.798V134.246C143.889 133.014 144.439 131.832 145.417 130.96C146.395 130.089 147.721 129.599 149.104 129.599C150.487 129.599 151.814 130.089 152.791 130.96C153.769 131.832 154.319 133.014 154.319 134.246V183.2C154.293 183.682 154.376 184.164 154.565 184.616C154.754 185.068 155.044 185.481 155.417 185.83C155.791 186.18 156.24 186.458 156.738 186.648C157.235 186.838 157.771 186.936 158.312 186.936C158.854 186.936 159.389 186.838 159.887 186.648C160.385 186.458 160.834 186.18 161.207 185.83C161.581 185.481 161.871 185.068 162.059 184.616C162.248 184.164 162.332 183.682 162.306 183.2V123.491C162.273 122.731 162.412 121.974 162.716 121.264C163.019 120.554 163.48 119.905 164.072 119.358C164.663 118.81 165.372 118.375 166.157 118.077C166.941 117.779 167.785 117.626 168.638 117.626C169.491 117.626 170.335 117.779 171.119 118.077C171.904 118.375 172.613 118.81 173.204 119.358C173.796 119.905 174.257 120.554 174.56 121.264C174.864 121.974 175.003 122.731 174.97 123.491V182.94C174.97 183.949 175.42 184.917 176.221 185.631C177.022 186.345 178.109 186.746 179.242 186.746C180.375 186.746 181.461 186.345 182.262 185.631C183.063 184.917 183.513 183.949 183.513 182.94V135.557C183.513 134.126 184.151 132.754 185.287 131.742C186.422 130.731 187.962 130.162 189.567 130.162C191.173 130.162 192.713 130.731 193.848 131.742C194.984 132.754 195.621 134.126 195.621 135.557V170.546C195.621 171.424 196.013 172.266 196.71 172.887C197.406 173.508 198.351 173.856 199.337 173.856C200.322 173.856 201.267 173.508 201.964 172.887C202.661 172.266 203.052 171.424 203.052 170.546V151.505C203.052 150.451 203.522 149.44 204.358 148.695C205.195 147.949 206.329 147.531 207.512 147.531C208.695 147.531 209.83 147.949 210.666 148.695C211.503 149.44 211.973 150.451 211.973 151.505V157.278H218.932V158.118H211.03V151.505C211.03 150.674 210.659 149.877 209.999 149.289C209.34 148.701 208.445 148.371 207.512 148.371C206.579 148.371 205.685 148.701 205.025 149.289C204.366 149.877 203.995 150.674 203.995 151.505V170.546C203.995 171.647 203.504 172.702 202.631 173.481C201.757 174.259 200.572 174.697 199.337 174.697C198.101 174.697 196.916 174.259 196.043 173.481C195.169 172.702 194.678 171.647 194.678 170.546V135.557C194.678 134.349 194.14 133.191 193.181 132.336C192.223 131.482 190.923 131.003 189.567 131.003C188.212 131.003 186.912 131.482 185.953 132.336C184.995 133.191 184.456 134.349 184.456 135.557V182.931C184.456 184.164 183.907 185.346 182.929 186.217C181.951 187.088 180.625 187.578 179.242 187.578C177.859 187.578 176.532 187.088 175.554 186.217C174.577 185.346 174.027 184.164 174.027 182.931V123.491C174.057 122.843 173.941 122.197 173.684 121.59C173.426 120.984 173.034 120.431 172.531 119.963C172.027 119.495 171.423 119.123 170.754 118.869C170.085 118.614 169.365 118.483 168.638 118.483C167.911 118.483 167.191 118.614 166.522 118.869C165.853 119.123 165.248 119.495 164.745 119.963C164.242 120.431 163.85 120.984 163.592 121.59C163.335 122.197 163.218 122.843 163.249 123.491V183.209C163.244 184.374 162.721 185.491 161.796 186.314C160.87 187.138 159.616 187.601 158.308 187.603Z" fill="#263238"/>
<path d="M249.263 187.721C247.954 187.719 246.699 187.254 245.775 186.429C244.85 185.603 244.331 184.484 244.331 183.318V134.364C244.331 133.354 243.881 132.386 243.08 131.672C242.279 130.959 241.192 130.558 240.059 130.558C238.926 130.558 237.84 130.959 237.039 131.672C236.238 132.386 235.787 133.354 235.787 134.364V170.916C235.735 171.92 235.251 172.867 234.435 173.561C233.619 174.255 232.535 174.642 231.407 174.642C230.28 174.642 229.195 174.255 228.379 173.561C227.564 172.867 227.079 171.92 227.027 170.916V150.749C227.051 150.367 226.986 149.985 226.838 149.626C226.691 149.267 226.462 148.938 226.167 148.66C225.872 148.382 225.516 148.161 225.122 148.01C224.727 147.859 224.302 147.781 223.873 147.781C223.444 147.781 223.019 147.859 222.624 148.01C222.23 148.161 221.874 148.382 221.579 148.66C221.284 148.938 221.055 149.267 220.907 149.626C220.759 149.985 220.695 150.367 220.719 150.749V158.253H213.75V157.413H219.776V150.749C219.749 150.255 219.835 149.761 220.029 149.298C220.223 148.834 220.521 148.41 220.904 148.052C221.287 147.694 221.747 147.409 222.258 147.214C222.768 147.019 223.318 146.919 223.873 146.919C224.428 146.919 224.978 147.019 225.488 147.214C225.998 147.409 226.459 147.694 226.842 148.052C227.225 148.41 227.523 148.834 227.717 149.298C227.911 149.761 227.997 150.255 227.97 150.749V170.916C228.016 171.7 228.399 172.439 229.038 172.98C229.678 173.521 230.526 173.822 231.407 173.822C232.289 173.822 233.137 173.521 233.777 172.98C234.416 172.439 234.798 171.7 234.844 170.916V134.364C234.844 133.132 235.394 131.95 236.372 131.078C237.35 130.207 238.676 129.717 240.059 129.717C241.442 129.717 242.769 130.207 243.746 131.078C244.724 131.95 245.274 133.132 245.274 134.364V183.318C245.248 183.8 245.331 184.282 245.52 184.734C245.709 185.186 245.999 185.599 246.372 185.948C246.746 186.298 247.195 186.576 247.693 186.766C248.19 186.956 248.726 187.054 249.267 187.054C249.809 187.054 250.345 186.956 250.842 186.766C251.34 186.576 251.789 186.298 252.162 185.948C252.536 185.599 252.826 185.186 253.015 184.734C253.203 184.282 253.287 183.8 253.261 183.318V123.608C253.228 122.849 253.367 122.092 253.671 121.382C253.974 120.671 254.435 120.023 255.027 119.476C255.618 118.928 256.327 118.492 257.112 118.195C257.896 117.897 258.74 117.744 259.593 117.744C260.446 117.744 261.29 117.897 262.074 118.195C262.859 118.492 263.568 118.928 264.159 119.476C264.751 120.023 265.212 120.671 265.515 121.382C265.819 122.092 265.958 122.849 265.925 123.608V183.058C265.925 184.067 266.375 185.035 267.176 185.749C267.977 186.463 269.064 186.864 270.197 186.864C271.33 186.864 272.416 186.463 273.217 185.749C274.018 185.035 274.469 184.067 274.469 183.058V135.675C274.469 134.244 275.106 132.872 276.242 131.86C277.377 130.849 278.917 130.28 280.522 130.28C282.128 130.28 283.668 130.849 284.803 131.86C285.939 132.872 286.576 134.244 286.576 135.675V170.664C286.576 171.542 286.968 172.384 287.665 173.005C288.361 173.626 289.306 173.974 290.292 173.974C291.277 173.974 292.222 173.626 292.919 173.005C293.616 172.384 294.007 171.542 294.007 170.664V151.623C294.007 150.569 294.477 149.558 295.313 148.813C296.15 148.067 297.284 147.649 298.467 147.649C299.65 147.649 300.785 148.067 301.621 148.813C302.458 149.558 302.928 150.569 302.928 151.623V157.396H309.887V158.236H301.985V151.623C301.985 150.792 301.614 149.995 300.954 149.407C300.295 148.819 299.4 148.489 298.467 148.489C297.535 148.489 296.64 148.819 295.98 149.407C295.321 149.995 294.95 150.792 294.95 151.623V170.664C294.95 171.765 294.459 172.82 293.586 173.599C292.712 174.377 291.527 174.815 290.292 174.815C289.056 174.815 287.871 174.377 286.998 173.599C286.124 172.82 285.633 171.765 285.633 170.664V135.675C285.633 134.467 285.095 133.308 284.136 132.454C283.178 131.6 281.878 131.12 280.522 131.12C279.167 131.12 277.867 131.6 276.908 132.454C275.95 133.308 275.411 134.467 275.411 135.675V183.049C275.411 184.282 274.862 185.464 273.884 186.335C272.906 187.206 271.58 187.696 270.197 187.696C268.814 187.696 267.487 187.206 266.509 186.335C265.532 185.464 264.982 184.282 264.982 183.049V123.608C265.013 122.961 264.896 122.315 264.639 121.708C264.381 121.102 263.989 120.548 263.486 120.081C262.982 119.613 262.378 119.241 261.709 118.987C261.04 118.732 260.32 118.601 259.593 118.601C258.866 118.601 258.146 118.732 257.477 118.987C256.808 119.241 256.203 119.613 255.7 120.081C255.197 120.548 254.805 121.102 254.547 121.708C254.29 122.315 254.173 122.961 254.204 123.608V183.327C254.199 184.492 253.676 185.609 252.751 186.432C251.825 187.255 250.571 187.719 249.263 187.721Z" fill="#1B8C3B"/>
<path d="M168.049 28.1959V20.406L160.486 24.2968L168.049 28.1959Z" fill="#263238"/>
<path d="M159.345 20.2212H157.968V28.1791H159.345V20.2212Z" fill="#263238"/>
<path d="M208.088 28.1959L215.66 24.2968L208.088 20.406V28.1959Z" fill="#263238"/>
<path d="M218.177 20.2212H216.801V28.1791H218.177V20.2212Z" fill="#263238"/>
<path d="M188.511 12.9865C186.21 12.9865 183.96 13.5946 182.046 14.7339C180.133 15.8733 178.641 17.4927 177.761 19.3874C176.88 21.2821 176.649 23.3669 177.098 25.3783C177.547 27.3897 178.656 29.2372 180.283 30.6873C181.91 32.1375 183.984 33.125 186.241 33.5251C188.498 33.9252 190.838 33.7199 192.964 32.9351C195.091 32.1503 196.908 30.8212 198.187 29.1161C199.465 27.4109 200.148 25.4062 200.148 23.3554C200.148 20.6054 198.922 17.968 196.739 16.0234C194.557 14.0789 191.597 12.9865 188.511 12.9865ZM186.861 28.8172H183.4V17.8936H186.861V28.8172ZM193.622 28.8172H190.161V17.8936H193.622V28.8172Z" fill="#263238"/>
<path d="M240.055 278.731H229.088V282.285H240.055V278.731Z" fill="#263238"/>
<path d="M240.055 273.697H229.088V277.252H240.055V273.697Z" fill="#263238"/>
<path d="M240.055 268.664H229.088V272.219H240.055V268.664Z" fill="#263238"/>
<path d="M240.055 263.631H229.088V267.186H240.055V263.631Z" fill="#263238"/>
<path d="M268.457 278.731H257.49V282.285H268.457V278.731Z" fill="#263238"/>
<path d="M268.457 273.697H257.49V277.252H268.457V273.697Z" fill="#263238"/>
<path d="M211.643 278.731H200.676V282.285H211.643V278.731Z" fill="#263238"/>
<path d="M211.643 273.697H200.676V277.252H211.643V273.697Z" fill="#263238"/>
<path d="M225.844 278.731H214.877V282.285H225.844V278.731Z" fill="#263238"/>
<path d="M225.844 273.697H214.877V277.252H225.844V273.697Z" fill="#263238"/>
<path d="M225.844 268.664H214.877V272.219H225.844V268.664Z" fill="#263238"/>
<path d="M225.844 263.631H214.877V267.186H225.844V263.631Z" fill="#263238"/>
<path d="M225.844 258.598H214.877V262.152H225.844V258.598Z" fill="#263238"/>
<path d="M225.844 253.564H214.877V257.119H225.844V253.564Z" fill="#263238"/>
<path d="M225.844 248.531H214.877V252.086H225.844V248.531Z" fill="#263238"/>
<path d="M254.256 278.731H243.289V282.285H254.256V278.731Z" fill="#263238"/>
<path d="M254.256 273.697H243.289V277.252H254.256V273.697Z" fill="#263238"/>
<path d="M254.256 268.664H243.289V272.219H254.256V268.664Z" fill="#263238"/>
<path d="M254.256 263.631H243.289V267.186H254.256V263.631Z" fill="#263238"/>
<path d="M254.256 258.598H243.289V262.152H254.256V258.598Z" fill="#263238"/>
<path d="M254.256 253.564H243.289V257.119H254.256V253.564Z" fill="#263238"/>
<path d="M10.6463 91.8123C10.2711 91.8123 9.91136 91.6795 9.6461 91.4431C9.38083 91.2067 9.23181 90.8862 9.23181 90.5519V79.1662C9.23181 78.8319 9.38083 78.5113 9.6461 78.275C9.91136 78.0386 10.2711 77.9058 10.6463 77.9058C11.0214 77.9058 11.3812 78.0386 11.6465 78.275C11.9117 78.5113 12.0608 78.8319 12.0608 79.1662V90.5519C12.0608 90.8862 11.9117 91.2067 11.6465 91.4431C11.3812 91.6795 11.0214 91.8123 10.6463 91.8123Z" fill="#263238"/>
<path d="M6.01625 90.309C5.64111 90.309 5.28134 90.1762 5.01607 89.9398C4.75081 89.7034 4.60178 89.3828 4.60178 89.0485V80.6368C4.60178 80.3025 4.75081 79.9819 5.01607 79.7455C5.28134 79.5091 5.64111 79.3763 6.01625 79.3763C6.39139 79.3763 6.75116 79.5091 7.01643 79.7455C7.28169 79.9819 7.43072 80.3025 7.43072 80.6368V89.0401C7.43196 89.2064 7.39629 89.3712 7.32577 89.5251C7.25524 89.679 7.15125 89.8189 7.01978 89.9369C6.88831 90.0548 6.73196 90.1484 6.55973 90.2123C6.3875 90.2761 6.20279 90.309 6.01625 90.309Z" fill="#263238"/>
<path d="M1.38622 90.309C1.01436 90.3024 0.660394 90.1655 0.400954 89.928C0.141514 89.6905 -0.00252036 89.3715 3.33876e-05 89.0401V80.6368C3.33876e-05 80.3025 0.149056 79.9819 0.414321 79.7455C0.679586 79.5091 1.03936 79.3763 1.4145 79.3763C1.78965 79.3763 2.14942 79.5091 2.41469 79.7455C2.67995 79.9819 2.82898 80.3025 2.82898 80.6368V89.0401C2.83027 89.2085 2.7937 89.3754 2.72142 89.531C2.64914 89.6865 2.5426 89.8276 2.40812 89.9459C2.27363 90.0642 2.11391 90.1573 1.9384 90.2196C1.76288 90.282 1.57513 90.3124 1.38622 90.309Z" fill="#263238"/>
<path d="M56.9278 90.309C56.5526 90.309 56.1929 90.1762 55.9276 89.9398C55.6623 89.7034 55.5133 89.3828 55.5133 89.0485V80.6368C55.5133 80.3025 55.6623 79.9819 55.9276 79.7455C56.1929 79.5091 56.5526 79.3763 56.9278 79.3763C57.3029 79.3763 57.6627 79.5091 57.928 79.7455C58.1932 79.9819 58.3422 80.3025 58.3422 80.6368V89.0401C58.3435 89.2064 58.3078 89.3712 58.2373 89.5251C58.1668 89.679 58.0628 89.8189 57.9313 89.9369C57.7998 90.0548 57.6435 90.1484 57.4713 90.2123C57.299 90.2761 57.1143 90.309 56.9278 90.309Z" fill="#263238"/>
<path d="M52.3072 90.309C51.9353 90.3024 51.5813 90.1655 51.3219 89.928C51.0625 89.6905 50.9184 89.3715 50.921 89.0401V80.6368C50.921 80.3025 51.07 79.9819 51.3353 79.7455C51.6005 79.5091 51.9603 79.3763 52.3354 79.3763C52.7106 79.3763 53.0704 79.5091 53.3356 79.7455C53.6009 79.9819 53.7499 80.3025 53.7499 80.6368V89.0401C53.7512 89.2085 53.7146 89.3754 53.6424 89.531C53.5701 89.6865 53.4635 89.8276 53.3291 89.9459C53.1946 90.0642 53.0349 90.1573 52.8593 90.2196C52.6838 90.282 52.4961 90.3124 52.3072 90.309Z" fill="#263238"/>
<path d="M15.2763 91.8123C14.9012 91.8123 14.5414 91.6795 14.2761 91.4431C14.0109 91.2067 13.8618 90.8862 13.8618 90.5519V79.1662C13.8618 78.8319 14.0109 78.5113 14.2761 78.275C14.5414 78.0386 14.9012 77.9058 15.2763 77.9058C15.6515 77.9058 16.0112 78.0386 16.2765 78.275C16.5418 78.5113 16.6908 78.8319 16.6908 79.1662V90.5519C16.6908 90.8862 16.5418 91.2067 16.2765 91.4431C16.0112 91.6795 15.6515 91.8123 15.2763 91.8123Z" fill="#263238"/>
<path d="M19.9064 93.8121C19.5312 93.8121 19.1714 93.6793 18.9062 93.443C18.6409 93.2066 18.4919 92.886 18.4919 92.5517V77.158C18.4919 76.8237 18.6409 76.5031 18.9062 76.2667C19.1714 76.0304 19.5312 75.8976 19.9064 75.8976C20.2815 75.8976 20.6413 76.0304 20.9065 76.2667C21.1718 76.5031 21.3208 76.8237 21.3208 77.158V92.5517C21.3208 92.886 21.1718 93.2066 20.9065 93.443C20.6413 93.6793 20.2815 93.8121 19.9064 93.8121Z" fill="#263238"/>
<path d="M24.5175 96.9715C24.1432 96.9693 23.7848 96.8358 23.5201 96.5999C23.2554 96.364 23.1055 96.0447 23.1031 95.7111V74.0069C23.1031 73.6726 23.2521 73.3521 23.5174 73.1157C23.7826 72.8793 24.1424 72.7465 24.5175 72.7465C24.8927 72.7465 25.2525 72.8793 25.5177 73.1157C25.783 73.3521 25.932 73.6726 25.932 74.0069V95.7111C25.932 96.0454 25.783 96.366 25.5177 96.6024C25.2525 96.8387 24.8927 96.9715 24.5175 96.9715Z" fill="#263238"/>
<path d="M47.6771 91.8123C47.302 91.8123 46.9422 91.6795 46.677 91.4431C46.4117 91.2067 46.2627 90.8862 46.2627 90.5519V79.1662C46.2627 78.8319 46.4117 78.5113 46.677 78.275C46.9422 78.0386 47.302 77.9058 47.6771 77.9058C48.0523 77.9058 48.4121 78.0386 48.6773 78.275C48.9426 78.5113 49.0916 78.8319 49.0916 79.1662V90.5519C49.0916 90.8862 48.9426 91.2067 48.6773 91.4431C48.4121 91.6795 48.0523 91.8123 47.6771 91.8123Z" fill="#263238"/>
<path d="M43.0471 91.8123C42.672 91.8123 42.3122 91.6795 42.0469 91.4431C41.7817 91.2067 41.6326 90.8862 41.6326 90.5519V79.1662C41.6326 78.8319 41.7817 78.5113 42.0469 78.275C42.3122 78.0386 42.672 77.9058 43.0471 77.9058C43.4222 77.9058 43.782 78.0386 44.0473 78.275C44.3125 78.5113 44.4616 78.8319 44.4616 79.1662V90.5519C44.4616 90.8862 44.3125 91.2067 44.0473 91.4431C43.782 91.6795 43.4222 91.8123 43.0471 91.8123Z" fill="#263238"/>
<path d="M38.4171 93.8121C38.0419 93.8121 37.6821 93.6793 37.4169 93.443C37.1516 93.2066 37.0026 92.886 37.0026 92.5517V77.158C37.0026 76.8237 37.1516 76.5031 37.4169 76.2667C37.6821 76.0304 38.0419 75.8976 38.4171 75.8976C38.7922 75.8976 39.152 76.0304 39.4172 76.2667C39.6825 76.5031 39.8315 76.8237 39.8315 77.158V92.5517C39.8315 92.886 39.6825 93.2066 39.4172 93.443C39.152 93.6793 38.7922 93.8121 38.4171 93.8121Z" fill="#263238"/>
<path d="M33.787 96.9715C33.4119 96.9715 33.0521 96.8387 32.7868 96.6024C32.5216 96.366 32.3726 96.0454 32.3726 95.7111V74.0069C32.3726 73.6726 32.5216 73.3521 32.7868 73.1157C33.0521 72.8793 33.4119 72.7465 33.787 72.7465C34.1622 72.7465 34.5219 72.8793 34.7872 73.1157C35.0525 73.3521 35.2015 73.6726 35.2015 74.0069V95.7111C35.2015 96.0454 35.0525 96.366 34.7872 96.6024C34.5219 96.8387 34.1622 96.9715 33.787 96.9715Z" fill="#263238"/>
<path d="M29.5906 100.645C29.2155 100.645 28.8557 100.512 28.5904 100.276C28.3252 100.039 28.1761 99.7189 28.1761 99.3846V69.6558C28.1761 69.3215 28.3252 69.0009 28.5904 68.7646C28.8557 68.5282 29.2155 68.3954 29.5906 68.3954C29.9657 68.3954 30.3255 68.5282 30.5908 68.7646C30.8561 69.0009 31.0051 69.3215 31.0051 69.6558V99.3846C31.0051 99.7189 30.8561 100.039 30.5908 100.276C30.3255 100.512 29.9657 100.645 29.5906 100.645Z" fill="#1B8C3B"/>
<path d="M311.919 80.872C311.329 78.6368 309.905 76.6464 307.88 75.2261C305.855 73.8059 303.349 73.04 300.772 73.0536C298.196 73.0673 295.7 73.8597 293.694 75.3013C291.689 76.7429 290.291 78.7484 289.731 80.9896C286.941 81.3227 284.389 82.5652 282.567 84.4771C280.745 86.389 279.782 88.8346 279.866 91.3417C279.949 93.8488 281.072 96.2395 283.017 98.0521C284.963 99.8647 287.593 100.971 290.4 101.156L290.608 99.1226C288.34 98.931 286.236 97.9877 284.711 96.4795C283.187 94.9713 282.354 93.0081 282.376 90.9785C282.399 88.9489 283.276 87.0007 284.833 85.5197C286.391 84.0387 288.515 83.1327 290.787 82.981L291.73 82.9222L291.862 82.0819C292.161 80.1453 293.237 78.3707 294.891 77.0861C296.544 75.8015 298.664 75.0938 300.858 75.0938C303.052 75.0938 305.171 75.8015 306.825 77.0861C308.479 78.3707 309.555 80.1453 309.854 82.0819L310.005 83.0735L311.127 82.9642C311.465 82.9274 311.805 82.9077 312.145 82.9054C314.559 82.9076 316.872 83.7641 318.577 85.2863C320.282 86.8085 321.238 88.8719 321.236 91.0224C321.233 93.173 320.272 95.2345 318.564 96.7536C316.856 98.2727 314.54 99.1249 312.127 99.1226V101.173C315.148 101.148 318.034 100.055 320.151 98.1345C322.268 96.2136 323.442 93.6221 323.414 90.93C323.387 88.2379 322.16 85.6659 320.004 83.7796C317.849 81.8934 314.94 80.8474 311.919 80.872Z" fill="#263238"/>
<path d="M308.157 89.0814C308.161 88.9186 308.121 88.7573 308.041 88.6111C307.96 88.4649 307.841 88.338 307.695 88.2411C307.55 88.1461 307.383 88.0823 307.206 88.0546C307.03 88.0269 306.848 88.0361 306.676 88.0815L294.597 91.2745C294.358 91.3366 294.15 91.4662 294.002 91.6436C293.853 91.821 293.774 92.0366 293.776 92.2576V104.576C293.367 104.434 292.933 104.36 292.494 104.358C291.801 104.353 291.121 104.529 290.538 104.864C289.956 105.198 289.495 105.677 289.213 106.241C288.931 106.805 288.839 107.431 288.95 108.04C289.061 108.65 289.368 109.218 289.835 109.674C290.303 110.131 290.909 110.456 291.58 110.61C292.251 110.764 292.959 110.74 293.615 110.541C294.271 110.343 294.848 109.978 295.276 109.491C295.703 109.005 295.962 108.418 296.02 107.803H296.096V98.4168L305.884 95.8372V101.282C305.485 101.14 305.06 101.066 304.63 101.064C303.927 101.064 303.239 101.249 302.655 101.598C302.07 101.946 301.615 102.44 301.345 103.019C301.076 103.598 301.006 104.235 301.143 104.849C301.28 105.464 301.619 106.028 302.116 106.471C302.613 106.914 303.247 107.216 303.936 107.338C304.626 107.461 305.341 107.398 305.99 107.158C306.64 106.918 307.195 106.512 307.586 105.991C307.976 105.47 308.185 104.858 308.185 104.231V89.1066L308.157 89.0814ZM305.856 93.6945L296.096 96.2825V93.0391L305.884 90.451L305.856 93.6945Z" fill="#263238"/>
<path d="M62.6956 234.622C59.7116 234.622 56.7945 235.411 54.3134 236.888C51.8322 238.365 49.8984 240.465 48.7564 242.922C47.6145 245.378 47.3157 248.082 47.8979 250.69C48.48 253.297 49.917 255.693 52.027 257.573C54.1371 259.453 56.8255 260.734 59.7522 261.253C62.6789 261.771 65.7125 261.505 68.4695 260.488C71.2264 259.47 73.5827 257.747 75.2406 255.536C76.8985 253.325 77.7833 250.726 77.7833 248.067C77.7833 244.501 76.1937 241.081 73.3643 238.56C70.5348 236.039 66.6971 234.622 62.6956 234.622ZM62.6956 252.965C61.6139 252.965 60.5565 252.68 59.6571 252.144C58.7577 251.609 58.0566 250.847 57.6427 249.957C57.2287 249.066 57.1204 248.087 57.3315 247.141C57.5425 246.196 58.0634 245.327 58.8283 244.646C59.5932 243.964 60.5677 243.5 61.6286 243.312C62.6896 243.124 63.7893 243.22 64.7887 243.589C65.788 243.958 66.6422 244.583 67.2432 245.384C67.8442 246.186 68.1649 247.128 68.1649 248.092C68.1649 248.732 68.0235 249.366 67.7486 249.957C67.4738 250.548 67.0709 251.085 66.563 251.538C66.0552 251.991 65.4522 252.35 64.7887 252.594C64.1251 252.839 63.4139 252.965 62.6956 252.965Z" fill="#263238"/>
<path d="M62.3216 213.055C60.4771 213.055 58.674 213.542 57.1403 214.456C55.6067 215.369 54.4113 216.667 53.7055 218.185C52.9996 219.704 52.8149 221.375 53.1747 222.987C53.5346 224.599 54.4228 226.079 55.7271 227.242C57.0314 228.404 58.6931 229.195 60.5022 229.516C62.3113 229.837 64.1864 229.672 65.8906 229.043C67.5947 228.414 69.0512 227.349 70.076 225.982C71.1007 224.616 71.6477 223.009 71.6477 221.365C71.6489 220.274 71.4086 219.193 70.9403 218.184C70.4721 217.175 69.7852 216.258 68.9189 215.487C68.0527 214.715 67.0241 214.103 65.892 213.685C64.76 213.268 63.5467 213.054 62.3216 213.055ZM62.3216 224.365C61.6531 224.367 60.9991 224.191 60.4425 223.862C59.8859 223.532 59.4518 223.062 59.1951 222.512C58.9384 221.962 58.8708 221.356 59.0007 220.772C59.1307 220.188 59.4524 219.651 59.9251 219.23C60.3978 218.809 61.0002 218.522 61.6559 218.406C62.3116 218.29 62.9912 218.351 63.6084 218.579C64.2257 218.808 64.7528 219.195 65.1231 219.691C65.4933 220.187 65.6899 220.77 65.6881 221.365C65.6881 221.759 65.601 222.149 65.4318 222.513C65.2626 222.877 65.0146 223.208 64.702 223.486C64.3894 223.765 64.0183 223.986 63.6099 224.137C63.2015 224.287 62.7637 224.365 62.3216 224.365Z" fill="#263238"/>
<path d="M78.3475 265.813H46.9463C45.835 265.813 44.7691 265.42 43.9824 264.721C43.1957 264.021 42.7525 263.072 42.75 262.082V212.38C42.7525 211.39 43.1957 210.441 43.9824 209.742C44.7691 209.042 45.835 208.649 46.9463 208.649H78.3475C79.4579 208.649 80.5229 209.042 81.308 209.742C82.0932 210.442 82.5343 211.391 82.5343 212.38V262.082C82.5343 262.572 82.4261 263.057 82.2156 263.51C82.0052 263.963 81.6968 264.374 81.308 264.72C80.9193 265.067 80.4577 265.342 79.9498 265.529C79.4418 265.717 78.8973 265.813 78.3475 265.813ZM46.9463 209.515C46.0851 209.515 45.259 209.819 44.6492 210.361C44.0393 210.903 43.6955 211.638 43.693 212.405V262.107C43.6955 262.875 44.0393 263.61 44.6492 264.152C45.259 264.694 46.0851 264.998 46.9463 264.998H78.3475C79.2071 264.996 80.0307 264.69 80.6385 264.149C81.2463 263.607 81.5889 262.873 81.5914 262.107V212.38C81.5889 211.614 81.2463 210.88 80.6385 210.339C80.0307 209.797 79.2071 209.492 78.3475 209.49L46.9463 209.515Z" fill="#1B8C3B"/>
<path d="M145.53 66.2692C145.53 65.1012 147.322 63.8408 147.152 62.7149C146.982 61.5889 144.889 60.7486 144.559 59.6479C144.229 58.5471 145.587 56.9002 145.096 55.8414C144.606 54.7827 142.334 54.4802 141.692 53.4887C141.051 52.4972 141.881 50.5982 141.098 49.6823C140.316 48.7664 138.043 49.01 137.128 48.195C136.214 47.3799 136.478 45.3549 135.45 44.6574C134.422 43.96 132.31 44.7079 131.187 44.1281C130.065 43.5483 129.745 41.54 128.547 41.0947C127.35 40.6493 125.53 41.8761 124.275 41.5736C123.021 41.2711 122.135 39.4058 120.834 39.2545C119.532 39.1033 118.155 40.7082 116.845 40.7082C115.534 40.7082 114.12 39.1117 112.856 39.2545C111.592 39.3973 110.659 41.2796 109.423 41.5736C108.188 41.8677 106.331 40.6578 105.142 41.0947C103.954 41.5316 103.615 43.5567 102.502 44.1281C101.389 44.6995 99.2582 43.9516 98.2397 44.6574C97.2213 45.3633 97.4759 47.3799 96.5612 48.195C95.6465 49.01 93.3834 48.7664 92.5913 49.6823C91.7992 50.5982 92.6479 52.4888 92.0067 53.4887C91.3654 54.4886 89.0928 54.7743 88.6025 55.8414C88.1121 56.9086 89.47 58.5303 89.1306 59.6479C88.7911 60.7654 86.7071 61.5553 86.5374 62.7065C86.3676 63.8576 88.1687 65.1012 88.1687 66.2692C88.1687 67.4372 86.3676 68.6892 86.5374 69.8236C86.7071 70.9579 88.8005 71.7814 89.1306 72.8821C89.4606 73.9829 88.1027 75.6382 88.6025 76.6886C89.1023 77.7389 91.356 78.0498 92.0067 79.0497C92.6573 80.0496 91.8086 81.9403 92.5913 82.8478C93.374 83.7552 95.656 83.52 96.5612 84.335C97.4665 85.1501 97.2119 87.1751 98.2397 87.8726C99.2676 88.57 101.38 87.8222 102.502 88.4019C103.624 88.9817 103.945 90.99 105.142 91.4353C106.34 91.8807 108.16 90.6623 109.423 90.9564C110.687 91.2505 111.564 93.1243 112.856 93.2755C114.148 93.4268 115.534 91.8219 116.845 91.8219C118.155 91.8219 119.57 93.4184 120.834 93.2755C122.097 93.1327 123.031 91.2505 124.275 90.9564C125.52 90.6623 127.359 91.8723 128.547 91.4353C129.735 90.9984 130.075 88.9733 131.187 88.4019C132.3 87.8306 134.431 88.5784 135.459 87.8726C136.487 87.1667 136.214 85.1501 137.128 84.335C138.043 83.52 140.306 83.7636 141.098 82.8478C141.89 81.9319 141.042 80.0413 141.692 79.0413C142.343 78.0414 144.597 77.7641 145.096 76.6886C145.596 75.613 144.219 74.0081 144.559 72.8821C144.898 71.7562 146.982 70.9747 147.152 69.8236C147.322 68.6724 145.53 67.4372 145.53 66.2692Z" fill="#263238"/>
<path d="M113.026 93.704H112.799C111.945 93.5013 111.197 93.0373 110.687 92.3932C110.324 91.9598 109.848 91.611 109.301 91.3765C108.683 91.3349 108.062 91.4242 107.49 91.637C106.701 91.9664 105.806 92.0377 104.963 91.8386C104.208 91.4403 103.629 90.8234 103.322 90.0909C103.259 89.8217 103.133 89.5673 102.953 89.3442C102.772 89.1211 102.541 88.9342 102.275 88.7956C102.008 88.657 101.712 88.5698 101.405 88.5396C101.098 88.5095 100.788 88.537 100.493 88.6204C99.6313 88.7519 98.7446 88.6123 97.9851 88.2255C97.3748 87.668 96.9956 86.9419 96.9101 86.1668C96.9293 85.8883 96.882 85.6094 96.7714 85.3483C96.6608 85.0873 96.4894 84.8501 96.2684 84.6525C96.0474 84.4548 95.782 84.301 95.4895 84.2014C95.197 84.1018 94.8841 84.0586 94.5715 84.0745C93.7013 84.006 92.8847 83.6704 92.2612 83.125C91.8271 82.4483 91.6705 81.6582 91.818 80.8899C91.9071 80.3465 91.8423 79.7919 91.6295 79.2766C91.2385 78.8586 90.7359 78.535 90.1678 78.3355C89.7328 78.254 89.3266 78.0795 88.984 77.8272C88.6414 77.5748 88.3727 77.252 88.2011 76.8867C88.0295 76.5213 87.96 76.1242 87.9987 75.7297C88.0374 75.3351 88.1832 74.9548 88.4233 74.6215C88.5971 74.3901 88.7137 74.1284 88.7655 73.8539C88.8172 73.5793 88.803 73.2981 88.7236 73.0288C88.6443 72.7595 88.5017 72.5083 88.3052 72.2918C88.1088 72.0753 87.863 71.8985 87.5841 71.773C86.865 71.3136 86.3428 70.6498 86.1036 69.8907C86.1192 69.1195 86.4284 68.3758 86.9806 67.7817C87.218 67.5933 87.4081 67.3622 87.5382 67.1037C87.6683 66.8452 87.7356 66.5651 87.7356 66.2818C87.7356 65.9985 87.6683 65.7183 87.5382 65.4598C87.4081 65.2013 87.218 64.9703 86.9806 64.7819C86.4251 64.1895 86.1154 63.4447 86.1036 62.6728C86.3406 61.9151 86.8634 61.2533 87.5841 60.799C88.0682 60.4717 88.4564 60.0451 88.7156 59.5554C88.7723 59.007 88.6717 58.4548 88.4233 57.9505C88.1834 57.6165 88.0379 57.2357 87.9993 56.8406C87.9606 56.4456 88.03 56.0481 88.2015 55.6822C88.373 55.3162 88.6415 54.9928 88.9839 54.7396C89.3264 54.4863 89.7326 54.3108 90.1678 54.2281C90.4699 54.1717 90.7554 54.0595 91.0058 53.8986C91.2562 53.7378 91.4659 53.5319 91.6214 53.2944C91.7769 53.0568 91.8748 52.7928 91.9087 52.5194C91.9425 52.246 91.9117 51.9694 91.818 51.7073C91.6838 51.3303 91.6538 50.93 91.7306 50.5405C91.8075 50.151 91.9888 49.7838 92.2592 49.4702C92.5297 49.1566 92.8812 48.9059 93.2838 48.7394C93.6864 48.573 94.1282 48.4957 94.5715 48.5142C95.1811 48.4497 95.7637 48.2536 96.2689 47.9429C96.6176 47.4927 96.8377 46.9735 96.9101 46.4304C96.8871 46.0347 96.9723 45.64 97.1584 45.2802C97.3446 44.9204 97.626 44.6063 97.9786 44.3649C98.3311 44.1235 98.7442 43.962 99.1823 43.8944C99.6204 43.8268 100.07 43.8551 100.493 43.9768C101.103 44.0477 101.724 43.9902 102.304 43.8087C102.77 43.4547 103.133 43.0048 103.36 42.4979C103.455 42.1121 103.653 41.7524 103.937 41.4492C104.221 41.1461 104.583 40.9086 104.992 40.7568C105.401 40.605 105.845 40.5435 106.287 40.5775C106.728 40.6114 107.154 40.7398 107.528 40.9518C107.788 41.1063 108.083 41.2098 108.391 41.2553C108.7 41.3009 109.016 41.2874 109.318 41.2159C109.62 41.1444 109.902 41.0164 110.144 40.8405C110.387 40.6646 110.585 40.4448 110.725 40.1956C111.239 39.555 111.985 39.092 112.837 38.8847C113.702 38.8929 114.538 39.1659 115.204 39.6578C115.694 40.0001 116.27 40.2309 116.882 40.33C117.496 40.2329 118.072 40.0019 118.561 39.6578C118.861 39.3662 119.236 39.1436 119.653 39.009C120.07 38.8743 120.518 38.8315 120.958 38.8844C121.398 38.9372 121.817 39.084 122.18 39.3123C122.542 39.5406 122.837 39.8436 123.04 40.1956C123.406 40.63 123.885 40.9789 124.436 41.2123C125.051 41.2531 125.668 41.1639 126.237 40.9518C126.611 40.7398 127.037 40.6114 127.478 40.5775C127.92 40.5435 128.364 40.605 128.773 40.7568C129.182 40.9086 129.544 41.1461 129.828 41.4492C130.112 41.7524 130.31 42.1121 130.405 42.4979C130.468 42.7671 130.594 43.0215 130.775 43.2446C130.955 43.4677 131.186 43.6546 131.453 43.7932C131.719 43.9317 132.016 44.0189 132.322 44.0491C132.629 44.0793 132.94 44.0518 133.234 43.9684C134.096 43.8458 134.979 43.9849 135.742 44.3633C136.354 44.923 136.734 45.6523 136.817 46.4304C136.891 46.9706 137.111 47.4867 137.458 47.9345C137.963 48.2481 138.545 48.4472 139.156 48.5142C139.599 48.4957 140.041 48.573 140.443 48.7394C140.846 48.9059 141.198 49.1566 141.468 49.4702C141.738 49.7838 141.92 50.151 141.997 50.5405C142.073 50.93 142.043 51.3303 141.909 51.7073C141.816 51.9694 141.785 52.246 141.819 52.5194C141.852 52.7928 141.95 53.0568 142.106 53.2944C142.261 53.5319 142.471 53.7378 142.721 53.8986C142.972 54.0595 143.257 54.1717 143.559 54.2281C143.995 54.3108 144.401 54.4863 144.743 54.7396C145.086 54.9928 145.354 55.3162 145.526 55.6822C145.697 56.0481 145.767 56.4456 145.728 56.8406C145.689 57.2357 145.544 57.6165 145.304 57.9505C145.061 58.4561 144.96 59.0072 145.012 59.5554C145.274 60.0434 145.662 60.4694 146.143 60.799C146.539 60.9778 146.88 61.2394 147.137 61.5613C147.394 61.8832 147.56 62.2559 147.62 62.6474C147.68 63.0389 147.633 63.4376 147.483 63.8094C147.332 64.1811 147.083 64.5148 146.756 64.7819C146.519 64.9703 146.329 65.2013 146.198 65.4598C146.068 65.7183 146.001 65.9985 146.001 66.2818C146.001 66.5651 146.068 66.8452 146.198 67.1037C146.329 67.3622 146.519 67.5933 146.756 67.7817C147.308 68.3752 147.614 69.1199 147.624 69.8907C147.384 70.6498 146.862 71.3136 146.143 71.773C145.66 72.0979 145.272 72.5215 145.012 73.0081C144.959 73.5592 145.059 74.1133 145.304 74.6215C145.544 74.9548 145.69 75.3351 145.728 75.7297C145.767 76.1242 145.698 76.5213 145.526 76.8867C145.354 77.252 145.086 77.5748 144.743 77.8272C144.401 78.0795 143.994 78.254 143.559 78.3355C142.991 78.535 142.489 78.8586 142.098 79.2766C141.885 79.7919 141.82 80.3465 141.909 80.8899C142.044 81.2664 142.074 81.6664 141.997 82.0557C141.921 82.4449 141.739 82.8118 141.468 83.1248C141.198 83.4379 140.846 83.6878 140.443 83.8532C140.04 84.0186 139.599 84.0945 139.156 84.0745C138.844 84.0587 138.532 84.1017 138.24 84.2008C137.948 84.3 137.683 84.4529 137.463 84.6497C137.242 84.8464 137.07 85.0826 136.959 85.3426C136.848 85.6026 136.799 85.8806 136.817 86.1584C136.839 86.5541 136.754 86.9488 136.568 87.3087C136.382 87.6686 136.101 87.983 135.748 88.2249C135.396 88.4669 134.984 88.6292 134.546 88.6981C134.108 88.767 133.658 88.7403 133.234 88.6204C132.94 88.537 132.629 88.5095 132.322 88.5396C132.016 88.5698 131.719 88.657 131.453 88.7956C131.186 88.9342 130.955 89.1211 130.775 89.3442C130.594 89.5673 130.468 89.8217 130.405 90.0909C130.31 90.4767 130.112 90.8364 129.828 91.1395C129.544 91.4426 129.182 91.6802 128.773 91.832C128.364 91.9837 127.92 92.0453 127.478 92.0113C127.037 91.9774 126.611 91.8489 126.237 91.637C125.668 91.4236 125.051 91.3343 124.436 91.3765C123.885 91.6099 123.406 91.9588 123.04 92.3932C122.837 92.7451 122.542 93.0481 122.18 93.2765C121.817 93.5048 121.398 93.6516 120.958 93.7044C120.518 93.7572 120.07 93.7145 119.653 93.5798C119.236 93.4451 118.861 93.2225 118.561 92.931C118.072 92.5869 117.496 92.3559 116.882 92.2588C116.27 92.3579 115.694 92.5886 115.204 92.931C114.572 93.3631 113.818 93.6307 113.026 93.704ZM108.98 90.4858C109.171 90.4874 109.361 90.51 109.546 90.553C110.292 90.8072 110.945 91.2406 111.432 91.805C111.932 92.2924 112.45 92.7965 112.96 92.8554C113.599 92.7948 114.205 92.5701 114.704 92.2083C114.991 91.9522 115.332 91.7491 115.708 91.6105C116.083 91.4719 116.486 91.4005 116.892 91.4005C117.298 91.4005 117.701 91.4719 118.076 91.6105C118.451 91.7491 118.792 91.9522 119.08 92.2083C119.578 92.5701 120.185 92.7948 120.824 92.8554C121.333 92.7965 121.852 92.2924 122.361 91.805C122.831 91.243 123.468 90.8093 124.2 90.553C124.989 90.4492 125.796 90.5423 126.529 90.8219C127.119 91.0614 127.775 91.1403 128.415 91.0488C128.887 90.8723 129.236 90.2673 129.584 89.6875C129.688 89.3394 129.868 89.013 130.115 88.7273C130.361 88.4417 130.669 88.2025 131.019 88.0235C131.37 87.8445 131.757 87.7293 132.159 87.6847C132.56 87.64 132.967 87.6668 133.356 87.7633C133.995 87.8565 134.651 87.7805 135.242 87.5448C135.657 87.0954 135.91 86.5448 135.968 85.9651C136.064 85.2628 136.374 84.5972 136.864 84.0409C137.487 83.6018 138.235 83.3255 139.024 83.2426C139.358 83.2892 139.7 83.2547 140.014 83.143C140.328 83.0312 140.603 82.8462 140.809 82.6074C141.016 82.3685 141.146 82.0846 141.187 81.7854C141.228 81.4862 141.178 81.1827 141.042 80.9067C140.933 80.2025 141.041 79.4854 141.353 78.8312C141.84 78.2646 142.492 77.8285 143.239 77.5708C143.899 77.2683 144.578 76.949 144.766 76.5289C144.878 75.9587 144.789 75.3717 144.512 74.8483C144.203 74.1935 144.098 73.4763 144.21 72.7729C144.499 72.1075 144.989 71.526 145.625 71.0923C146.171 70.647 146.737 70.1764 146.803 69.7227C146.734 69.1541 146.478 68.6163 146.068 68.1766C145.575 67.6119 145.265 66.9377 145.172 66.2272C145.262 65.5159 145.572 64.8409 146.068 64.2777C146.478 63.8349 146.734 63.2944 146.803 62.7232C146.737 62.2695 146.171 61.8073 145.625 61.3536C144.987 60.9218 144.497 60.3397 144.21 59.673C144.098 58.9696 144.203 58.2524 144.512 57.5976C144.79 57.0743 144.879 56.4872 144.766 55.917C144.578 55.4969 143.899 55.1776 143.239 54.8751C142.49 54.6205 141.837 54.1838 141.353 53.6147C141.042 52.9633 140.934 52.249 141.042 51.5476C141.18 51.2713 141.232 50.9668 141.192 50.6662C141.152 50.3657 141.022 50.0804 140.816 49.8402C140.609 49.6001 140.333 49.4142 140.018 49.3021C139.703 49.19 139.359 49.1558 139.024 49.2033C138.235 49.1204 137.487 48.8441 136.864 48.405C136.374 47.8487 136.064 47.1832 135.968 46.4808C135.91 45.9011 135.657 45.3505 135.242 44.9011C134.651 44.6654 133.995 44.5895 133.356 44.6826C132.569 44.7881 131.765 44.6919 131.037 44.4053C130.406 43.9846 129.917 43.4179 129.622 42.7668C129.273 42.1786 128.924 41.5736 128.453 41.3972C127.813 41.3056 127.157 41.3846 126.567 41.624C125.833 41.9037 125.027 41.9967 124.238 41.8929C123.506 41.6366 122.869 41.2029 122.399 40.6409C121.89 40.1536 121.371 39.6494 120.862 39.5906C120.219 39.6466 119.611 39.8751 119.117 40.246C118.534 40.7571 117.748 41.0435 116.93 41.0435C116.111 41.0435 115.326 40.7571 114.742 40.246C114.246 39.8787 113.639 39.6506 112.997 39.5906C112.488 39.6494 111.97 40.1536 111.47 40.6409C111.06 41.2632 110.391 41.7158 109.609 41.9C108.826 42.0842 107.993 41.985 107.292 41.624C106.702 41.3846 106.046 41.3056 105.406 41.3972C104.935 41.5736 104.586 42.1786 104.237 42.7668C103.945 43.4192 103.455 43.9865 102.823 44.4053C102.095 44.6919 101.29 44.7881 100.503 44.6826C100.192 44.5608 99.8507 44.5159 99.5139 44.5527C99.1772 44.5894 98.8578 44.7064 98.5894 44.8914C98.321 45.0764 98.1136 45.3224 97.989 45.6036C97.8644 45.8848 97.8272 46.1907 97.8814 46.4892C97.7702 47.1928 97.444 47.8556 96.9384 48.405C96.3154 48.8441 95.5679 49.1204 94.779 49.2033C94.1285 49.2614 93.5118 49.4894 93.0062 49.8587C92.7373 50.3843 92.6519 50.9698 92.761 51.5392C92.8684 52.2406 92.7609 52.9549 92.4498 53.6063C91.9659 54.1754 91.3125 54.6121 90.5639 54.8667C89.9038 55.1692 89.2249 55.4885 89.0363 55.9086C88.9289 56.4789 89.0176 57.0647 89.2909 57.5892C89.693 58.2129 89.8027 58.9529 89.5961 59.6483C89.3895 60.3437 88.8834 60.9384 88.1876 61.3032C87.6406 61.7569 87.0749 62.2191 87.0089 62.6728C87.0741 63.2433 87.3266 63.784 87.7349 64.2273C88.2473 64.786 88.5739 65.4613 88.6779 66.1767C88.5701 66.8913 88.2439 67.5657 87.7349 68.1262C87.3254 68.5655 87.0725 69.1039 87.0089 69.6723C87.0749 70.126 87.6406 70.5966 88.1876 71.0419C88.8182 71.4782 89.3039 72.0591 89.5926 72.7225C89.7091 73.4258 89.6047 74.1442 89.2909 74.7979C89.0227 75.3237 88.9341 75.9082 89.0363 76.4785C89.2249 76.8986 89.9038 77.2179 90.5639 77.5204C91.3132 77.7781 91.9665 78.2176 92.4498 78.7892C92.7623 79.4403 92.8699 80.1549 92.761 80.8563C92.625 81.1323 92.5749 81.4358 92.6158 81.735C92.6567 82.0342 92.7871 82.3181 92.9934 82.5569C93.1998 82.7958 93.4744 82.9808 93.7886 83.0926C94.1027 83.2043 94.4448 83.2388 94.779 83.1922C95.5679 83.2751 96.3154 83.5514 96.9384 83.9905C97.446 84.5421 97.7724 85.2081 97.8814 85.9147C97.8292 86.2125 97.8678 86.5174 97.9933 86.7973C98.1187 87.0772 98.3263 87.3219 98.5944 87.5058C98.8624 87.6897 99.181 87.8059 99.5168 87.8423C99.8526 87.8788 100.193 87.8341 100.503 87.7129C101.289 87.5225 102.129 87.6183 102.836 87.9791C103.543 88.34 104.061 88.9363 104.275 89.6371C104.614 90.2169 104.973 90.8219 105.435 90.9983C106.075 91.0899 106.731 91.011 107.321 90.7715C107.856 90.608 108.415 90.5118 108.98 90.4858Z" fill="#263238"/>
<path d="M101.078 74.4702C100.895 74.4715 100.716 74.4253 100.562 74.3373C100.408 74.2493 100.286 74.1232 100.211 73.9745C99.506 72.551 99.0023 71.0551 98.7112 69.521C96.8253 60.0428 103.322 51.1023 113.092 49.5982C122.861 48.0941 132.3 54.6398 134.139 64.0761C134.243 64.6307 134.328 65.1768 134.375 65.7566C134.385 65.867 134.371 65.9781 134.334 66.0836C134.296 66.1891 134.235 66.287 134.155 66.3717C134.075 66.4564 133.977 66.5261 133.867 66.577C133.756 66.6279 133.636 66.6589 133.512 66.6683C133.388 66.6777 133.263 66.6652 133.145 66.6317C133.027 66.5981 132.917 66.5441 132.822 66.4727C132.727 66.4013 132.648 66.3139 132.591 66.2156C132.534 66.1172 132.499 66.0098 132.489 65.8995C132.489 65.4037 132.366 64.8995 132.272 64.3954C130.612 55.8246 122.154 49.9511 113.412 51.2872C104.671 52.6232 98.9092 60.6982 100.569 69.2689C100.839 70.6497 101.298 71.9958 101.936 73.277C101.986 73.378 102.014 73.4868 102.017 73.5972C102.02 73.7076 101.998 73.8174 101.954 73.9205C101.909 74.0235 101.842 74.1176 101.757 74.1975C101.671 74.2775 101.569 74.3416 101.455 74.3862C101.337 74.4373 101.209 74.4659 101.078 74.4702Z" fill="white"/>
<path d="M101.078 74.8904C100.803 74.8909 100.534 74.8205 100.303 74.6878C100.072 74.5551 99.8896 74.3658 99.7768 74.1425C99.0609 72.6879 98.5448 71.1616 98.2397 69.5966C97.3128 65.0076 98.3526 60.2757 101.154 56.3372C102.448 54.4635 104.175 52.8569 106.22 51.624C108.266 50.3912 110.582 49.5603 113.015 49.1868C115.448 48.8132 117.943 48.9054 120.333 49.4574C122.724 50.0093 124.955 51.0083 126.878 52.3879C131.003 55.2672 133.761 59.4251 134.601 64.0341C134.714 64.5886 134.79 65.16 134.846 65.7146C134.862 65.8796 134.841 66.0456 134.784 66.2033C134.728 66.361 134.637 66.5073 134.517 66.6337C134.397 66.7601 134.25 66.8642 134.085 66.9401C133.92 67.0159 133.74 67.0621 133.554 67.0758C133.369 67.092 133.181 67.0748 133.003 67.0253C132.825 66.9758 132.66 66.895 132.518 66.7877C132.375 66.6803 132.259 66.5487 132.174 66.4005C132.09 66.2522 132.04 66.0905 132.027 65.9247C132.027 65.4457 131.914 64.9499 131.819 64.4626C130.207 56.1187 121.984 50.3965 113.497 51.6989C105.01 53.0013 99.4185 60.8494 101.031 69.1933C101.293 70.5566 101.743 71.8859 102.37 73.151C102.448 73.3036 102.491 73.4685 102.497 73.6361C102.503 73.8038 102.471 73.9707 102.403 74.1272C102.336 74.2837 102.234 74.4266 102.103 74.5476C101.973 74.6685 101.817 74.7651 101.644 74.8315C101.462 74.8881 101.269 74.9082 101.078 74.8904ZM115.93 49.7999C115.007 49.8031 114.086 49.8733 113.177 50.0099C110.875 50.3771 108.686 51.1712 106.751 52.3409C104.816 53.5105 103.179 55.0295 101.946 56.7993C99.2694 60.557 98.2796 65.0751 99.1733 69.4538C99.462 70.9528 99.9561 72.4146 100.644 73.8064C100.698 73.9062 100.792 73.9837 100.908 74.0229C101.024 74.062 101.153 74.0597 101.267 74.0165C101.38 73.9706 101.469 73.8865 101.513 73.7826C101.557 73.6786 101.553 73.5633 101.502 73.4619C100.848 72.1339 100.376 70.7401 100.097 69.311C98.4 60.5133 104.331 52.2282 113.299 50.825C122.267 49.4217 131.008 55.4801 132.706 64.2693C132.809 64.7819 132.885 65.3029 132.932 65.807C132.937 65.8619 132.954 65.9154 132.982 65.9644C133.01 66.0133 133.049 66.0567 133.097 66.092C133.144 66.1272 133.199 66.1537 133.258 66.1697C133.318 66.1857 133.38 66.1909 133.441 66.1851C133.565 66.1761 133.68 66.125 133.762 66.0423C133.802 65.9997 133.832 65.9501 133.85 65.8965C133.868 65.843 133.873 65.7868 133.866 65.7314C133.818 65.202 133.743 64.6643 133.639 64.1265C132.832 59.7327 130.2 55.7702 126.265 53.0265C123.317 50.9591 119.681 49.8239 115.93 49.7999Z" fill="#263238"/>
<path d="M164.305 195.41C164.305 195.41 202.618 187.008 214.556 176.924C214.556 176.924 211.105 192.89 217.385 201.292C223.666 209.695 248.768 231.929 253.162 236.407C257.556 240.886 265.798 251.431 268.306 251.146C270.815 250.86 277.736 240.785 279.943 237.987C282.149 235.189 285.968 233.408 286.591 228.643C287.213 223.879 284.082 223.602 282.819 225.005C281.555 226.408 275.077 230.786 270.984 231.903C266.892 233.021 262.498 234.332 262.498 234.332C255.901 226.084 250.067 217.372 245.052 208.283C237.509 194.276 229.663 167.95 227.136 162.64C224.609 157.329 220.846 155.64 216.131 155.64C211.416 155.64 196.329 155.64 169.925 166.001C143.522 176.362 144.465 186.445 146.982 190.092C149.5 193.738 155.78 196.856 164.305 195.41Z" fill="#263238"/>
<path d="M268.221 251.616C266.26 251.616 262.564 247.633 257.245 241.609C255.604 239.752 254.048 237.995 252.813 236.727C251.578 235.458 248.673 232.777 244.996 229.374C235.651 220.711 221.525 207.62 216.999 201.57C211.605 194.36 213.227 181.974 213.868 178.042C201.025 187.714 165.946 195.452 164.418 195.789C155.743 197.251 149.217 194.108 146.605 190.31C145.906 189.217 145.48 188.003 145.356 186.75C145.232 185.497 145.414 184.235 145.889 183.05C147.378 178.79 152.735 172.303 169.765 165.614C196.263 155.22 211.256 155.22 216.159 155.22C221.619 155.22 225.259 157.523 227.598 162.48C228.437 164.262 229.87 168.362 231.681 173.555C235.387 184.201 240.469 198.763 245.486 208.099C250.447 217.07 256.198 225.676 262.686 233.836C263.789 233.517 267.467 232.433 270.871 231.5C274.888 230.408 281.31 226.047 282.479 224.778C282.804 224.393 283.26 224.113 283.779 223.98C284.297 223.847 284.851 223.867 285.355 224.038C286.025 224.282 287.553 225.248 287.09 228.727C286.628 232.206 284.573 234.122 282.583 235.97C281.775 236.678 281.03 237.443 280.358 238.256C279.933 238.794 279.349 239.583 278.651 240.525C274.436 246.23 270.475 251.364 268.401 251.599L268.221 251.616ZM214.556 176.546C214.635 176.545 214.713 176.563 214.783 176.597C214.87 176.639 214.941 176.705 214.985 176.785C215.029 176.864 215.044 176.954 215.028 177.042C215.028 177.202 211.671 192.94 217.781 201.099C222.261 207.09 236.349 220.148 245.675 228.828C249.352 232.239 252.276 234.928 253.52 236.214C254.765 237.5 256.349 239.256 257.99 241.121C261.46 245.045 266.741 250.978 268.25 250.809C270.07 250.608 275.313 243.516 277.84 240.104C278.538 239.155 279.132 238.357 279.556 237.819C280.26 236.969 281.036 236.169 281.876 235.424C283.762 233.676 285.704 231.87 286.129 228.702C286.393 226.677 285.959 225.248 284.959 224.879C284.644 224.781 284.302 224.775 283.983 224.863C283.664 224.951 283.385 225.127 283.187 225.366C281.942 226.761 275.369 231.248 271.126 232.408C267.09 233.517 262.639 234.819 262.639 234.836C262.541 234.849 262.441 234.834 262.353 234.793C262.265 234.752 262.193 234.688 262.149 234.609C255.538 226.335 249.688 217.599 244.656 208.485C239.602 199.108 234.51 184.495 230.795 173.832C228.993 168.665 227.57 164.589 226.749 162.825C224.543 158.161 221.28 156.103 216.178 156.103C211.303 156.103 196.479 156.103 170.161 166.429C153.461 172.984 148.246 179.244 146.813 183.344C146.379 184.413 146.209 185.552 146.315 186.685C146.421 187.818 146.8 188.916 147.426 189.907C149.868 193.444 156.016 196.394 164.248 195.007C165.116 194.814 202.647 186.487 214.283 176.664C214.357 176.599 214.453 176.558 214.556 176.546Z" fill="#263238"/>
<path d="M286.591 228.727C287.222 223.971 284.082 223.686 282.819 225.089C281.555 226.492 275.077 230.87 270.984 231.987C266.892 233.105 262.498 234.416 262.498 234.416C257.079 227.637 252.165 220.55 247.787 213.199C245.225 216.834 241.501 219.702 237.094 221.434C244.307 228.206 251.087 234.365 253.181 236.491C257.585 240.978 265.817 251.515 268.325 251.23C270.833 250.944 277.755 240.869 279.962 238.071C282.168 235.273 285.968 233.449 286.591 228.727Z" fill="#D9D9D9"/>
<path d="M268.221 251.616C266.26 251.616 262.564 247.633 257.245 241.609C255.604 239.752 254.048 237.995 252.813 236.727C251.578 235.458 248.664 232.769 244.986 229.357C242.487 227.055 239.649 224.417 236.735 221.686C236.682 221.637 236.642 221.577 236.62 221.512C236.598 221.446 236.594 221.377 236.609 221.31C236.624 221.243 236.657 221.18 236.705 221.127C236.754 221.074 236.816 221.032 236.886 221.005C241.208 219.306 244.86 216.494 247.372 212.93C247.42 212.87 247.484 212.821 247.558 212.787C247.632 212.754 247.714 212.736 247.796 212.737C247.879 212.742 247.958 212.765 248.027 212.805C248.096 212.845 248.153 212.899 248.193 212.964C252.51 220.202 257.342 227.188 262.658 233.878C263.761 233.559 267.439 232.475 270.843 231.542C274.86 230.45 281.282 226.089 282.451 224.82C282.776 224.435 283.232 224.155 283.75 224.022C284.269 223.889 284.823 223.909 285.327 224.08C285.997 224.324 287.524 225.29 287.062 228.769C286.6 232.248 284.544 234.164 282.555 236.012C281.746 236.721 281.002 237.485 280.329 238.298C279.905 238.836 279.32 239.625 278.622 240.567C274.407 246.272 270.447 251.406 268.372 251.641L268.221 251.616ZM237.876 221.534C240.63 224.114 243.298 226.576 245.665 228.778C249.352 232.197 252.266 234.895 253.52 236.18C254.775 237.466 256.349 239.222 257.99 241.088C261.46 245.012 266.741 250.944 268.25 250.776C270.07 250.574 275.313 243.482 277.84 240.071C278.538 239.121 279.132 238.323 279.556 237.785C280.26 236.936 281.035 236.135 281.876 235.391C283.762 233.643 285.704 231.836 286.129 228.668C286.393 226.643 285.959 225.215 284.959 224.845C284.644 224.747 284.302 224.742 283.983 224.83C283.664 224.917 283.385 225.093 283.186 225.332C281.942 226.727 275.369 231.214 271.126 232.374C267.09 233.483 262.639 234.786 262.639 234.802C262.545 234.818 262.448 234.808 262.36 234.774C262.272 234.739 262.199 234.682 262.149 234.609C256.873 228.005 252.073 221.109 247.778 213.964C245.3 217.234 241.88 219.849 237.876 221.534Z" fill="#263238"/>
<path d="M116.194 88.3431C116.194 88.3431 120.334 95.9055 120.796 98.4263C121.258 100.947 118.033 102.325 114.808 102.939C111.583 103.552 106.557 101.846 101.465 107.006C96.3727 112.165 83.9253 134.491 82.1242 137.978C80.3231 141.465 82.1242 144.339 87.188 143.515C92.2518 142.692 105.831 126.71 105.831 126.71C105.831 126.71 122.635 144.961 124.69 148.859C126.746 152.758 126.077 159.321 125.633 166.093C125.19 172.866 124.021 182.706 130.923 190.705C137.826 198.704 152.339 200.965 164.305 195.419C176.271 189.873 189.2 170.765 183.438 162.968C177.676 155.17 164.767 151.321 160.854 143.935C156.94 136.549 158.298 132.466 158.298 124.878C158.126 119.056 157.496 113.253 156.412 107.51C156.412 107.51 176.215 103.308 199.158 100.51C207.145 99.5355 202.147 91.4857 197.545 89.8472C191.774 87.7885 166.21 90.1665 159.241 89.5867C149.18 88.7464 144.05 90.6034 141.749 92.0403C139.448 93.4771 136.449 95.5274 133.922 95.3257C131.395 95.1241 128.623 84.0409 128.623 84.0409C128.623 84.0409 121.946 88.9565 116.194 88.3431Z" fill="#1B8C3B"/>
<path d="M150.387 198.856C142.484 198.856 134.997 196.099 130.584 190.949C123.983 183.277 124.624 173.992 125.105 167.219L125.313 164.295C125.746 158.228 126.152 152.531 124.313 149.027C122.474 145.524 108.377 130.105 105.878 127.374C103.634 129.979 92.0726 143.162 87.3012 143.935C84.7834 144.339 82.8126 143.893 81.7659 142.675C80.7192 141.457 80.7192 139.7 81.7659 137.801C83.3784 134.743 96.0049 111.963 101.172 106.711C105.095 102.737 108.99 102.687 112.111 102.644C113.004 102.663 113.898 102.606 114.78 102.476C116.222 102.199 120.89 101.098 120.438 98.4431C119.994 96.0736 115.911 88.5784 115.873 88.5027C115.832 88.4389 115.81 88.3664 115.81 88.2927C115.81 88.2189 115.832 88.1465 115.873 88.0826C115.923 88.0208 115.99 87.9719 116.068 87.9409C116.146 87.9099 116.232 87.8979 116.317 87.9061C121.805 88.4859 128.321 83.7048 128.387 83.7048C128.449 83.6594 128.524 83.6294 128.603 83.6176C128.683 83.6058 128.764 83.6127 128.839 83.6376C128.917 83.6586 128.987 83.6977 129.041 83.7509C129.096 83.8041 129.134 83.8694 129.151 83.9401C130.471 89.2422 132.659 94.788 134.026 94.8636C136.166 95.0316 138.816 93.3679 140.947 92.0319L141.541 91.6538C143.663 90.3345 148.793 88.2927 159.345 89.1329C161.957 89.3514 167.398 89.1329 173.15 88.9229C182.976 88.5363 194.113 88.0826 197.79 89.4186C200.883 90.5194 204.297 94.4603 203.872 97.5189C203.693 98.8297 202.75 100.468 199.29 100.88C178.469 103.401 160.024 107.157 157.016 107.779C158.066 113.417 158.674 119.114 158.836 124.828C158.836 126.508 158.77 127.962 158.704 129.382C158.487 134.424 158.336 138.028 161.344 143.709C163.334 147.465 167.728 150.288 172.377 153.279C176.667 156.044 181.099 158.901 183.9 162.69C185.579 164.959 185.843 168.286 184.664 172.311C182.024 181.327 173.018 191.848 164.588 195.747C160.204 197.786 155.332 198.852 150.387 198.856ZM105.831 126.281C105.901 126.279 105.971 126.292 106.035 126.318C106.098 126.345 106.155 126.384 106.198 126.433C106.887 127.18 123.059 144.776 125.134 148.675C127.076 152.33 126.661 158.17 126.227 164.346L126.02 167.27C125.539 173.916 124.888 183.016 131.301 190.444C138.137 198.368 152.546 200.385 164.088 195.041C172.169 191.301 181.147 180.815 183.683 172.143C184.796 168.354 184.57 165.262 183.051 163.194C180.345 159.531 175.979 156.724 171.736 154.002C167.021 150.943 162.504 148.061 160.42 144.103C157.308 138.222 157.478 134.331 157.695 129.39C157.751 127.979 157.817 126.517 157.817 124.87C157.643 119.073 157.013 113.295 155.931 107.577C155.911 107.471 155.937 107.363 156.004 107.274C156.071 107.185 156.173 107.122 156.29 107.098C156.488 107.056 176.375 102.855 199.082 100.082C201.392 99.8044 202.656 98.9137 202.854 97.4432C203.222 94.788 200.082 91.2 197.356 90.2253C193.867 88.9817 182.354 89.427 173.103 89.7883C167.068 90.0152 161.853 90.2169 159.175 89.9984C148.916 89.1581 144.012 91.116 141.994 92.3764L141.409 92.7461C139.156 94.1662 136.355 95.9391 133.866 95.7291C131.376 95.519 129.056 87.5868 128.321 84.8055C126.633 85.9399 121.72 89.0069 116.958 88.8472C117.986 90.7547 120.862 96.2668 121.248 98.3591C121.682 100.636 119.306 102.51 114.902 103.35C113.968 103.491 113.021 103.553 112.073 103.535C109.131 103.577 105.472 103.619 101.823 107.316C96.7215 112.484 84.1705 135.146 82.558 138.196C81.7093 139.801 81.6904 141.255 82.492 142.196C83.2935 143.137 84.9626 143.49 87.1126 143.137C90.9788 142.515 100.805 131.97 105.463 126.475C105.507 126.426 105.563 126.386 105.627 126.358C105.69 126.331 105.76 126.316 105.831 126.315V126.281Z" fill="#263238"/>
<path d="M170.076 89.4775L168.19 89.5447C167.934 94.7786 169.364 99.9684 172.311 104.502L174.291 104.165C171.287 99.7485 169.82 94.6371 170.076 89.4775Z" fill="#263238"/>
<path d="M159.411 140.734C159.203 140.188 159.024 139.65 158.873 139.129C144.606 141.952 132.536 150.187 126.095 155.338C126.095 156.061 126.095 156.817 126.095 157.59C132.017 152.699 144.512 143.641 159.411 140.734Z" fill="#263238"/>
<path d="M122.955 146.322C123.37 146.868 123.738 147.355 124.03 147.784C128.283 144.045 139.118 136.02 158.1 131.172C158.1 130.592 158.147 129.987 158.176 129.374C138.618 134.23 127.576 142.272 122.955 146.322Z" fill="#263238"/>
<path d="M108.933 118.316C112.318 117.988 128.462 115.795 151.924 102.35C153.027 104.287 154.251 106.167 155.592 107.98C155.679 108.093 155.796 108.184 155.933 108.247C156.069 108.31 156.221 108.343 156.374 108.342H156.525L156.374 107.501L157.317 107.316C157.291 107.214 157.243 107.117 157.176 107.031C157.101 106.93 149.953 97.5272 149.236 89.6875C148.567 89.7799 147.944 89.8808 147.35 89.9984C147.526 91.5702 147.87 93.1234 148.378 94.6367C136.626 102.338 122.872 107.253 108.405 108.921C108.021 107.135 107.469 105.381 106.755 103.678C106.15 103.865 105.563 104.095 105.001 104.367C105.603 105.84 106.079 107.351 106.425 108.888C105.312 107.741 104.004 106.757 102.549 105.972C102.155 106.287 101.783 106.624 101.436 106.98L101.21 107.216C103.832 108.61 106.368 110.703 107.104 113.753C107.185 115.401 107.128 117.053 106.934 118.694C105.04 115.367 101.766 112.829 97.806 111.619C97.4854 112.081 97.1553 112.568 96.8158 113.072C99.1003 113.672 101.171 114.79 102.824 116.318C104.477 117.845 105.656 119.73 106.246 121.786C106.26 121.852 106.289 121.915 106.331 121.971C106.114 122.878 105.84 123.794 105.52 124.735C102.722 121.186 98.5565 118.68 93.8172 117.694L92.8742 119.215C95.3478 119.641 97.6893 120.538 99.7395 121.842C101.79 123.147 103.501 124.83 104.756 126.777C104.482 127.466 104.228 128.13 103.973 128.785C105.095 127.517 105.784 126.71 105.784 126.71L106.481 127.466L106.67 126.996C107.844 124.202 108.604 121.284 108.933 118.316ZM148.991 96.3172C149.595 97.8412 150.287 99.3361 151.066 100.796C128.755 113.652 112.856 116.164 109.037 116.601C109.037 115.803 109.037 115.03 109.037 114.282C109.061 114.174 109.061 114.063 109.037 113.955V113.82C108.98 112.686 108.867 111.619 108.707 110.61C123.26 108.905 137.106 103.992 148.991 96.3172Z" fill="#263238"/>
<path d="M164.286 148.103C163.789 147.649 163.318 147.187 162.872 146.717C146.464 150.918 133.507 159.195 125.69 165.278L125.633 166.119C125.596 166.623 125.558 167.144 125.52 167.682C133.111 161.506 146.728 152.347 164.286 148.103Z" fill="#263238"/>
<path d="M158.26 123.097C158.26 122.542 158.26 121.988 158.185 121.416C133.988 122.559 122.05 133.6 117.335 139.558L118.533 140.944C122.729 135.457 134.139 124.248 158.26 123.097Z" fill="#263238"/>
<path d="M182.655 89.0405L180.703 89.0994C179.956 93.733 180.553 98.4599 182.438 102.829L184.324 102.535C182.449 98.2455 181.873 93.5914 182.655 89.0405Z" fill="#263238"/>
<path d="M156.771 89.4271C157.672 95.3031 159.728 100.992 162.843 106.232L164.786 105.863C161.698 100.789 159.645 95.2664 158.723 89.5531C158.053 89.4943 157.402 89.4523 156.771 89.4271Z" fill="#263238"/>
<path d="M157.478 113.946C157.393 113.366 157.317 112.803 157.242 112.266C129.83 115.207 116.081 125.567 110.282 131.541C110.687 131.987 111.093 132.449 111.526 132.919C116.93 127.281 130.471 116.879 157.478 113.946Z" fill="#263238"/>
<path d="M164.305 195.41C174.206 190.831 184.758 176.924 184.843 167.883C184.833 166.296 184.337 164.742 183.41 163.388C182.637 162.321 181.778 161.228 180.873 160.119C177.733 157.161 173.65 154.741 169.916 152.288C149.114 159.27 132.451 173.294 125.643 178.781C126.179 183.102 128.002 187.216 130.923 190.696C137.835 198.696 152.339 200.998 164.305 195.41Z" fill="#263238"/>
<path d="M150.387 198.856C142.484 198.856 134.997 196.099 130.584 190.949C127.598 187.418 125.738 183.235 125.2 178.84C125.189 178.772 125.198 178.702 125.226 178.637C125.255 178.572 125.3 178.515 125.36 178.471L126.633 177.445C134.252 171.295 150.094 158.506 169.784 151.901C169.856 151.874 169.935 151.864 170.013 151.873C170.091 151.882 170.165 151.909 170.227 151.952C170.915 152.405 171.613 152.851 172.32 153.304C175.511 155.234 178.5 157.417 181.25 159.825C182.288 161.102 183.136 162.178 183.834 163.186C184.809 164.606 185.33 166.236 185.343 167.9C185.258 177.017 174.763 191.1 164.597 195.822C160.203 197.836 155.328 198.877 150.387 198.856ZM126.143 178.941C126.684 183.116 128.464 187.087 131.301 190.444C138.137 198.368 152.546 200.385 164.088 195.041C174.046 190.428 184.287 176.723 184.372 167.883C184.364 166.377 183.894 164.901 183.014 163.615C182.306 162.648 181.486 161.581 180.496 160.363C177.796 158.007 174.864 155.873 171.736 153.985L169.85 152.767C150.453 159.338 134.79 171.975 127.246 178.067L126.143 178.941Z" fill="#263238"/>
<path d="M102.276 71.378C101.87 71.3935 101.469 71.4643 101.088 71.5881C97.9663 72.5628 96.7404 76.6297 98.3435 80.705C99.9465 84.7803 103.784 87.2675 106.896 86.2844C107.549 86.0778 108.135 85.7316 108.603 85.2761L102.276 71.378Z" fill="white"/>
<path d="M105.482 86.923C104.136 86.8858 102.838 86.4679 101.776 85.7299C99.9993 84.4562 98.6565 82.7662 97.8986 80.8499C97.1406 78.9335 96.9975 76.8668 97.4854 74.882C97.6686 74.0592 98.0794 73.2902 98.6804 72.6446C99.2814 71.999 100.054 71.4972 100.927 71.1848C101.356 71.0538 101.804 70.9774 102.257 70.9579C102.353 70.9549 102.448 70.9783 102.529 71.0248C102.61 71.0714 102.673 71.139 102.709 71.2184L109.046 85.1165C109.079 85.1911 109.087 85.2724 109.071 85.3511C109.054 85.4299 109.013 85.5028 108.952 85.5618C108.432 86.0646 107.786 86.4505 107.066 86.6878C106.556 86.8422 106.021 86.9217 105.482 86.923ZM101.974 71.7982C101.723 71.8293 101.477 71.8827 101.238 71.9578C100.513 72.2262 99.8738 72.652 99.3797 73.1964C98.8857 73.7409 98.5522 74.3867 98.4095 75.0752C97.9655 76.8971 98.0971 78.793 98.7896 80.5523C99.4821 82.3115 100.708 83.8653 102.332 85.0408C102.933 85.4945 103.65 85.8086 104.42 85.9553C105.19 86.1019 105.989 86.0764 106.745 85.8811C107.231 85.7278 107.675 85.4843 108.047 85.1669L101.974 71.7982Z" fill="#263238"/>
<path d="M102.276 71.378C101.87 71.3935 101.469 71.4643 101.088 71.5881C100.734 71.7001 100.398 71.8527 100.088 72.0418L106.689 86.3264C106.753 86.3147 106.816 86.2978 106.877 86.276C107.53 86.0694 108.116 85.7232 108.584 85.2677L102.276 71.378Z" fill="white"/>
<path d="M106.764 86.7214C106.665 86.727 106.566 86.707 106.479 86.6638C106.392 86.6205 106.321 86.556 106.274 86.4777L99.6731 72.1931C99.6327 72.1044 99.6275 72.0061 99.6584 71.9144C99.6892 71.8227 99.7543 71.7432 99.8428 71.6889C100.186 71.4789 100.556 71.3068 100.946 71.1763C101.375 71.0453 101.823 70.969 102.276 70.9495C102.372 70.9465 102.467 70.9699 102.548 71.0164C102.629 71.063 102.692 71.1305 102.728 71.21L109.065 85.108C109.098 85.1827 109.106 85.264 109.089 85.3427C109.073 85.4214 109.032 85.4944 108.971 85.5534C108.451 86.0562 107.805 86.4421 107.085 86.6793H106.925L106.764 86.7214ZM100.682 72.1931L106.972 85.7887C107.368 85.635 107.732 85.4218 108.047 85.1585L101.974 71.8066C101.723 71.8377 101.477 71.8911 101.238 71.9662C101.045 72.0316 100.858 72.1131 100.682 72.2099V72.1931Z" fill="#263238"/>
<path d="M130.688 62.9333C131.016 62.7194 131.379 62.5495 131.763 62.4291C134.875 61.4544 138.703 63.95 140.316 68.0085C141.928 72.067 140.702 76.1508 137.59 77.1339C136.933 77.3323 136.231 77.3899 135.544 77.3019L130.688 62.9333Z" fill="white"/>
<path d="M136.204 77.7557C135.964 77.7584 135.725 77.7444 135.487 77.7136C135.397 77.7032 135.312 77.6699 135.241 77.6179C135.171 77.5658 135.119 77.497 135.091 77.4195L130.235 63.0593C130.207 62.976 130.209 62.8872 130.239 62.8047C130.27 62.7222 130.327 62.6498 130.405 62.5972C130.772 62.3591 131.175 62.1695 131.602 62.0342C134.959 60.9838 139.071 63.5971 140.759 67.8657C141.561 69.7728 141.709 71.8495 141.183 73.8316C141 74.6543 140.589 75.4234 139.988 76.0689C139.387 76.7145 138.615 77.2163 137.741 77.5288C137.247 77.6809 136.727 77.7576 136.204 77.7557ZM135.912 76.9154C136.425 76.9498 136.942 76.8927 137.43 76.7473C138.157 76.4781 138.797 76.0511 139.291 75.5051C139.785 74.9591 140.118 74.3116 140.259 73.6215C140.737 71.8034 140.599 69.8996 139.863 68.1513C138.345 64.3197 134.771 61.9334 131.904 62.8324C131.667 62.91 131.44 63.0085 131.225 63.1265L135.912 76.9154Z" fill="#263238"/>
<path d="M136.204 77.7557C135.964 77.7584 135.725 77.7444 135.487 77.7137C135.397 77.7032 135.312 77.67 135.241 77.6179C135.171 77.5658 135.119 77.497 135.091 77.4196L130.235 63.0593C130.207 62.9761 130.209 62.8873 130.239 62.8047C130.27 62.7222 130.327 62.6498 130.405 62.5972C130.772 62.3592 131.175 62.1695 131.602 62.0342C131.995 61.9124 132.404 61.8389 132.819 61.8157C132.927 61.8081 133.035 61.834 133.125 61.8891C133.214 61.9443 133.279 62.0252 133.309 62.1182L138.222 76.9406C138.256 77.0399 138.247 77.147 138.196 77.2405C138.146 77.334 138.057 77.407 137.949 77.4448L137.741 77.5288C137.247 77.6809 136.727 77.7576 136.204 77.7557ZM135.912 76.9154C136.343 76.9476 136.778 76.9106 137.194 76.8062L132.479 62.698C132.023 62.7601 131.586 62.906 131.197 63.1266L135.912 76.9154Z" fill="#263238"/>
<path d="M138.816 93.8133C137.185 94.7208 135.469 95.4434 133.922 95.3174C131.386 95.1073 128.623 84.0325 128.623 84.0325C128.623 84.0325 121.946 88.9565 116.194 88.3431C116.194 88.3431 120.334 95.9056 120.796 98.4264C121.173 100.418 119.127 101.737 116.628 102.493C117.825 105.636 121.729 112.829 131.895 110.619C140.787 108.652 140.099 99.3759 138.816 93.8133Z" fill="#D9D9D9"/>
<path d="M128.245 111.425C120.504 111.425 117.297 105.451 116.213 102.594C116.187 102.544 116.174 102.49 116.174 102.434C116.174 102.379 116.187 102.325 116.213 102.275C116.24 102.225 116.278 102.181 116.325 102.144C116.372 102.108 116.427 102.081 116.486 102.065C118.089 101.577 120.72 100.468 120.343 98.46C119.9 96.0904 115.817 88.5952 115.779 88.5196C115.738 88.4557 115.716 88.3832 115.716 88.3095C115.716 88.2357 115.738 88.1633 115.779 88.0994C115.829 88.0376 115.896 87.9887 115.974 87.9577C116.052 87.9267 116.138 87.9147 116.222 87.923C121.711 88.5027 128.227 83.7216 128.293 83.7216C128.355 83.6762 128.429 83.6462 128.509 83.6344C128.588 83.6226 128.67 83.6295 128.745 83.6544C128.823 83.6754 128.892 83.7145 128.947 83.7677C129.002 83.8209 129.04 83.8863 129.056 83.9569C130.377 89.259 132.564 94.8048 133.932 94.8804C135.129 94.9728 136.6 94.5191 138.543 93.4435C138.606 93.4064 138.679 93.3839 138.755 93.3779C138.831 93.3719 138.907 93.3827 138.977 93.4093C139.047 93.4359 139.109 93.4775 139.156 93.5304C139.204 93.5833 139.236 93.6458 139.25 93.7124C140.532 99.2918 141.306 108.947 131.98 110.98C130.759 111.258 129.505 111.407 128.245 111.425ZM117.231 102.687C118.561 105.913 122.418 112.19 131.782 110.148C140.033 108.358 139.618 99.8044 138.486 94.4603C137.122 95.2734 135.516 95.7063 133.875 95.7039C131.376 95.5022 129.066 87.5616 128.33 84.7803C126.642 85.9147 121.729 88.9817 116.967 88.822C117.995 90.7295 120.871 96.2416 121.258 98.3339C121.645 100.166 120.183 101.72 117.231 102.687Z" fill="#263238"/>
<path d="M130.622 90.4023C130.075 88.9653 129.594 87.4695 129.245 86.2846C128.953 85.6039 128.679 84.8897 128.415 84.1754C127.302 84.9569 121.38 88.8981 116.156 88.377C116.156 88.377 117.552 90.898 118.816 93.5703C121.041 94.1585 124.172 94.6123 126.633 93.4779C128.183 92.7043 129.54 91.6579 130.622 90.4023Z" fill="#263238"/>
<path d="M123.087 94.5619C121.606 94.5421 120.136 94.3327 118.721 93.94C118.655 93.923 118.593 93.8931 118.541 93.8524C118.489 93.8117 118.447 93.7613 118.42 93.7047C117.175 91.1165 115.779 88.5451 115.77 88.5199C115.728 88.456 115.707 88.3836 115.707 88.3098C115.707 88.236 115.728 88.1636 115.77 88.0997C115.819 88.0379 115.887 87.989 115.965 87.958C116.042 87.927 116.128 87.915 116.213 87.9232C121.211 88.4611 126.982 84.6207 128.095 83.8476C128.154 83.8064 128.223 83.778 128.297 83.7649C128.37 83.7517 128.446 83.7542 128.519 83.772C128.592 83.7922 128.659 83.828 128.713 83.8763C128.767 83.9246 128.807 83.984 128.83 84.0493C129.103 84.8056 129.377 85.5115 129.65 86.1333C130.103 87.6712 130.593 89.0829 131.027 90.2594C131.055 90.3266 131.063 90.3992 131.05 90.47C131.036 90.5407 131.003 90.6072 130.952 90.6627C129.84 91.9512 128.444 93.0235 126.85 93.814C125.68 94.3264 124.39 94.5828 123.087 94.5619ZM119.202 93.1921C121.314 93.73 124.209 94.1081 126.454 93.0745C127.859 92.3748 129.096 91.4354 130.094 90.3098C129.547 88.8644 129.085 87.3938 128.792 86.3938C128.594 85.9401 128.387 85.4275 128.179 84.8644C126.378 86.0493 121.579 88.9317 116.967 88.814C117.448 89.7132 118.354 91.4358 119.202 93.1921Z" fill="#263238"/>
<path d="M102.841 68.6471C102.841 68.6471 106.066 80.9571 108.367 84.2341C110.668 87.5112 118.957 91.4185 122.87 91.7966C126.784 92.1747 129.547 87.8977 131.848 84.4106C134.148 80.9235 134.837 78.0498 133.922 73.5375C132.58 68.1323 130.489 62.8966 127.698 57.9505C126.209 55.4297 119.212 52.8164 112.743 54.2533C106.274 55.6901 101.691 62.0846 102.841 68.6471Z" fill="#D9D9D9"/>
<path d="M123.389 92.2756C123.198 92.2878 123.005 92.2878 122.814 92.2756C118.58 91.8302 110.31 87.8305 107.971 84.4947C105.633 81.1588 102.511 69.2858 102.379 68.7732C101.21 62.1098 105.802 55.4633 112.63 53.9424C119.457 52.4215 126.576 55.228 128.123 57.8413C130.93 62.8284 133.033 68.1063 134.384 73.5543C135.327 77.9742 134.705 80.9991 132.253 84.7131L132.121 84.9064C129.933 88.175 127.227 92.2756 123.389 92.2756ZM103.304 68.5715C103.436 69.0589 106.566 80.8815 108.763 84.0157C110.961 87.1499 118.929 90.99 122.908 91.4101C126.435 91.7882 129.132 87.7045 131.291 84.419L131.423 84.2258C133.771 80.663 134.299 77.8901 133.432 73.6468C132.119 68.275 130.06 63.0699 127.302 58.1522C125.926 55.8246 119.117 53.2786 112.875 54.6734C106.632 56.0683 102.219 62.3535 103.304 68.5715Z" fill="#263238"/>
<path d="M117.345 76.0417H117.26C117.199 76.0326 117.142 76.0129 117.09 75.9838C117.039 75.9548 116.994 75.9168 116.959 75.8723C116.924 75.8278 116.899 75.7775 116.886 75.7243C116.873 75.6712 116.872 75.6163 116.882 75.5627C116.953 75.2193 117.102 74.8926 117.321 74.6033C117.54 74.314 117.824 74.0684 118.155 73.8821C118.69 73.6394 119.276 73.5025 119.875 73.4807C120.474 73.459 121.071 73.5529 121.626 73.756C121.751 73.7894 121.856 73.8658 121.918 73.9682C121.98 74.0706 121.993 74.1908 121.956 74.3022C121.918 74.4137 121.833 74.5072 121.718 74.5624C121.603 74.6176 121.468 74.6298 121.343 74.5963C120.92 74.4278 120.462 74.3407 119.999 74.3407C119.536 74.3407 119.078 74.4278 118.655 74.5963C118.226 74.8428 117.922 75.2287 117.807 75.672C117.795 75.7737 117.741 75.868 117.656 75.9363C117.57 76.0047 117.459 76.0422 117.345 76.0417Z" fill="#263238"/>
<path d="M118.75 80.9239C117.381 80.9182 116.032 80.6306 114.808 80.0836C114.754 80.056 114.707 80.0192 114.669 79.9753C114.631 79.9315 114.603 79.8814 114.587 79.8279C114.571 79.7745 114.566 79.7187 114.574 79.6638C114.582 79.6089 114.603 79.5559 114.633 79.5079C114.664 79.4599 114.706 79.4178 114.755 79.384C114.804 79.3502 114.86 79.3254 114.92 79.311C114.98 79.2965 115.043 79.2928 115.104 79.2999C115.166 79.307 115.226 79.3249 115.279 79.3525C115.525 79.4785 121.39 82.3356 125.652 75.9911C125.685 75.9442 125.728 75.9034 125.778 75.8712C125.829 75.839 125.886 75.816 125.946 75.8035C126.007 75.791 126.069 75.7893 126.13 75.7984C126.192 75.8075 126.25 75.8273 126.303 75.8567C126.355 75.8851 126.401 75.9224 126.437 75.9667C126.473 76.0109 126.499 76.061 126.513 76.1142C126.527 76.1674 126.529 76.2225 126.519 76.2764C126.508 76.3303 126.486 76.3819 126.454 76.4281C124.059 80.0415 121.088 80.9239 118.75 80.9239Z" fill="#263238"/>
<path d="M110.404 75.6805C109.782 75.6894 109.166 75.5716 108.603 75.336C108.382 75.2245 108.219 75.0393 108.151 74.821C108.083 74.6028 108.115 74.3693 108.24 74.1721C108.365 73.9749 108.573 73.83 108.818 73.7693C109.063 73.7086 109.325 73.7371 109.546 73.8486C109.65 73.899 111.555 74.6889 114.167 72.1679C114.338 72.0041 114.575 71.9076 114.826 71.8998C115.078 71.8919 115.322 71.9732 115.506 72.1259C115.69 72.2786 115.798 72.49 115.807 72.7138C115.815 72.9376 115.724 73.1554 115.553 73.3192C113.507 75.2351 111.677 75.6805 110.404 75.6805Z" fill="#263238"/>
<path d="M124.209 71.4455C123.342 71.4457 122.479 71.3238 121.654 71.0842C121.416 71.015 121.22 70.8646 121.106 70.6661C120.993 70.4675 120.973 70.2371 121.05 70.0254C121.089 69.9196 121.15 69.8217 121.232 69.7373C121.313 69.6529 121.412 69.5837 121.523 69.5337C121.635 69.4837 121.756 69.4538 121.88 69.4459C122.005 69.438 122.13 69.4522 122.248 69.4876C122.408 69.538 126.237 70.6304 127.284 68.1514C127.322 68.0422 127.384 67.941 127.468 67.8541C127.551 67.7671 127.654 67.6963 127.769 67.646C127.884 67.5956 128.01 67.5668 128.138 67.5612C128.266 67.5556 128.395 67.5734 128.515 67.6135C128.635 67.6536 128.745 67.7152 128.837 67.7944C128.93 67.8737 129.003 67.9689 129.053 68.0744C129.103 68.1798 129.128 68.2932 129.127 68.4076C129.126 68.522 129.099 68.635 129.047 68.7397C128.676 69.5953 128.004 70.3212 127.133 70.8088C126.261 71.2965 125.235 71.5199 124.209 71.4455Z" fill="#263238"/>
<path d="M107.443 71.1179C107.324 71.1183 107.21 71.0786 107.122 71.007C107.035 70.9353 106.981 70.8369 106.972 70.7314C106.917 70 107.025 69.2662 107.291 68.5724C107.556 67.8786 107.974 67.2386 108.518 66.6894C109.133 66.2186 109.86 65.8787 110.644 65.6952C111.429 65.5118 112.249 65.4897 113.045 65.6305C113.169 65.6453 113.282 65.7027 113.359 65.7906C113.437 65.8785 113.473 65.99 113.459 66.1011C113.452 66.1565 113.433 66.21 113.403 66.2587C113.372 66.3073 113.331 66.3501 113.282 66.3845C113.233 66.4189 113.177 66.4442 113.117 66.4591C113.056 66.4739 112.993 66.4779 112.931 66.4709C112.272 66.3469 111.59 66.3581 110.937 66.5037C110.283 66.6493 109.676 66.9254 109.159 67.3112C108.266 68.2438 107.813 69.4486 107.896 70.6725C107.901 70.7278 107.894 70.7833 107.875 70.8361C107.856 70.8888 107.825 70.9377 107.785 70.9799C107.745 71.022 107.695 71.0567 107.64 71.0818C107.585 71.107 107.524 71.1221 107.462 71.1263L107.443 71.1179Z" fill="#263238"/>
<path d="M119.419 64.5552C119.3 64.5577 119.185 64.5185 119.098 64.446C119.054 64.4069 119.019 64.3604 118.995 64.3092C118.971 64.258 118.959 64.2031 118.959 64.1476C118.959 64.0922 118.971 64.0373 118.995 63.9861C119.019 63.9349 119.054 63.8884 119.098 63.8493C119.098 63.8493 122.173 60.9586 126.595 63.3703C126.648 63.398 126.695 63.4349 126.732 63.4788C126.769 63.5227 126.795 63.5727 126.81 63.626C126.825 63.6792 126.828 63.7346 126.819 63.7888C126.809 63.843 126.788 63.895 126.755 63.9418C126.723 63.9894 126.681 64.031 126.631 64.064C126.581 64.097 126.524 64.1208 126.464 64.1341C126.403 64.1474 126.34 64.1499 126.279 64.1414C126.217 64.1329 126.158 64.1136 126.105 64.0846C122.333 62.0258 119.815 64.3955 119.787 64.4208C119.742 64.4677 119.685 64.5043 119.621 64.5277C119.557 64.5511 119.488 64.5605 119.419 64.5552Z" fill="#263238"/>
<path d="M94.7884 74.3946C94.7884 74.3946 94.0906 80.747 94.7884 82.394C95.4862 84.0409 101.691 90.1833 102.841 91.637C103.992 93.0906 104.218 93.2755 101.899 97.1743C99.5788 101.073 80.4928 126.307 79.8045 132.667C79.1161 139.028 79.5687 144.767 87.1691 143.532C94.7696 142.297 99.1356 125.281 102.361 115.635C105.586 105.989 109.037 93.4855 109.037 90.8219C109.037 88.1582 99.3619 81.5033 98.3246 80.7386C97.2873 79.974 96.8347 76.4785 96.8347 74.6299C96.8347 72.7813 95.7031 72.7477 94.7884 74.3946Z" fill="#D9D9D9"/>
<path d="M85.2832 144.103C83.8434 144.168 82.4312 143.734 81.3415 142.893C78.8238 140.835 78.9275 136.541 79.3518 132.609C79.8799 127.777 90.6676 112.543 97.0516 103.434C99.211 100.367 100.927 97.9474 101.502 96.9643C103.643 93.3427 103.511 93.183 102.502 91.9226C102.097 91.4185 101.163 90.4354 100.097 89.301C97.7494 86.7802 94.8356 83.7216 94.3452 82.5788C93.638 80.8983 94.2415 75.0164 94.3452 74.3946C94.3327 74.3448 94.3327 74.2931 94.3452 74.2433C94.9299 73.2014 95.656 72.6888 96.3349 72.8317C96.6933 72.9073 97.2779 73.2434 97.2779 74.6383C97.2779 76.8566 97.8626 79.8647 98.6075 80.4277L99.1921 80.8563C106.217 85.8979 109.48 89.0825 109.48 90.8471C109.48 93.6536 105.944 106.333 102.785 115.786C102.379 117.005 101.946 118.349 101.502 119.761C98.4 129.508 94.1472 142.851 87.2257 143.969C86.584 144.066 85.9339 144.111 85.2832 144.103ZM95.2411 74.5122C95.0525 76.3104 94.7036 80.9907 95.2411 82.2427C95.6843 83.2762 98.7867 86.5701 100.833 88.7464C101.965 89.948 102.86 90.8975 103.247 91.3765C104.577 93.057 104.614 93.5276 102.361 97.3592C101.757 98.3675 100.041 100.804 97.8625 103.888C91.488 112.921 80.8135 128.054 80.3137 132.684C79.9271 136.197 79.7762 140.457 81.9922 142.28C83.1332 143.204 84.8211 143.482 87.122 143.12C93.4683 142.095 97.6268 129.037 100.663 119.509C101.106 118.089 101.54 116.744 101.946 115.517C105.369 105.283 108.603 93.2839 108.603 90.8219C108.603 89.822 106.877 87.3936 98.6735 81.4865L98.0606 81.0495C96.8064 80.1 96.4009 76.302 96.4009 74.6131C96.4009 73.8652 96.2029 73.6383 96.1558 73.6215C96.1086 73.6047 95.7031 73.7224 95.2411 74.5122Z" fill="#263238"/>
<path d="M102.379 115.618C102.7 114.669 103.021 113.677 103.322 112.677L93.506 109.249C87.4049 118.013 80.2194 128.794 79.8045 132.651C79.1161 139.003 79.5687 144.75 87.1691 143.515C94.7696 142.28 99.1544 125.265 102.379 115.618Z" fill="#1B8C3B"/>
<path d="M85.2832 144.103C83.8434 144.168 82.4312 143.734 81.3415 142.893C78.8238 140.835 78.9275 136.541 79.3518 132.609C79.7762 128.676 87.4237 117.206 93.1288 109.022C93.1856 108.939 93.2736 108.877 93.3772 108.846C93.4807 108.815 93.5932 108.818 93.6946 108.854L103.52 112.291C103.629 112.329 103.717 112.402 103.768 112.495C103.819 112.589 103.828 112.696 103.794 112.795C103.473 113.795 103.153 114.786 102.851 115.744C102.445 116.963 102.012 118.307 101.568 119.719C98.4661 129.466 94.2132 142.809 87.2917 143.927C86.6298 144.041 85.9574 144.1 85.2832 144.103ZM93.7229 109.762C88.065 117.853 80.7097 128.861 80.2948 132.684C79.9082 136.197 79.7573 140.457 81.9733 142.28C83.1143 143.204 84.8023 143.482 87.1031 143.12C93.4494 142.095 97.6079 129.037 100.644 119.509C101.088 118.089 101.521 116.744 101.927 115.517C102.21 114.677 102.493 113.82 102.775 112.946L93.7229 109.762Z" fill="#263238"/>
<path d="M89.1211 115.686L89.008 115.854L88.7251 116.274C88.5176 116.585 88.3102 116.896 88.1121 117.207C92.4017 118.138 96.6117 119.34 100.71 120.803L101.229 119.181C97.2858 117.775 93.2407 116.607 89.1211 115.686Z" fill="#263238"/>
<path d="M92.4121 139.852C92.8176 139.331 93.2137 138.76 93.6003 138.171C88.8334 138.323 84.0777 137.664 79.5876 136.23C79.5876 136.869 79.6159 137.482 79.6725 138.07C83.7787 139.29 88.0841 139.892 92.4121 139.852Z" fill="#263238"/>
<path d="M83.1709 125.105C83.086 125.248 83.0012 125.391 82.9257 125.534C82.8503 125.676 82.7466 125.844 82.6617 125.996L82.2562 126.727C87.4987 127.186 92.616 128.433 97.3911 130.416C97.5985 129.886 97.806 129.349 98.004 128.811C93.3169 126.869 88.3076 125.618 83.1709 125.105Z" fill="#263238"/>
<path d="M137.571 59.9335C137.571 59.9335 143.427 63.6139 144.38 65.1516C145.332 66.6893 146.511 74.8987 146.982 76.6129C147.454 78.327 147.482 78.6127 152.291 79.5959C157.101 80.579 191.038 84.1165 196.904 87.7885C202.769 91.4605 207.352 95.5274 201.355 99.8548C195.357 104.182 178.016 96.0484 167.709 91.9394C157.402 87.8305 144.502 82.0158 142.249 80.2765C139.995 78.5371 140.636 67.6724 140.646 66.4624C140.655 65.2524 137.986 62.6728 136.412 61.4712C134.837 60.2696 135.572 59.4882 137.571 59.9335Z" fill="#D9D9D9"/>
<path d="M196.564 101.493C189.794 101.493 179.647 97.292 171.745 94.0485C170.246 93.4351 168.822 92.8469 167.521 92.326C157.412 88.3011 144.314 82.4276 141.928 80.5622C140.429 79.411 139.853 75.134 140.127 67.1179C140.127 66.7985 140.127 66.5717 140.127 66.4456C140.127 65.6054 137.939 63.219 136.053 61.7737C134.865 60.8662 134.978 60.2276 135.157 59.9335C135.478 59.379 136.383 59.2277 137.656 59.5134C137.712 59.5238 137.764 59.5469 137.807 59.5806C138.42 59.9587 143.786 63.3534 144.757 64.9332C145.436 66.0255 146.171 69.9748 146.756 73.2182C147.03 74.6803 147.265 75.9491 147.407 76.4953C147.841 78.0666 147.897 78.2598 152.376 79.1757C153.583 79.4194 156.761 79.848 160.788 80.3857C172.716 81.9738 192.689 84.6375 197.149 87.4356C200.77 89.7043 204.495 92.4772 204.608 95.477C204.674 97.1155 203.665 98.6868 201.619 100.166C200.155 101.113 198.37 101.582 196.564 101.493ZM136.553 60.2276C136.365 60.2077 136.175 60.2463 136.016 60.3369C136.016 60.3789 136.016 60.6646 136.694 61.1771C138.137 62.2779 141.108 65.0256 141.098 66.4876C141.098 66.6221 141.098 66.8574 141.098 67.1851C140.778 76.5877 141.721 79.3354 142.569 79.9824C144.663 81.5873 156.987 87.2255 167.926 91.5865C169.237 92.1075 170.661 92.6957 172.16 93.3091C182.259 97.5104 196.074 103.174 201.091 99.5523C202.911 98.2331 203.778 96.9223 203.722 95.5526C203.618 92.8638 199.893 90.1917 196.659 88.1582C192.387 85.4778 172.556 82.8393 160.703 81.2512C156.657 80.7134 153.47 80.2933 152.216 80.0328C147.501 79.0665 147.096 78.7304 146.558 76.7978C146.388 76.1592 146.162 74.9408 145.879 73.4367C145.36 70.6302 144.578 66.3952 143.993 65.4205C143.267 64.2441 139.061 61.4376 137.392 60.3789C137.121 60.2967 136.839 60.2458 136.553 60.2276Z" fill="#263238"/>
<path d="M167.709 91.9395L164.578 90.6791L168.058 81.8058C179.496 83.3939 193.349 85.5618 196.904 87.7885C202.769 91.4689 207.352 95.5274 201.355 99.8548C195.357 104.182 178.016 96.0484 167.709 91.9395Z" fill="#1B8C3B"/>
<path d="M196.564 101.493C189.794 101.493 179.647 97.292 171.745 94.0485C170.246 93.4351 168.822 92.8469 167.521 92.326L164.38 91.0572C164.273 91.0146 164.187 90.9369 164.142 90.84C164.096 90.7432 164.094 90.6345 164.135 90.5362L167.605 81.6797C167.642 81.5867 167.713 81.5079 167.808 81.4572C167.903 81.4065 168.015 81.3871 168.124 81.4024C178.808 82.8897 193.443 85.1248 197.177 87.4692C200.911 89.8135 204.523 92.5108 204.636 95.5106C204.702 97.1491 203.693 98.7204 201.647 100.199C200.171 101.14 198.375 101.597 196.564 101.493ZM167.898 91.5613C169.208 92.0823 170.642 92.6705 172.141 93.2839C182.231 97.4852 196.046 103.149 201.062 99.5271C202.882 98.2079 203.75 96.897 203.693 95.5274C203.59 92.8385 199.865 90.1665 196.63 88.133C193.104 85.9231 178.921 83.7384 168.341 82.2511L165.135 90.427L167.869 91.5361L167.898 91.5613Z" fill="#263238"/>
<path d="M183.476 98.1752C184.07 98.3853 184.654 98.5786 185.239 98.7718L190.982 85.7467L189.756 85.4526L189.492 85.3937L189.143 85.3181L183.476 98.1752Z" fill="#263238"/>
<path d="M179.921 83.5788L179.421 83.5031L178.12 83.2931L173.16 94.2174L174.489 94.7636L174.876 94.9149L180.015 83.6376L179.921 83.5788Z" fill="#263238"/>
<path d="M199.855 89.7883C198.582 92.3093 196.244 96.9984 194.065 100.923C194.734 101.011 195.408 101.065 196.083 101.082C198.045 97.5026 200.082 93.5194 201.326 90.9984C200.855 90.5698 200.374 90.1749 199.855 89.7883Z" fill="#263238"/>
<path d="M263.092 237.18C264.401 237.832 265.569 238.685 266.543 239.701C266.543 239.701 265.694 241.743 260.612 245.255C263.987 248.238 267.005 251.33 268.287 251.188C270.805 250.91 277.717 240.827 279.924 238.029C282.13 235.231 285.949 233.449 286.572 228.685C287.194 223.921 284.063 223.644 282.8 225.047C281.536 226.45 273.851 231.038 269.768 232.164C265.685 233.29 262.46 234.374 262.46 234.374C262.46 234.374 261.206 236.34 263.092 237.18Z" fill="#57E27E"/>
<path d="M268.221 251.616C267.033 251.616 265.26 250.053 262.309 247.373C261.668 246.776 260.989 246.163 260.3 245.549C260.253 245.508 260.216 245.458 260.191 245.403C260.167 245.348 260.156 245.289 260.159 245.23C260.163 245.17 260.181 245.111 260.212 245.058C260.243 245.004 260.286 244.957 260.338 244.919C264.289 242.197 265.638 240.365 265.996 239.768C265.104 238.881 264.052 238.131 262.884 237.55C262.601 237.436 262.348 237.27 262.141 237.063C261.935 236.856 261.78 236.613 261.687 236.348C261.506 235.606 261.64 234.831 262.064 234.172C262.113 234.086 262.197 234.02 262.299 233.987C262.299 233.987 265.581 232.87 269.636 231.761C273.691 230.651 281.244 226.114 282.442 224.786C282.766 224.402 283.222 224.122 283.741 223.988C284.26 223.855 284.813 223.875 285.318 224.047C285.987 224.291 287.515 225.257 287.053 228.736C286.591 232.214 284.535 234.13 282.545 235.979C281.737 236.687 280.993 237.451 280.32 238.264C279.895 238.802 279.311 239.592 278.613 240.533C274.398 246.238 270.437 251.372 268.363 251.608L268.221 251.616ZM261.338 245.289C261.903 245.793 262.45 246.297 262.988 246.785C265.081 248.692 267.458 250.851 268.25 250.776C270.07 250.574 275.313 243.482 277.84 240.071C278.538 239.121 279.132 238.323 279.556 237.785C280.26 236.936 281.035 236.135 281.876 235.39C283.762 233.643 285.704 231.836 286.129 228.668C286.393 226.643 285.959 225.215 284.959 224.845C284.644 224.747 284.302 224.742 283.983 224.83C283.664 224.917 283.385 225.093 283.186 225.332C281.904 226.761 274.2 231.416 269.919 232.584C266.42 233.55 263.535 234.5 262.818 234.735C262.573 235.165 262.497 235.656 262.601 236.13C262.658 236.285 262.752 236.427 262.875 236.547C262.999 236.667 263.15 236.763 263.318 236.827C264.691 237.501 265.915 238.393 266.93 239.457C266.981 239.514 267.015 239.582 267.029 239.654C267.042 239.727 267.034 239.801 267.005 239.869C266.967 239.928 266.1 241.928 261.338 245.289Z" fill="#34A853"/>
<path d="M285.77 224.82C284.959 230.576 282.941 232.441 275.397 239.667C269.523 245.297 267.26 248.784 266.392 250.507C266.931 250.896 267.587 251.133 268.278 251.188C270.796 250.91 277.708 240.827 279.914 238.029C282.121 235.231 285.94 233.45 286.562 228.685C286.864 226.643 286.44 225.433 285.77 224.82Z" fill="white"/>
<path d="M268.203 251.616C267.444 251.537 266.723 251.276 266.119 250.86C266.026 250.802 265.959 250.718 265.928 250.622C265.897 250.526 265.905 250.423 265.949 250.331C266.948 248.356 269.334 244.852 275.039 239.407L275.473 238.987C282.602 232.147 284.526 230.307 285.299 224.795C285.31 224.716 285.347 224.642 285.403 224.581C285.46 224.52 285.535 224.475 285.619 224.45C285.702 224.421 285.792 224.416 285.878 224.434C285.963 224.452 286.041 224.493 286.1 224.551C286.723 225.114 287.383 226.307 287.043 228.752C286.581 232.231 284.526 234.147 282.536 235.996C281.727 236.704 280.983 237.468 280.31 238.281C279.886 238.819 279.301 239.609 278.604 240.55C274.389 246.255 270.428 251.389 268.353 251.625L268.203 251.616ZM266.986 250.347C267.353 250.595 267.791 250.744 268.25 250.776C270.07 250.574 275.313 243.482 277.84 240.071C278.538 239.121 279.132 238.323 279.556 237.785C280.26 236.936 281.036 236.135 281.876 235.391C283.762 233.643 285.704 231.836 286.129 228.668C286.273 227.83 286.238 226.974 286.025 226.148C285.082 231.013 282.734 233.248 276.161 239.592L275.728 240.004C270.202 245.255 267.91 248.642 266.986 250.347Z" fill="#57E27E"/>
<path d="M143.918 174.9C143.819 174.9 143.722 174.872 143.642 174.82C143.562 174.769 143.502 174.696 143.47 174.612C143.439 174.529 143.438 174.438 143.468 174.354C143.497 174.27 143.556 174.196 143.635 174.143C143.635 174.143 144.663 173.471 146.369 172.387C146.42 172.355 146.478 172.332 146.538 172.32C146.599 172.308 146.662 172.306 146.723 172.316C146.784 172.325 146.843 172.345 146.895 172.375C146.948 172.404 146.994 172.443 147.03 172.488C147.065 172.533 147.091 172.584 147.105 172.638C147.119 172.692 147.12 172.748 147.11 172.803C147.099 172.857 147.077 172.91 147.044 172.957C147.01 173.003 146.967 173.044 146.916 173.076L144.191 174.816C144.114 174.871 144.017 174.901 143.918 174.9Z" fill="white"/>
<path d="M140.382 176.403C140.382 176.403 171.5 155.119 195.697 147.28C219.894 139.44 228.079 144.759 226.504 152.321C224.929 159.884 213.934 184.252 205.447 197.696C196.96 211.14 182.495 233.265 182.495 233.265C182.495 233.265 196.329 250.347 197.583 252.314C198.837 254.28 189.728 254.549 185.956 252.591C182.715 251.06 179.567 249.377 176.526 247.549C165.531 241.113 164.899 238.592 166.464 236.348C171.49 229.164 177.554 223.156 179.987 214.501C184.4 198.755 192.576 178.37 193.5 180.605C185.589 187.338 176.161 192.494 165.842 195.73C149.18 200.771 138.316 199.469 130.952 190.688" fill="#263238"/>
<path d="M193.17 254.339C190.52 254.339 187.455 253.86 185.72 252.952C184.843 252.498 184.23 252.204 183.627 251.919C181.098 250.695 178.643 249.354 176.271 247.902C165.323 241.491 164.239 238.735 166.068 236.138C167.351 234.298 168.718 232.517 170.038 230.794C173.999 225.652 177.733 220.787 179.525 214.409C182.278 204.603 187.521 189.873 190.84 183.319C183.502 188.915 175.069 193.259 165.965 196.133C148.84 201.309 137.911 199.713 130.518 190.949C130.445 190.859 130.415 190.747 130.432 190.638C130.45 190.528 130.514 190.429 130.612 190.36C130.712 190.294 130.838 190.265 130.962 190.281C131.086 190.296 131.197 190.355 131.272 190.444C138.382 198.847 148.982 200.385 165.663 195.335C175.377 192.261 184.31 187.5 191.944 181.327C192.481 180.487 192.887 180.033 193.245 180.017C193.396 180.017 193.542 180.06 193.663 180.14C193.784 180.22 193.872 180.333 193.915 180.462C193.945 180.536 193.952 180.616 193.933 180.694C193.915 180.771 193.872 180.842 193.811 180.899C193.811 180.899 193.339 181.327 192.5 182.008C190.048 186.251 184.221 201.049 180.411 214.602C178.582 221.131 174.753 226.055 170.793 231.265C169.472 232.945 168.115 234.752 166.842 236.575C165.569 238.399 165.399 240.541 176.762 247.196C179.111 248.637 181.544 249.967 184.051 251.179C184.654 251.465 185.277 251.767 186.163 252.23C189.303 253.86 195.97 253.818 197.111 252.809C197.215 252.717 197.243 252.658 197.111 252.515C195.876 250.599 182.193 233.685 182.024 233.508C181.972 233.441 181.945 233.362 181.945 233.281C181.945 233.201 181.972 233.121 182.024 233.055C182.174 232.828 196.583 210.771 204.966 197.486C213.547 183.89 224.429 159.674 225.976 152.246C226.532 149.574 225.797 147.397 223.864 145.935C221.318 144.011 214.283 141.683 195.801 147.675C171.943 155.405 140.91 176.53 140.598 176.74C140.55 176.777 140.493 176.806 140.432 176.823C140.371 176.841 140.306 176.847 140.242 176.842C140.178 176.836 140.116 176.819 140.06 176.791C140.003 176.763 139.954 176.726 139.915 176.68C139.875 176.635 139.847 176.583 139.831 176.527C139.815 176.472 139.812 176.414 139.822 176.357C139.832 176.3 139.856 176.246 139.89 176.198C139.925 176.15 139.97 176.108 140.023 176.076C140.334 175.857 171.481 154.657 195.47 146.885C209.511 142.339 219.799 141.776 224.477 145.297C226.683 146.977 227.522 149.414 226.9 152.397C225.344 159.909 214.406 184.243 205.787 197.898C197.866 210.451 184.579 230.819 182.995 233.239C184.692 235.332 196.734 250.246 197.932 252.104C198.076 252.306 198.137 252.547 198.102 252.785C198.068 253.023 197.941 253.243 197.743 253.406C197.083 254.045 195.254 254.339 193.17 254.339Z" fill="#263238"/>
<path d="M150.735 170.581C150.659 170.581 150.584 170.564 150.517 170.531C150.449 170.499 150.392 170.453 150.349 170.396C150.313 170.351 150.288 170.301 150.275 170.247C150.262 170.193 150.261 170.138 150.273 170.084C150.284 170.03 150.308 169.978 150.342 169.932C150.376 169.886 150.42 169.847 150.471 169.817C156.799 165.892 165.691 160.573 172.16 157.598C172.215 157.565 172.277 157.542 172.343 157.531C172.408 157.521 172.476 157.523 172.54 157.537C172.605 157.552 172.666 157.578 172.718 157.615C172.77 157.651 172.813 157.698 172.844 157.75C172.875 157.803 172.893 157.861 172.897 157.92C172.901 157.979 172.891 158.039 172.867 158.094C172.843 158.15 172.807 158.2 172.76 158.242C172.713 158.284 172.656 158.317 172.594 158.338C166.191 161.313 157.327 166.59 151.028 170.506C150.942 170.558 150.839 170.584 150.735 170.581Z" fill="white"/>
<path d="M182.269 188.344C182.2 188.344 182.132 188.33 182.07 188.304C182.008 188.278 181.954 188.24 181.91 188.193C181.831 188.106 181.792 187.995 181.802 187.884C181.813 187.772 181.872 187.669 181.967 187.596L190.048 181.538C190.558 179.924 195.933 163.749 207.833 155.338C207.882 155.303 207.938 155.276 207.998 155.261C208.058 155.245 208.121 155.24 208.184 155.246C208.246 155.252 208.306 155.27 208.361 155.297C208.416 155.324 208.464 155.361 208.502 155.405C208.58 155.492 208.615 155.603 208.601 155.713C208.587 155.823 208.524 155.924 208.427 155.993C196.168 164.64 190.963 181.714 190.916 181.882C190.89 181.966 190.838 182.042 190.765 182.101L182.58 188.243C182.492 188.308 182.382 188.343 182.269 188.344Z" fill="white"/>
<path d="M214.16 182.58C214.105 182.592 214.046 182.592 213.991 182.58C213.933 182.56 213.881 182.531 213.837 182.493C213.792 182.455 213.757 182.41 213.732 182.36C213.708 182.31 213.694 182.256 213.693 182.202C213.692 182.147 213.704 182.093 213.727 182.042L215.452 178.202C215.474 178.15 215.507 178.102 215.55 178.062C215.593 178.022 215.645 177.989 215.702 177.967C215.76 177.945 215.821 177.934 215.884 177.934C215.946 177.934 216.008 177.945 216.065 177.966C216.18 178.009 216.272 178.09 216.321 178.192C216.37 178.294 216.373 178.409 216.329 178.513L214.604 182.353C214.561 182.424 214.497 182.483 214.419 182.523C214.34 182.563 214.251 182.583 214.16 182.58Z" fill="white"/>
<path d="M217.404 175.362C217.345 175.37 217.284 175.37 217.225 175.362C217.11 175.319 217.019 175.238 216.969 175.136C216.92 175.034 216.917 174.919 216.961 174.815L223.204 160.909C223.226 160.858 223.26 160.811 223.304 160.771C223.347 160.731 223.398 160.7 223.455 160.678C223.512 160.656 223.573 160.644 223.635 160.644C223.697 160.643 223.759 160.653 223.816 160.674C223.874 160.694 223.927 160.724 223.971 160.763C224.016 160.801 224.051 160.847 224.076 160.898C224.1 160.949 224.113 161.003 224.114 161.058C224.115 161.114 224.103 161.168 224.08 161.22L217.829 175.101C217.794 175.176 217.735 175.241 217.66 175.288C217.584 175.334 217.496 175.359 217.404 175.362Z" fill="white"/>
<path d="M185.956 252.591C189.728 254.549 198.846 254.271 197.583 252.314C196.319 250.356 182.495 233.265 182.495 233.265C182.495 233.265 186.324 227.383 191.199 219.888C185.126 219.19 181.712 216.896 179.883 214.913C177.375 223.316 171.396 229.282 166.493 236.348C164.927 238.592 165.55 241.113 176.554 247.549C179.586 249.376 182.724 251.059 185.956 252.591Z" fill="#CCCCCC"/>
<path d="M193.17 254.339C190.52 254.339 187.455 253.86 185.72 252.952C184.843 252.498 184.23 252.204 183.627 251.919C181.098 250.695 178.643 249.354 176.271 247.902C165.323 241.491 164.239 238.735 166.068 236.138C167.351 234.307 168.709 232.534 170.029 230.811C173.904 225.769 177.573 221.005 179.402 214.846C179.423 214.772 179.467 214.704 179.528 214.65C179.59 214.597 179.667 214.56 179.751 214.543C179.835 214.53 179.922 214.536 180.003 214.561C180.084 214.586 180.156 214.629 180.213 214.686C181.92 216.51 185.23 218.82 191.255 219.509C191.333 219.521 191.406 219.548 191.47 219.589C191.534 219.629 191.586 219.683 191.623 219.745C191.66 219.805 191.68 219.873 191.68 219.942C191.68 220.011 191.66 220.079 191.623 220.14C187.323 226.778 183.844 232.122 183.08 233.281C184.777 235.374 196.819 250.289 198.017 252.146C198.161 252.348 198.221 252.589 198.187 252.827C198.153 253.065 198.025 253.285 197.828 253.448C197.083 254.045 195.254 254.339 193.17 254.339ZM180.109 215.77C178.167 221.736 174.602 226.374 170.83 231.282C169.52 232.962 168.162 234.76 166.898 236.575C165.635 238.39 165.455 240.541 176.818 247.196C179.168 248.638 181.601 249.967 184.108 251.179C184.711 251.465 185.333 251.767 186.22 252.23C189.36 253.86 196.027 253.818 197.168 252.809C197.272 252.717 197.3 252.658 197.168 252.515C195.933 250.599 182.25 233.685 182.08 233.508C182.029 233.441 182.002 233.362 182.002 233.281C182.002 233.201 182.029 233.121 182.08 233.055C182.08 233.055 185.729 227.475 190.435 220.215C185.145 219.484 181.995 217.51 180.109 215.77Z" fill="#263238"/>
<path d="M182.495 233.265C182.495 233.265 181.241 232.424 179.666 234.668C178.683 236.092 177.844 237.591 177.158 239.147L169.859 231.769C168.709 233.265 167.568 234.777 166.464 236.348C164.899 238.592 165.521 241.113 176.526 247.549C179.567 249.377 182.715 251.06 185.956 252.591C189.728 254.549 198.846 254.271 197.583 252.314C196.319 250.356 182.495 233.265 182.495 233.265Z" fill="#57E27E"/>
<path d="M193.17 254.339C190.52 254.339 187.455 253.86 185.72 252.952C184.843 252.498 184.23 252.204 183.627 251.919C181.098 250.695 178.643 249.354 176.271 247.902C165.323 241.491 164.239 238.735 166.068 236.138C167.209 234.508 168.426 232.912 169.472 231.542C169.512 231.489 169.566 231.445 169.628 231.413C169.69 231.381 169.759 231.362 169.831 231.357C169.903 231.352 169.976 231.363 170.043 231.387C170.111 231.412 170.17 231.451 170.217 231.5L177.007 238.365C177.65 237.011 178.407 235.702 179.27 234.449C179.497 234.04 179.816 233.676 180.207 233.379C180.598 233.083 181.052 232.861 181.543 232.727C181.754 232.687 181.972 232.685 182.184 232.721C182.396 232.757 182.598 232.83 182.778 232.937C182.819 232.961 182.855 232.992 182.882 233.029C183.447 233.727 196.743 250.154 197.969 252.112C198.114 252.314 198.174 252.556 198.14 252.794C198.105 253.032 197.978 253.251 197.781 253.414C197.083 254.045 195.254 254.339 193.17 254.339ZM169.906 232.45C168.963 233.71 167.879 235.13 166.87 236.575C165.653 238.298 165.427 240.541 176.79 247.196C179.139 248.637 181.572 249.967 184.079 251.179C184.683 251.465 185.305 251.767 186.192 252.23C189.332 253.86 195.999 253.818 197.14 252.809C197.243 252.717 197.272 252.658 197.14 252.515C195.951 250.667 183.127 234.802 182.137 233.584C181.977 233.539 181.806 233.539 181.646 233.584C181.288 233.651 180.703 233.937 180.034 234.92C179.066 236.324 178.236 237.8 177.554 239.331C177.526 239.398 177.479 239.457 177.418 239.503C177.357 239.548 177.283 239.579 177.205 239.592C177.124 239.604 177.042 239.598 176.964 239.575C176.887 239.551 176.817 239.511 176.762 239.457L169.906 232.45Z" fill="#263238"/>
<path d="M176.526 247.549C179.567 249.377 182.715 251.06 185.956 252.591C189.351 254.355 197.064 254.271 197.668 252.851C183.353 252.171 171.49 242.02 166.238 236.71C165.022 238.869 166.125 241.457 176.526 247.549Z" fill="white"/>
<path d="M193.085 254.355C190.54 254.415 188.015 253.934 185.72 252.952C184.843 252.498 184.23 252.204 183.627 251.919C181.098 250.695 178.643 249.354 176.271 247.902C165.682 241.701 164.418 238.953 165.814 236.525C165.848 236.464 165.899 236.411 165.961 236.371C166.024 236.331 166.097 236.305 166.173 236.296C166.249 236.287 166.327 236.295 166.399 236.318C166.471 236.342 166.536 236.381 166.587 236.432C172.245 242.13 183.759 251.776 197.705 252.398C197.779 252.399 197.851 252.416 197.915 252.448C197.98 252.481 198.034 252.527 198.073 252.582C198.115 252.637 198.141 252.7 198.151 252.766C198.161 252.831 198.154 252.898 198.13 252.961C198 253.186 197.818 253.385 197.595 253.543C197.372 253.701 197.114 253.815 196.838 253.876C195.624 254.217 194.357 254.378 193.085 254.355ZM166.389 237.5C165.899 239.071 167.021 241.474 176.762 247.196C179.111 248.637 181.544 249.967 184.051 251.179C184.654 251.465 185.277 251.767 186.163 252.23C188.672 253.532 193.858 253.843 196.272 253.179C183.033 252.019 172.094 243.146 166.389 237.5Z" fill="#263238"/>
</svg>
