<svg width="359" height="316" viewBox="0 0 359 316" fill="none" xmlns="http://www.w3.org/2000/svg">
<path d="M21.3895 176.758L31.7802 276.359" stroke="#263238" stroke-width="2" stroke-miterlimit="10"/>
<path d="M30.1082 257.294L25.3905 252.322" stroke="#263238" stroke-width="2" stroke-miterlimit="10"/>
<path d="M26.8237 253.808C26.8104 253.045 26.6336 252.294 26.3052 251.605C25.9769 250.916 25.5046 250.305 24.9202 249.814C23.711 248.732 17.3436 246.082 16.7091 248.321C16.112 250.74 22.6286 255.525 26.8237 253.808Z" fill="#92E3A9" stroke="#263238" stroke-miterlimit="10"/>
<path d="M26.8237 253.808L20.7624 250.038" stroke="#263238" stroke-width="0.5" stroke-miterlimit="10"/>
<path d="M31.2876 268.625L26.5774 263.646" stroke="#263238" stroke-width="2" stroke-miterlimit="10"/>
<path d="M28.0031 265.139C27.996 264.377 27.825 263.625 27.5018 262.935C27.1785 262.245 26.7105 261.632 26.1295 261.138C24.9202 260.063 18.5529 257.406 17.9557 259.645C17.2988 262.064 23.808 266.864 28.0031 265.139Z" fill="#92E3A9" stroke="#263238" stroke-miterlimit="10"/>
<path d="M28.0031 265.139L21.9493 261.362" stroke="#263238" stroke-width="0.5" stroke-miterlimit="10"/>
<path d="M27.2193 229.66L22.5092 224.681" stroke="#263238" stroke-width="2" stroke-miterlimit="10"/>
<path d="M23.9424 226.174C23.9324 225.411 23.7594 224.66 23.4349 223.97C23.1105 223.28 22.6421 222.667 22.0613 222.173C20.852 221.098 14.4921 218.44 13.8502 220.68C13.2306 223.098 19.7472 227.883 23.9424 226.174Z" fill="#92E3A9" stroke="#263238" stroke-miterlimit="10"/>
<path d="M23.9424 226.174L17.8811 222.397" stroke="#263238" stroke-width="0.5" stroke-miterlimit="10"/>
<path d="M28.4062 240.984L23.6886 236.005" stroke="#263238" stroke-width="2" stroke-miterlimit="10"/>
<path d="M25.1218 237.498C25.1126 236.737 24.9407 235.987 24.6175 235.298C24.2943 234.609 23.8274 233.997 23.2482 233.504C22.0389 232.422 15.6715 229.772 15.037 232.011C14.41 234.422 20.9267 239.244 25.1218 237.498Z" fill="#92E3A9" stroke="#263238" stroke-miterlimit="10"/>
<path d="M25.1218 237.498L19.0605 233.721" stroke="#263238" stroke-width="0.5" stroke-miterlimit="10"/>
<path d="M25.3009 211.26L20.5907 206.281" stroke="#263238" stroke-width="2" stroke-miterlimit="10"/>
<path d="M22.0165 207.774C22.0094 207.011 21.8384 206.259 21.5151 205.569C21.1918 204.879 20.7238 204.266 20.1429 203.772C18.9336 202.698 12.5663 200.04 11.9318 202.28C11.3122 204.698 17.8214 209.483 22.0165 207.774Z" fill="#92E3A9" stroke="#263238" stroke-miterlimit="10"/>
<path d="M22.0165 207.774L15.9626 203.996" stroke="#263238" stroke-width="0.5" stroke-miterlimit="10"/>
<path d="M23.375 192.777L18.6574 187.798" stroke="#263238" stroke-width="2" stroke-miterlimit="10"/>
<path d="M20.0906 189.291C20.0796 188.529 19.9054 187.778 19.5796 187.089C19.2538 186.4 18.784 185.789 18.202 185.297C16.9928 184.215 10.6254 181.565 9.99094 183.805C9.37884 186.245 15.8955 191.008 20.0906 189.291Z" fill="#92E3A9" stroke="#263238" stroke-miterlimit="10"/>
<path d="M20.0906 189.291L14.0293 185.514" stroke="#263238" stroke-width="0.5" stroke-miterlimit="10"/>
<path d="M29.3094 250.598L32.8925 244.753" stroke="#263238" stroke-width="2" stroke-miterlimit="10"/>
<path d="M31.8026 246.508C31.6569 245.764 31.6714 244.998 31.8452 244.26C32.0189 243.523 32.348 242.831 32.8104 242.23C33.7733 240.924 39.4464 237.005 40.4989 239.058C41.6485 241.29 36.259 247.321 31.8026 246.508Z" fill="#92E3A9" stroke="#263238" stroke-miterlimit="10"/>
<path d="M31.8026 246.508L37.2593 241.29" stroke="#263238" stroke-width="0.5" stroke-miterlimit="10"/>
<path d="M26.2041 220.792L29.7872 214.947" stroke="#263238" stroke-width="2" stroke-miterlimit="10"/>
<path d="M28.6899 216.701C28.5389 215.949 28.5514 215.173 28.7265 214.426C28.9017 213.679 29.2354 212.978 29.7051 212.372C30.6605 211.065 36.3411 207.146 37.3936 209.199C38.5357 211.483 33.1313 217.507 28.6899 216.701Z" fill="#92E3A9" stroke="#263238" stroke-miterlimit="10"/>
<path d="M28.6899 216.701L34.1465 211.483" stroke="#263238" stroke-width="0.5" stroke-miterlimit="10"/>
<path d="M24.8381 207.691L28.4211 201.847" stroke="#263238" stroke-width="2" stroke-miterlimit="10"/>
<path d="M27.3238 203.601C27.1767 202.854 27.1905 202.084 27.3643 201.342C27.538 200.601 27.8678 199.905 28.3316 199.301C29.2945 197.995 34.9676 194.076 36.0276 196.129C37.1697 198.383 31.7877 204.414 27.3238 203.601Z" fill="#92E3A9" stroke="#263238" stroke-miterlimit="10"/>
<path d="M27.3239 203.601L32.7805 198.383" stroke="#263238" stroke-width="0.5" stroke-miterlimit="10"/>
<path d="M22.8301 188.485L26.4132 182.64" stroke="#263238" stroke-width="2" stroke-miterlimit="10"/>
<path d="M25.3233 184.402C25.1742 183.655 25.1871 182.884 25.3609 182.143C25.5347 181.401 25.8655 180.705 26.331 180.102C27.294 178.796 32.9671 174.877 34.0196 176.93C35.1692 179.176 29.7797 185.208 25.3233 184.402Z" fill="#92E3A9" stroke="#263238" stroke-miterlimit="10"/>
<path d="M25.3233 184.402L30.78 179.184" stroke="#263238" stroke-width="0.5" stroke-miterlimit="10"/>
<path d="M21.2999 176.206C21.1509 175.46 21.1638 174.691 21.3377 173.95C21.5115 173.21 21.8423 172.515 22.3076 171.913C23.2705 170.607 28.9437 166.688 29.9962 168.741C31.1457 170.988 25.7563 177.019 21.2999 176.206Z" fill="#92E3A9" stroke="#263238" stroke-miterlimit="10"/>
<path d="M21.2999 176.206L26.7565 170.995" stroke="#263238" stroke-width="0.5" stroke-miterlimit="10"/>
<path d="M21.6134 176.437C20.8567 176.504 20.0943 176.409 19.3773 176.158C18.6603 175.907 18.0051 175.506 17.4556 174.981C16.2538 173.884 12.9768 167.83 15.1042 167.002C17.4556 166.091 22.8899 172.063 21.6134 176.437Z" fill="#92E3A9" stroke="#263238" stroke-miterlimit="10"/>
<path d="M21.6134 176.437L17.0002 170.458" stroke="#263238" stroke-width="0.5" stroke-miterlimit="10"/>
<path d="M48.7996 190.478L38.4686 290.079" stroke="#263238" stroke-width="2" stroke-miterlimit="10"/>
<path d="M40.7527 271.081L37.1622 265.244" stroke="#263238" stroke-width="2" stroke-miterlimit="10"/>
<path d="M38.2595 266.998C38.4061 266.25 38.3914 265.48 38.2163 264.739C38.0412 263.997 37.7098 263.301 37.2444 262.698C36.2814 261.392 30.6083 257.473 29.5558 259.533C28.4062 261.78 33.7957 267.812 38.2595 266.998Z" fill="#92E3A9" stroke="#263238" stroke-miterlimit="10"/>
<path d="M38.2595 266.998L33.1089 262.056" stroke="#263238" stroke-width="0.5" stroke-miterlimit="10"/>
<path d="M43.6191 243.44L40.0287 237.602" stroke="#263238" stroke-width="2" stroke-miterlimit="10"/>
<path d="M41.126 239.356C41.2725 238.609 41.2578 237.838 41.0827 237.097C40.9076 236.355 40.5763 235.66 40.1108 235.057C39.1553 233.75 33.4747 229.832 32.4222 231.892C31.2801 234.139 36.6696 240.17 41.126 239.356Z" fill="#92E3A9" stroke="#263238" stroke-miterlimit="10"/>
<path d="M41.126 239.356L35.9754 234.415" stroke="#263238" stroke-width="0.5" stroke-miterlimit="10"/>
<path d="M42.4398 254.771L38.8567 248.926" stroke="#263238" stroke-width="2" stroke-miterlimit="10"/>
<path d="M39.954 250.68C40.1009 249.934 40.0863 249.165 39.9112 248.424C39.7361 247.684 39.4046 246.99 38.9388 246.388C37.9759 245.082 32.3027 241.163 31.2502 243.216C30.1007 245.47 35.4901 251.494 39.954 250.68Z" fill="#92E3A9" stroke="#263238" stroke-miterlimit="10"/>
<path d="M39.954 250.68L34.796 245.739" stroke="#263238" stroke-width="0.5" stroke-miterlimit="10"/>
<path d="M45.5301 225.039L41.9396 219.202" stroke="#263238" stroke-width="2" stroke-miterlimit="10"/>
<path d="M43.0369 220.956C43.1835 220.208 43.1687 219.438 42.9937 218.697C42.8186 217.955 42.4872 217.26 42.0217 216.656C41.0588 215.35 35.3857 211.431 34.3331 213.491C33.1836 215.738 38.5731 221.77 43.0369 220.956Z" fill="#92E3A9" stroke="#263238" stroke-miterlimit="10"/>
<path d="M43.0369 220.956L37.8863 216.014" stroke="#263238" stroke-width="0.5" stroke-miterlimit="10"/>
<path d="M47.4485 206.557L43.858 200.719" stroke="#263238" stroke-width="2" stroke-miterlimit="10"/>
<path d="M44.9553 202.474C45.0997 201.728 45.0838 200.961 44.9088 200.222C44.7337 199.483 44.4036 198.79 43.9401 198.189C42.9772 196.883 37.3041 192.964 36.2515 195.024C35.102 197.256 40.4915 203.287 44.9553 202.474Z" fill="#92E3A9" stroke="#263238" stroke-miterlimit="10"/>
<path d="M44.9553 202.474L39.8047 197.532" stroke="#263238" stroke-width="0.5" stroke-miterlimit="10"/>
<path d="M41.3574 264.363L46.0676 259.384" stroke="#263238" stroke-width="2" stroke-miterlimit="10"/>
<path d="M44.6343 260.892C44.6439 260.13 44.8159 259.379 45.139 258.689C45.4622 257.999 45.9289 257.386 46.508 256.891C47.7172 255.808 54.0771 253.159 54.7191 255.398C55.3461 257.794 48.8071 262.586 44.6343 260.892Z" fill="#92E3A9" stroke="#263238" stroke-miterlimit="10"/>
<path d="M44.6343 260.877L51.0465 256.891" stroke="#263238" stroke-width="0.5" stroke-miterlimit="10"/>
<path d="M44.4477 234.549L49.1579 229.57" stroke="#263238" stroke-width="2" stroke-miterlimit="10"/>
<path d="M47.7247 231.033C47.7338 230.273 47.9058 229.522 48.229 228.834C48.5521 228.145 49.0191 227.533 49.5983 227.04C50.8076 225.957 57.1749 223.307 57.8094 225.547C58.4365 227.98 51.9273 232.773 47.7247 231.033Z" fill="#92E3A9" stroke="#263238" stroke-miterlimit="10"/>
<path d="M47.7247 231.063L54.1368 227.085" stroke="#263238" stroke-width="0.5" stroke-miterlimit="10"/>
<path d="M45.8063 221.456L50.5165 216.47" stroke="#263238" stroke-width="2" stroke-miterlimit="10"/>
<path d="M49.0833 217.963C49.0924 217.202 49.2644 216.452 49.5875 215.763C49.9107 215.074 50.3776 214.463 50.9569 213.969C52.1662 212.887 58.5335 210.237 59.168 212.476C59.795 214.887 53.2859 219.68 49.0833 217.963Z" fill="#92E3A9" stroke="#263238" stroke-miterlimit="10"/>
<path d="M49.0833 217.963L55.5029 213.984" stroke="#263238" stroke-width="0.5" stroke-miterlimit="10"/>
<path d="M47.7993 202.25L52.5095 197.271" stroke="#263238" stroke-width="2" stroke-miterlimit="10"/>
<path d="M51.0465 198.764C51.056 198.002 51.2281 197.251 51.5512 196.561C51.8743 195.871 52.341 195.258 52.9201 194.763C54.1294 193.68 60.4967 191.03 61.1312 193.27C61.7881 195.681 55.2789 200.473 51.0465 198.764Z" fill="#92E3A9" stroke="#263238" stroke-miterlimit="10"/>
<path d="M51.0763 198.764L57.4959 194.778" stroke="#263238" stroke-width="0.5" stroke-miterlimit="10"/>
<path d="M48.8071 189.918C48.8166 189.156 48.9887 188.405 49.3118 187.715C49.6349 187.025 50.1016 186.412 50.6807 185.917C51.89 184.842 58.2498 182.185 58.8545 184.424C59.5412 186.835 53.0246 191.627 48.8071 189.918Z" fill="#92E3A9" stroke="#263238" stroke-miterlimit="10"/>
<path d="M48.8295 189.918L55.2416 185.939" stroke="#263238" stroke-width="0.5" stroke-miterlimit="10"/>
<path d="M49.0907 190.202C48.3354 190.113 47.6078 189.864 46.9564 189.471C46.305 189.079 45.745 188.551 45.3136 187.925C44.3656 186.604 42.3651 179.998 44.6567 179.632C47.1499 179.229 51.2331 186.245 49.0907 190.202Z" fill="#92E3A9" stroke="#263238" stroke-miterlimit="10"/>
<path d="M49.0907 190.202L45.8063 183.409" stroke="#263238" stroke-width="0.5" stroke-miterlimit="10"/>
<path d="M36.9532 149.923V275.873" stroke="#263238" stroke-width="2" stroke-miterlimit="10"/>
<path d="M37.0577 256.936L32.885 251.494" stroke="#263238" stroke-width="2" stroke-miterlimit="10"/>
<path d="M34.154 253.129C34.226 252.369 34.1339 251.602 33.8841 250.881C33.6343 250.16 33.2325 249.501 32.7058 248.948C31.6384 247.754 25.5622 244.47 24.7261 246.597C23.8229 248.948 29.8021 254.398 34.154 253.129Z" fill="#92E3A9" stroke="#263238" stroke-miterlimit="10"/>
<path d="M34.154 253.129L28.5182 248.739" stroke="#263238" stroke-width="0.5" stroke-miterlimit="10"/>
<path d="M37.0577 233.265L32.885 227.824" stroke="#263238" stroke-width="2" stroke-miterlimit="10"/>
<path d="M34.154 229.458C34.2249 228.7 34.1323 227.935 33.8825 227.215C33.6327 226.495 33.2315 225.837 32.7058 225.286C31.616 224.084 25.5622 220.762 24.7261 222.927C23.8229 225.286 29.8021 230.727 34.154 229.458Z" fill="#92E3A9" stroke="#263238" stroke-miterlimit="10"/>
<path d="M34.154 229.458L28.5182 225.069" stroke="#263238" stroke-width="0.5" stroke-miterlimit="10"/>
<path d="M37.0577 205.474L32.885 200.033" stroke="#263238" stroke-width="2" stroke-miterlimit="10"/>
<path d="M34.154 201.667C34.2249 200.909 34.1323 200.144 33.8825 199.424C33.6327 198.704 33.2315 198.046 32.7058 197.495C31.616 196.3 25.5622 192.971 24.7261 195.143C23.8229 197.495 29.8021 202.936 34.154 201.667Z" fill="#92E3A9" stroke="#263238" stroke-miterlimit="10"/>
<path d="M34.154 201.667L28.5182 197.286" stroke="#263238" stroke-width="0.5" stroke-miterlimit="10"/>
<path d="M37.0577 186.977L32.885 181.535" stroke="#263238" stroke-width="2" stroke-miterlimit="10"/>
<path d="M34.154 183.17C34.2249 182.411 34.1323 181.646 33.8825 180.927C33.6327 180.207 33.2315 179.549 32.7058 178.997C31.616 177.796 25.5622 174.474 24.7261 176.638C23.8229 178.997 29.8021 184.439 34.154 183.17Z" fill="#92E3A9" stroke="#263238" stroke-miterlimit="10"/>
<path d="M34.154 183.17L28.5182 178.781" stroke="#263238" stroke-width="0.5" stroke-miterlimit="10"/>
<path d="M37.0577 168.398L32.885 162.956" stroke="#263238" stroke-width="2" stroke-miterlimit="10"/>
<path d="M34.154 164.598C34.2249 163.839 34.1323 163.074 33.8825 162.355C33.6327 161.635 33.2315 160.977 32.7058 160.425C31.616 159.223 25.5622 155.902 24.7261 158.066C23.8229 160.418 29.8021 165.86 34.154 164.598Z" fill="#92E3A9" stroke="#263238" stroke-miterlimit="10"/>
<path d="M34.154 164.591L28.5182 160.201" stroke="#263238" stroke-width="0.5" stroke-miterlimit="10"/>
<path d="M36.9682 264.161L41.1334 258.72" stroke="#263238" stroke-width="2" stroke-miterlimit="10"/>
<path d="M39.8495 260.354C39.7864 259.593 39.887 258.826 40.1445 258.107C40.402 257.387 40.8104 256.731 41.3424 256.182C42.4323 254.987 48.4861 251.658 49.3147 253.83C50.203 256.182 44.2163 261.638 39.8495 260.354Z" fill="#92E3A9" stroke="#263238" stroke-miterlimit="10"/>
<path d="M39.8644 260.354L45.8362 255.734" stroke="#263238" stroke-width="0.5" stroke-miterlimit="10"/>
<path d="M36.9682 226.517L41.1334 221.076" stroke="#263238" stroke-width="2" stroke-miterlimit="10"/>
<path d="M39.8495 222.71C39.7859 221.948 39.8863 221.182 40.1438 220.462C40.4013 219.742 40.81 219.086 41.3424 218.538C42.4323 217.336 48.4861 214.014 49.3147 216.179C50.203 218.538 44.2163 223.979 39.8495 222.71Z" fill="#92E3A9" stroke="#263238" stroke-miterlimit="10"/>
<path d="M39.8644 222.71L45.8362 218.09" stroke="#263238" stroke-width="0.5" stroke-miterlimit="10"/>
<path d="M36.9682 207.938L41.1334 202.496" stroke="#263238" stroke-width="2" stroke-miterlimit="10"/>
<path d="M39.8495 204.161C39.7816 203.394 39.8797 202.622 40.1374 201.896C40.395 201.171 40.8061 200.51 41.3424 199.958C42.4323 198.756 48.4861 195.434 49.3147 197.599C50.203 199.958 44.2163 205.4 39.8495 204.161Z" fill="#92E3A9" stroke="#263238" stroke-miterlimit="10"/>
<path d="M39.8644 204.131L45.8362 199.51" stroke="#263238" stroke-width="0.5" stroke-miterlimit="10"/>
<path d="M36.9682 183.379L41.1334 177.937" stroke="#263238" stroke-width="2" stroke-miterlimit="10"/>
<path d="M39.8495 179.572C39.7859 178.81 39.8863 178.044 40.1438 177.324C40.4013 176.604 40.81 175.948 41.3424 175.399C42.4323 174.198 48.4861 170.876 49.3147 173.041C50.203 175.399 44.2163 180.841 39.8495 179.572Z" fill="#92E3A9" stroke="#263238" stroke-miterlimit="10"/>
<path d="M39.8644 179.572L45.8362 174.951" stroke="#263238" stroke-width="0.5" stroke-miterlimit="10"/>
<path d="M36.9682 164.068L41.1334 158.634" stroke="#263238" stroke-width="2" stroke-miterlimit="10"/>
<path d="M39.8495 160.261C39.786 159.5 39.8865 158.735 40.144 158.016C40.4015 157.298 40.8102 156.643 41.3424 156.096C42.4323 154.894 48.4861 151.572 49.3147 153.737C50.203 156.096 44.2163 161.53 39.8495 160.261Z" fill="#92E3A9" stroke="#263238" stroke-miterlimit="10"/>
<path d="M39.8644 160.261L45.8362 155.64" stroke="#263238" stroke-width="0.5" stroke-miterlimit="10"/>
<path d="M36.7144 151.699C36.6459 150.941 36.7396 150.176 36.9893 149.457C37.239 148.737 37.6389 148.079 38.1625 147.526C39.2598 146.332 45.3062 143.003 46.1422 145.175C47.0529 147.526 41.0663 152.968 36.7144 151.699Z" fill="#92E3A9" stroke="#263238" stroke-miterlimit="10"/>
<path d="M36.7144 151.699L42.6861 147.079" stroke="#263238" stroke-width="0.5" stroke-miterlimit="10"/>
<path d="M37.0055 151.953C36.2446 151.944 35.4946 151.772 34.8057 151.449C34.1169 151.125 33.5052 150.659 33.0119 150.079C31.9295 148.863 29.2796 142.495 31.519 141.868C33.945 141.241 38.7223 147.765 37.0055 151.953Z" fill="#92E3A9" stroke="#263238" stroke-miterlimit="10"/>
<path d="M37.0055 151.953L33.0343 145.533" stroke="#263238" stroke-width="0.5" stroke-miterlimit="10"/>
<path d="M42.1412 308.539H28.8018L27.1298 274.851H43.8058L42.1412 308.539Z" fill="#263238" stroke="#263238" stroke-miterlimit="10"/>
<g opacity="0.3">
<path d="M144.713 31.3243H83.0399V120.258H144.713V31.3243Z" stroke="black" stroke-miterlimit="10"/>
<path d="M144.72 46.8284V120.266H83.0399V118.317C90.173 116.012 96.8258 112.425 102.672 107.732C115.474 97.3416 112.675 90.1382 120.669 69.3492C126.917 53.0763 138.047 48.06 144.72 46.8284Z" stroke="black" stroke-miterlimit="10"/>
<path d="M108.957 31.3243C108.726 41.1254 105.225 60.9589 83.0399 75.7315V31.3243H108.957Z" stroke="black" stroke-miterlimit="10"/>
<path d="M138.428 31.3243C134.927 38.8039 128.679 48.1496 119.072 48.1496C109.144 48.1496 111.853 38.6023 115.339 31.3467L138.428 31.3243Z" stroke="black" stroke-miterlimit="10"/>
<path d="M103.217 89.4239C104.385 84.7058 101.508 79.9339 96.79 78.7654C92.072 77.597 87.3 80.4745 86.1316 85.1925C84.9631 89.9105 87.8406 94.6824 92.5586 95.8509C97.2766 97.0194 102.049 94.1419 103.217 89.4239Z" stroke="black" stroke-miterlimit="10"/>
<path d="M137.868 78.1201C137.868 78.9115 137.633 79.685 137.193 80.343C136.754 81.001 136.129 81.5138 135.398 81.8166C134.667 82.1194 133.862 82.1987 133.086 82.0443C132.31 81.8899 131.597 81.5089 131.037 80.9493C130.478 80.3897 130.097 79.6768 129.942 78.9007C129.788 78.1246 129.867 77.3201 130.17 76.589C130.473 75.8579 130.986 75.233 131.644 74.7934C132.302 74.3537 133.075 74.1191 133.867 74.1191C134.392 74.1191 134.912 74.2226 135.398 74.4237C135.883 74.6247 136.324 74.9194 136.696 75.291C137.067 75.6625 137.362 76.1036 137.563 76.589C137.764 77.0744 137.868 77.5947 137.868 78.1201Z" stroke="black" stroke-miterlimit="10"/>
<path d="M127.671 110.509C129.769 110.509 131.471 108.808 131.471 106.71C131.471 104.611 129.769 102.91 127.671 102.91C125.573 102.91 123.871 104.611 123.871 106.71C123.871 108.808 125.573 110.509 127.671 110.509Z" stroke="black" stroke-miterlimit="10"/>
<path d="M223.099 31.3243H161.419V120.258H223.099V31.3243Z" stroke="black" stroke-miterlimit="10"/>
<path d="M223.106 31.3243V104.224C209.543 97.2072 187.373 75.4254 178.655 55.3231C173.101 42.4989 167.196 35.2731 162.912 31.3243H223.106Z" stroke="black" stroke-miterlimit="10"/>
<path d="M223.106 113.637V120.266H161.419V117.728C173.175 109.912 191.337 99.887 203.452 102.91C211.253 104.881 217.926 109.188 223.106 113.637Z" stroke="black" stroke-miterlimit="10"/>
<path d="M177.863 85.7192C175.796 93.7138 167.234 98.8868 161.441 101.544V55.1813C169.1 63.7134 179.961 77.5678 177.863 85.7192Z" stroke="black" stroke-miterlimit="10"/>
<path d="M196.764 31.3243H223.106V51.8819C209.648 49.0528 200.601 37.3333 196.764 31.3243Z" stroke="black" stroke-miterlimit="10"/>
<path d="M206.862 71.8807C211.122 69.1137 211.794 62.5912 208.365 57.3121C204.935 52.0331 198.702 49.9967 194.443 52.7637C190.184 55.5307 189.511 62.0533 192.941 67.3323C196.37 72.6113 202.603 74.6477 206.862 71.8807Z" stroke="black" stroke-miterlimit="10"/>
<path d="M301.478 31.3243H239.805V120.258H301.478V31.3243Z" stroke="black" stroke-miterlimit="10"/>
<path d="M301.478 76.0301V120.266H239.805V115.182C243.276 110.352 250.763 104.672 266.64 100.514C280.308 96.931 292.199 86.8015 301.478 76.0301Z" stroke="black" stroke-miterlimit="10"/>
<path d="M268.268 81.3225C255.928 89.6978 246.135 97.3416 239.835 102.515V55.1216C250.435 46.7463 268.805 30.7048 279.868 35.7135C293.028 41.73 290.661 66.117 268.268 81.3225Z" stroke="black" stroke-miterlimit="10"/>
<path d="M301.478 31.3243V45.3056C296.723 42.6183 293.326 36.766 291.027 31.3243H301.478Z" stroke="black" stroke-miterlimit="10"/>
<path d="M271.44 56.928C274.532 56.928 277.039 54.4215 277.039 51.3296C277.039 48.2376 274.532 45.7311 271.44 45.7311C268.348 45.7311 265.842 48.2376 265.842 51.3296C265.842 54.4215 268.348 56.928 271.44 56.928Z" stroke="black" stroke-miterlimit="10"/>
<path d="M293.834 112.51C296.926 112.51 299.432 110.003 299.432 106.911C299.432 103.819 296.926 101.313 293.834 101.313C290.742 101.313 288.235 103.819 288.235 106.911C288.235 110.003 290.742 112.51 293.834 112.51Z" stroke="black" stroke-miterlimit="10"/>
<path d="M285.832 82.9199C285.832 83.7112 285.597 84.4848 285.158 85.1428C284.718 85.8007 284.093 86.3136 283.362 86.6164C282.631 86.9192 281.826 86.9984 281.05 86.8441C280.274 86.6897 279.561 86.3086 279.002 85.7491C278.442 85.1895 278.061 84.4766 277.907 83.7005C277.752 82.9243 277.831 82.1199 278.134 81.3888C278.437 80.6577 278.95 80.0328 279.608 79.5931C280.266 79.1535 281.039 78.9189 281.831 78.9189C282.892 78.9189 283.91 79.3404 284.66 80.0907C285.41 80.8411 285.832 81.8588 285.832 82.9199Z" stroke="black" stroke-miterlimit="10"/>
<path d="M250.838 82.1212C252.495 82.1212 253.838 80.7777 253.838 79.1204C253.838 77.4631 252.495 76.1196 250.838 76.1196C249.18 76.1196 247.837 77.4631 247.837 79.1204C247.837 80.7777 249.18 82.1212 250.838 82.1212Z" stroke="black" stroke-miterlimit="10"/>
</g>
<path d="M222.032 184.812H159.754C154.943 184.812 151.043 188.712 151.043 193.523V251.606C151.043 256.417 154.943 260.317 159.754 260.317H222.032C226.843 260.317 230.743 256.417 230.743 251.606V193.523C230.743 188.712 226.843 184.812 222.032 184.812Z" fill="white" stroke="#1B8C3B" stroke-miterlimit="10"/>
<path d="M142.339 184.812H80.0616C75.2505 184.812 71.3503 188.712 71.3503 193.523V251.606C71.3503 256.417 75.2505 260.317 80.0616 260.317H142.339C147.15 260.317 151.05 256.417 151.05 251.606V193.523C151.05 188.712 147.15 184.812 142.339 184.812Z" fill="white" stroke="#1B8C3B" stroke-miterlimit="10"/>
<path d="M116.586 217.873C116.586 217.873 87.3545 225.935 82.3159 228.458C77.2772 230.981 73.2463 232.989 75.2618 234.504C77.2772 236.02 88.3697 247.605 97.4392 251.673C106.509 255.741 121.632 251.673 136.255 252.681C150.879 253.688 158.425 251.673 158.425 250.158C158.425 248.642 152.379 236.55 142.802 229.496C136.294 224.847 129.378 220.797 122.14 217.395C122.14 217.395 117.594 213.865 116.586 217.873Z" fill="#1B8C3B" stroke="#1B8C3B" stroke-miterlimit="10"/>
<path d="M73.7241 217.366L78.1581 250.919H72.2237L73.7241 217.366Z" fill="#1B8C3B" stroke="#1B8C3B" stroke-miterlimit="10"/>
<path d="M301.732 184.812H239.454C234.643 184.812 230.743 188.712 230.743 193.523V251.606C230.743 256.417 234.643 260.317 239.454 260.317H301.732C306.543 260.317 310.443 256.417 310.443 251.606V193.523C310.443 188.712 306.543 184.812 301.732 184.812Z" fill="white" stroke="#1B8C3B" stroke-miterlimit="10"/>
<path d="M308.987 214.611C308.987 214.611 295.887 212.372 289.169 210.879C282.45 209.386 269.716 208.639 269.716 208.639C269.716 208.639 267.096 209.386 267.476 210.879C267.732 212.358 267.857 213.857 267.85 215.358C267.85 215.358 264.483 227.301 261.131 234.818C257.78 242.335 255.16 247.508 255.16 247.508C255.16 247.508 250.3 249.374 253.293 250.874C256.287 252.375 264.14 252.367 264.14 252.367H311.279L312.025 219.821L308.987 214.611Z" fill="#1B8C3B" stroke="#1B8C3B" stroke-miterlimit="10"/>
<path d="M69.5513 307.777H312.749V257.936H71.7683L69.5513 307.777Z" fill="white" stroke="#1B8C3B" stroke-miterlimit="10"/>
<path d="M68.0285 266.811C68.0285 266.811 129.866 266.102 152.312 266.102C174.758 266.102 216.358 267.05 226.66 267.05C236.961 267.05 308.771 267.506 308.771 267.506L308.89 263.303L66.5879 261.594L68.0285 266.811Z" fill="#1B8C3B" stroke="#1B8C3B" stroke-miterlimit="10"/>
<path d="M67.2149 264.482C67.2149 264.482 240.633 265.975 251.241 265.975C261.848 265.975 308.435 265.177 308.435 265.177V251.188C308.435 251.188 188.053 252.576 183.439 252.576C178.826 252.576 82.4353 249.59 78.7478 249.307C75.0602 249.023 67.2149 249.307 67.2149 249.307V264.482Z" fill="white" stroke="#1B8C3B" stroke-miterlimit="10"/>
<path d="M324.767 214.245H312.921C310.035 214.245 307.696 216.585 307.696 219.471V303.44C307.696 306.326 310.035 308.666 312.921 308.666H324.767C327.653 308.666 329.993 306.326 329.993 303.44V219.471C329.993 216.585 327.653 214.245 324.767 214.245Z" fill="white" stroke="#1B8C3B" stroke-miterlimit="10"/>
<path d="M68.4988 214.245H56.6524C53.7666 214.245 51.4272 216.585 51.4272 219.471V303.44C51.4272 306.326 53.7666 308.666 56.6524 308.666H68.4988C71.3846 308.666 73.7241 306.326 73.7241 303.44V219.471C73.7241 216.585 71.3846 214.245 68.4988 214.245Z" fill="white" stroke="#1B8C3B" stroke-miterlimit="10"/>
<path d="M4.01923 308.539H358" stroke="#263238" stroke-linecap="round" stroke-linejoin="round"/>
<path d="M45.657 140.375C45.657 140.375 62.6316 154.894 107.248 153.953C151.864 153.013 189.687 128.768 242.544 140.375C295.402 151.983 305.591 160.254 333.21 152.013" stroke="#263238" stroke-miterlimit="10"/>
<path d="M45.657 149.101C45.657 149.101 62.6316 163.65 107.248 162.68C151.864 161.709 189.687 137.464 242.544 149.101C295.402 160.739 305.591 168.987 333.21 160.739" stroke="#263238" stroke-miterlimit="10"/>
<path d="M45.657 157.828C45.657 157.828 62.6316 172.376 107.248 171.406C151.864 170.435 189.687 146.19 242.544 157.828C295.402 169.465 305.591 177.713 333.21 169.465" stroke="#263238" stroke-miterlimit="10"/>
<path d="M256.921 137.994C258.243 141.181 259.504 144.234 260.773 147.28C261.796 149.743 262.721 152.251 263.878 154.648C265.035 157.044 262.893 160.037 260.766 160.567C260.467 160.674 260.146 160.705 259.832 160.656C259.519 160.607 259.223 160.48 258.971 160.287C258.719 160.094 258.52 159.841 258.391 159.551C258.263 159.26 258.209 158.943 258.235 158.626C258.146 156.484 259.818 154.648 262.58 153.976C261.348 150.99 260.131 148.079 258.847 144.981C255.04 147.422 251.383 149.758 247.725 152.169C247.479 152.334 247.464 153.155 247.62 153.558C248.8 156.544 250.061 159.53 251.278 162.515C251.529 163.065 251.661 163.661 251.666 164.265C251.671 164.869 251.549 165.467 251.307 166.02C251.066 166.574 250.71 167.07 250.264 167.477C249.818 167.884 249.291 168.193 248.718 168.383C248.355 168.52 247.967 168.576 247.58 168.548C247.193 168.519 246.817 168.407 246.478 168.218C246.215 167.914 246.019 167.556 245.905 167.17C245.79 166.784 245.759 166.378 245.814 165.979C246.239 163.807 247.702 162.5 250.031 162.038L243.672 146.802L256.921 137.994ZM246.426 150.624L258.004 142.951L257.302 141.338L245.627 148.803C245.911 149.467 246.142 149.997 246.426 150.624Z" fill="#263238"/>
<path d="M147.288 143.092L131.433 143.645C130.575 149.124 129.739 154.506 128.888 159.962C126.648 159.134 124.73 159.477 123.237 161.112C122.975 161.425 122.783 161.792 122.674 162.186C122.566 162.58 122.544 162.993 122.61 163.396C122.8 163.732 123.061 164.022 123.374 164.248C123.687 164.473 124.045 164.628 124.424 164.703C125.011 164.837 125.619 164.846 126.21 164.73C126.801 164.614 127.361 164.375 127.853 164.028C128.346 163.682 128.76 163.236 129.07 162.72C129.379 162.203 129.576 161.628 129.649 161.03C130.172 157.857 130.649 154.67 131.202 151.505C131.284 151.08 131.724 150.385 132.015 150.378C136.345 150.214 140.682 150.146 145.168 150.057C144.67 153.192 144.173 156.332 143.675 159.477C141.436 158.649 139.517 158.992 138.024 160.627C137.838 160.85 137.69 161.102 137.584 161.373C137.396 161.63 137.276 161.93 137.234 162.246C137.193 162.561 137.231 162.882 137.345 163.18C137.459 163.477 137.646 163.74 137.889 163.946C138.132 164.152 138.422 164.294 138.734 164.359C140.824 165.016 144.205 163.672 144.474 160.94C144.534 160.351 144.608 159.761 144.69 159.179C145.131 156.462 145.549 153.737 146.027 151.027C146.101 150.602 146.542 149.908 146.833 149.9C151.192 149.736 155.559 149.669 160.075 149.579C159.553 152.893 159.052 156.036 158.582 159.201C155.88 158.328 153.491 159.022 152.454 160.888C152.266 161.145 152.146 161.444 152.103 161.759C152.061 162.074 152.099 162.395 152.212 162.692C152.326 162.989 152.512 163.252 152.754 163.459C152.995 163.665 153.285 163.808 153.596 163.874C155.686 164.531 159.067 163.187 159.343 160.455C159.62 157.723 160.135 155.185 160.545 152.55L162.113 142.615L147.288 143.092ZM131.747 148.318L132.001 146.377L145.81 146.093C145.713 146.675 145.623 147.258 145.534 147.832L131.747 148.318ZM160.463 147.347L146.579 147.832C146.661 147.25 146.728 146.728 146.803 146.16C146.803 146.071 146.803 145.981 146.84 145.892L160.702 145.608C160.62 146.25 160.545 146.772 160.463 147.377V147.347Z" fill="#263238"/>
<path d="M303.441 150.005C303.568 150.467 303.896 150.975 303.799 151.386C303.404 153.17 304.061 154.625 304.971 156.073C305.813 157.323 306.562 158.633 307.211 159.992C308.383 162.627 307.823 165.061 305.807 167.293C308.569 162.65 306.367 159.559 302.657 156.842C302.536 157.121 302.434 157.408 302.351 157.701C301.306 162.463 300.276 167.233 299.231 171.995C299.086 172.684 298.799 173.334 298.388 173.905C297.977 174.476 297.452 174.955 296.846 175.312C296.24 175.669 295.566 175.896 294.868 175.977C294.169 176.059 293.461 175.995 292.789 175.788C290.639 175.16 290.109 173.145 291.759 171.622C293.64 169.89 295.849 169.637 298.35 170.622C299.843 163.769 301.336 156.949 302.829 150.161L303.441 150.005Z" fill="#263238"/>
<path d="M83.2788 137.397C83.4132 137.86 83.7342 138.36 83.6446 138.77C83.2415 140.562 83.9058 142.017 84.8165 143.466C85.653 144.716 86.4013 146.023 87.0559 147.377C88.2204 150.02 87.668 152.453 85.6526 154.685C88.4145 150.042 86.2124 146.952 82.5025 144.234C82.3814 144.513 82.2792 144.8 82.1964 145.093C81.1514 149.855 80.1213 154.625 79.0688 159.388C78.9225 160.075 78.6348 160.725 78.224 161.296C77.8131 161.866 77.2881 162.345 76.6823 162.701C76.0764 163.058 75.403 163.285 74.7048 163.367C74.0066 163.449 73.299 163.386 72.6268 163.18C70.4844 162.545 69.947 160.537 71.6041 159.014C73.4852 157.283 75.6873 157.029 78.1954 158.014C79.6883 151.162 81.1812 144.341 82.6742 137.554L83.2788 137.397Z" fill="#263238"/>
<path d="M279.718 154.976L280.756 150.184C280.768 149.932 280.803 149.682 280.86 149.437C280.95 149.027 280.629 148.519 280.495 148.064L279.897 148.236C278.405 155.036 276.912 161.836 275.419 168.696C272.911 167.703 270.709 167.95 268.827 169.689C267.17 171.219 267.708 173.227 269.85 173.862C270.522 174.068 271.23 174.131 271.928 174.049C272.626 173.967 273.3 173.74 273.906 173.383C274.511 173.027 275.036 172.548 275.447 171.977C275.858 171.407 276.146 170.757 276.292 170.07C277.345 165.3 278.375 160.53 279.42 155.767C279.499 155.496 279.599 155.232 279.718 154.976Z" fill="#263238"/>
<path d="M113.503 155.476L114.541 150.684C114.561 150.433 114.596 150.184 114.645 149.937C114.742 149.527 114.414 149.019 114.287 148.557L113.682 148.728C112.189 155.536 110.696 162.336 109.204 169.189C106.703 168.203 104.493 168.442 102.612 170.189C100.963 171.682 101.493 173.727 103.642 174.354C104.314 174.563 105.023 174.629 105.722 174.548C106.421 174.467 107.095 174.241 107.702 173.885C108.309 173.529 108.835 173.05 109.247 172.479C109.658 171.909 109.946 171.258 110.092 170.57C111.137 165.807 112.167 161.037 113.212 156.275C113.291 156.002 113.388 155.736 113.503 155.476Z" fill="#263238"/>
<path d="M194.89 74.776C190.444 73.6554 185.747 74.0981 181.588 76.03C174.616 79.2771 172.018 84.9876 164.233 88.8468C156.447 92.706 143.474 99.0584 136.987 96.4682C130.5 93.878 129.522 92.2507 130.179 94.5199C130.836 96.7892 132.613 99.8721 135.531 101.007C136.887 101.588 138.301 102.024 139.749 102.306C139.749 102.306 141.204 103.44 136.016 104.254C132.794 104.727 129.517 104.671 126.312 104.09C126.312 104.09 127.29 114.951 141.563 118.362C155.835 121.773 159.56 120.146 159.56 120.146C159.56 120.146 152.752 125.17 150.602 126.633C148.453 128.096 153.85 130.843 163.904 131.171C173.959 131.5 183.365 122.901 188.874 122.901C194.383 122.901 201.041 127.118 207.364 125.498C213.686 123.878 216.284 115.443 215.799 113.495C215.315 111.834 214.719 110.208 214.015 108.628C214.015 108.628 216.12 108.628 217.583 112.36C219.046 116.093 219.523 117.869 220.016 116.093C220.509 114.316 222.771 111.547 217.904 102.791C213.037 94.0347 212.88 94.6842 210.932 87.3837C208.983 80.0833 204.766 77.1721 200.713 77.1721L194.89 74.776Z" fill="#263238" stroke="#263238" stroke-linecap="round" stroke-linejoin="round"/>
<path d="M183.725 105.238C186.544 104.529 188.149 101.252 187.31 97.9171C186.471 94.5828 183.506 92.4545 180.688 93.1635C177.869 93.8726 176.264 97.1504 177.103 100.485C177.942 103.819 180.906 105.947 183.725 105.238Z" fill="white" stroke="#263238" stroke-linecap="round" stroke-linejoin="round"/>
<path d="M170.921 160.351C170.921 160.351 164.949 168.845 161.964 188.821C158.978 208.796 163.8 231.295 166.092 237.49C168.383 243.686 177.804 273.537 179.871 280.419C181.939 287.302 182.424 298.79 182.424 298.79C182.424 298.79 177.833 308.203 176.452 310.733C175.071 313.264 173.011 314.869 174.848 315.324C176.684 315.779 183.805 313.719 185.634 311.651C187.463 309.584 187.478 307.523 189.083 305.68C190.688 303.836 194.129 302.231 194.129 300.626C194.129 299.021 192.068 296.954 191.143 296.267C190.47 295.719 189.854 295.104 189.307 294.43C189.307 294.43 192.516 271.701 190.68 264.348C188.844 256.995 184.708 248.739 184.708 247.135C184.708 245.53 184.253 231.063 184.253 225.323C184.38 220.637 184.767 215.962 185.41 211.319C185.41 211.319 189.538 198.92 194.368 193.404C199.197 187.888 206.998 185.827 207.453 180.542C207.711 176.416 207.711 172.278 207.453 168.151L170.921 160.351Z" fill="#1B8C3B" stroke="#263238" stroke-linecap="round" stroke-linejoin="round"/>
<path d="M177.729 188.716C178.118 189.422 178.565 190.093 179.065 190.724" stroke="#263238" stroke-linecap="round" stroke-linejoin="round"/>
<path d="M173.631 178.034C174.446 181.171 175.54 184.229 176.9 187.171" stroke="#263238" stroke-linecap="round" stroke-linejoin="round"/>
<path d="M189.292 185.372C189.292 185.372 170.234 200.301 161.74 209.259C153.245 218.217 144.063 230.376 148.878 234.28C153.693 238.184 200.339 251.039 204.669 253.793C208.998 256.547 212.014 261.138 214.082 264.811C216.149 268.483 217.53 270.783 217.986 272.843C218.441 274.903 221.427 272.387 221.427 267.797C221.427 263.206 220.74 254.935 220.74 251.957C220.74 248.978 218.217 248.971 216.612 249.202C214.901 249.554 213.213 250.013 211.559 250.576C205.333 248.767 199.502 245.807 194.368 241.85C185.641 235.191 186.903 235.258 181.969 231.75C174.855 226.696 169.577 226.472 169.577 226.472C169.577 226.472 193.464 211.775 200.571 204.661C207.677 197.547 208.834 186.29 208.834 182.386C208.789 179.821 208.403 177.273 207.684 174.81" fill="#1B8C3B"/>
<path d="M189.292 185.372C189.292 185.372 170.234 200.301 161.74 209.259C153.245 218.217 144.063 230.376 148.878 234.28C153.693 238.184 200.339 251.039 204.669 253.793C208.998 256.547 212.014 261.138 214.082 264.811C216.149 268.483 217.53 270.783 217.986 272.843C218.441 274.903 221.427 272.387 221.427 267.797C221.427 263.206 220.74 254.935 220.74 251.957C220.74 248.978 218.217 248.971 216.612 249.202C214.901 249.554 213.213 250.013 211.559 250.576C205.333 248.767 199.502 245.807 194.368 241.85C185.641 235.191 186.903 235.258 181.969 231.75C174.855 226.696 169.577 226.472 169.577 226.472C169.577 226.472 193.464 211.775 200.571 204.661C207.677 197.547 208.834 186.29 208.834 182.386C208.789 179.821 208.403 177.273 207.684 174.81" stroke="#263238" stroke-linecap="round" stroke-linejoin="round"/>
<path d="M160.732 226.652C160.131 226.79 159.54 226.967 158.963 227.182" stroke="#263238" stroke-linecap="round" stroke-linejoin="round"/>
<path d="M169.548 226.472C167.645 226.192 165.719 226.109 163.8 226.226" stroke="#263238" stroke-linecap="round" stroke-linejoin="round"/>
<path d="M216.612 249.202C214.901 249.554 213.213 250.013 211.559 250.576C205.333 248.767 199.502 245.807 194.368 241.85C193.076 240.864 192.009 240.028 191.098 239.304C190.695 241.364 189.501 244.238 186.306 247.403C195.435 250.285 203.056 252.755 204.699 253.793C209.065 256.547 212.044 261.138 214.112 264.811C216.179 268.483 217.56 270.783 218.016 272.843C218.471 274.903 221.457 272.387 221.457 267.797C221.457 263.206 220.77 254.935 220.77 251.957C220.77 248.978 218.254 248.948 216.612 249.202Z" fill="white" stroke="#263238" stroke-linecap="round" stroke-linejoin="round"/>
<path d="M216.612 249.202C215.878 249.321 215.152 249.488 214.44 249.702C215.373 251.718 217.127 256.025 217.299 260.22C217.448 263.952 216.052 265.729 215.06 266.528C216.553 269.23 217.612 271.126 217.993 272.843C218.456 274.91 221.434 272.387 221.434 267.797C221.434 263.206 220.748 254.935 220.748 251.957C220.748 248.978 218.254 248.948 216.612 249.202Z" fill="#263238" stroke="#263238" stroke-linecap="round" stroke-linejoin="round"/>
<path d="M191.128 296.267C190.455 295.719 189.839 295.104 189.292 294.43C189.292 294.43 191.173 281.069 191.232 271.521C187.508 274.174 183.174 275.843 178.632 276.374C179.162 278.075 179.588 279.471 179.879 280.419C181.939 287.309 182.402 298.79 182.402 298.79C182.402 298.79 177.811 308.203 176.43 310.733C175.049 313.264 172.989 314.869 174.825 315.324C176.661 315.779 183.783 313.719 185.612 311.651C187.44 309.584 187.455 307.523 189.06 305.68C190.665 303.836 194.106 302.231 194.106 300.626C194.106 299.021 192.046 296.954 191.128 296.267Z" fill="white" stroke="#263238" stroke-linecap="round" stroke-linejoin="round"/>
<path d="M191.128 296.267L190.979 296.147C190.747 296.543 190.493 296.961 190.232 297.409C187.702 301.313 185.41 306.366 182.656 308.434C181.9 309.017 181.005 309.393 180.06 309.524C179.115 309.655 178.152 309.536 177.266 309.181C176.945 309.815 176.661 310.353 176.452 310.733C175.079 313.264 173.011 314.869 174.848 315.324C176.684 315.779 183.805 313.719 185.634 311.651C187.463 309.584 187.478 307.523 189.083 305.68C190.688 303.836 194.129 302.231 194.129 300.626C194.129 299.021 192.046 296.954 191.128 296.267Z" fill="#263238" stroke="#263238" stroke-linecap="round" stroke-linejoin="round"/>
<path d="M184.343 106.844C184.343 106.844 173.967 102.641 173.467 102.306C172.966 101.97 161.956 91.6013 161.956 91.6013L180.618 66.3036C180.618 66.3036 186.784 65.9752 189.053 65.169C191.322 64.3628 193.435 64.0344 193.755 63.3849C194.076 62.7355 196.189 59.4884 197.159 58.1597C198.13 56.831 196.189 56.0472 195.666 56.6668C195.144 57.2863 194.853 57.8014 194.853 57.8014C194.853 57.8014 191.77 54.0691 190.8 54.0691C189.829 54.0691 187.717 57.1445 187.717 57.1445C187.717 57.1445 180.424 58.4433 179.61 59.9064C178.796 61.3695 150.423 90.2278 149.931 92.9897C149.438 95.7516 161.934 108.068 168.592 112.935C175.251 117.802 181.566 123.64 181.566 123.64C181.566 123.64 178.804 131.261 178.804 134.665C178.804 138.069 179.296 142.286 178.968 143.585C178.64 144.884 169.077 161.097 169.077 161.097C169.077 161.097 176.049 167.069 190.486 169.689C204.923 172.309 209.454 170.338 209.454 170.338C209.454 170.338 210.103 159.477 210.588 156.715C211.073 153.953 217.889 139.039 217.889 139.039L219.673 158.343C219.673 158.343 223.726 160.776 225.839 162.232C227.951 163.687 232.646 166.613 232.646 166.613C232.646 166.613 229.728 140.487 228.593 133.53C227.458 126.573 227.623 124.774 224.375 122.012C221.128 119.25 209.297 116.503 209.297 116.503L184.343 106.844Z" fill="white" stroke="#263238" stroke-linecap="round" stroke-linejoin="round"/>
<path d="M180.603 63.3178C181.503 62.1515 182.799 61.3549 184.246 61.0784C186.522 60.735 192.785 61.5337 192.785 61.5337C193.375 60.2647 194.077 59.0507 194.883 57.9059" stroke="#263238" stroke-linecap="round" stroke-linejoin="round"/>
<path d="M191.531 54.6662C191.531 54.6662 189.254 56.9056 189.142 58.0776" stroke="#263238" stroke-linecap="round" stroke-linejoin="round"/>
<path d="M192.875 55.8008C191.785 56.801 190.896 57.9992 190.255 59.3316" stroke="#263238" stroke-linecap="round" stroke-linejoin="round"/>
<path d="M194.495 57.3983C194.495 57.3983 191.076 59.563 191.188 60.5857L187.746 57.2191" stroke="#263238" stroke-linecap="round" stroke-linejoin="round"/>
<path d="M224.398 122.087C221.158 119.332 209.319 116.578 209.319 116.578L184.343 106.874C184.343 106.874 181.924 105.896 179.371 104.844L180.192 122.482L181.588 123.744C181.588 123.744 178.826 131.365 178.826 134.769C178.826 138.173 179.319 142.391 178.99 143.69C178.662 144.988 169.1 161.202 169.1 161.202C169.1 161.202 176.072 167.173 190.508 169.793C204.945 172.413 209.476 170.443 209.476 170.443C209.476 170.443 210.125 159.582 210.611 156.82C211.096 154.058 217.911 139.144 217.911 139.144L218.217 142.421L228.414 132.343C227.488 126.394 227.436 124.67 224.398 122.087Z" fill="white" stroke="#263238" stroke-linecap="round" stroke-linejoin="round"/>
<path d="M181.588 123.714L184.365 114.324" stroke="#263238" stroke-linecap="round" stroke-linejoin="round"/>
<path d="M182.126 122.206V113.667" stroke="#263238" stroke-linecap="round" stroke-linejoin="round"/>
<path d="M215.903 133.769L217.911 139.121L215.112 135.605" fill="white"/>
<path d="M215.903 133.769L217.911 139.121L215.112 135.605" stroke="#263238" stroke-linecap="round" stroke-linejoin="round"/>
<path d="M199.205 150.43L200.787 151.378" stroke="#263238" stroke-linecap="round" stroke-linejoin="round"/>
<path d="M185.149 142.047L198.107 149.781" stroke="#263238" stroke-linecap="round" stroke-linejoin="round"/>
<path d="M185.283 144.152L192.905 148.616" stroke="#263238" stroke-linecap="round" stroke-linejoin="round"/>
<path d="M191.158 81.9644C191.158 81.9644 187.552 82.5989 182.88 87.2718C178.207 91.9446 177.789 93.8481 178.64 94.9081C179.491 95.9681 180.551 102.126 183.305 106.583C186.059 111.039 191.8 113.838 191.8 113.838C192.537 115.528 193.677 117.012 195.121 118.159C196.564 119.307 198.266 120.084 200.078 120.422C201.792 120.763 203.564 120.667 205.232 120.146C206.9 119.624 208.41 118.693 209.625 117.436C209.625 117.436 206.229 111.913 205.385 107.031C204.542 102.149 204.109 93.445 204.109 93.445L203.049 87.7122C203.049 87.7122 194.554 87.9063 191.158 81.9644Z" fill="white" stroke="#263238" stroke-linecap="round" stroke-linejoin="round"/>
<path d="M194.651 117.735C198.548 113.615 201.369 104.239 201.369 104.239C197.682 111.816 191.8 113.838 191.8 113.838C192.466 115.323 193.437 116.651 194.651 117.735Z" fill="#263238" stroke="#263238" stroke-linecap="round" stroke-linejoin="round"/>
<path d="M185.432 92.7881L187.127 101.492L189.463 100.85" stroke="#263238" stroke-linecap="round" stroke-linejoin="round"/>
<path d="M188.829 105.097C188.829 105.097 194.987 105.097 194.987 99.3272" stroke="#263238" stroke-linecap="round" stroke-linejoin="round"/>
<path d="M194.017 99.0958H196.376" stroke="#263238" stroke-linecap="round" stroke-linejoin="round"/>
<path d="M190.471 94.5871C191.205 94.7172 191.959 94.6885 192.681 94.5031C193.404 94.3177 194.078 93.9799 194.659 93.5122" stroke="#263238" stroke-linecap="round" stroke-linejoin="round"/>
<path d="M181.678 98.0284C181.678 98.0284 183.283 98.5583 184.895 96.416" stroke="#263238" stroke-linecap="round" stroke-linejoin="round"/>
<path d="M188.971 90.3995C188.971 90.3995 190.255 88.4661 193.375 89.7575" stroke="#263238" stroke-linecap="round" stroke-linejoin="round"/>
<path d="M184.134 92.4448C184.134 92.4448 182.096 92.1163 180.812 94.9081" stroke="#263238" stroke-linecap="round" stroke-linejoin="round"/>
<path d="M204.004 87.2643C203.046 84.4251 201.562 81.7916 199.63 79.5011C198.142 77.8323 196.559 76.2497 194.89 74.761C194.89 74.761 199.451 76.254 201.907 78.68C204.363 81.106 205.736 86.7941 205.736 86.7941L204.004 87.2643Z" fill="white" stroke="#263238" stroke-linecap="round" stroke-linejoin="round"/>
<path d="M203.803 97.4162C203.803 97.4162 204.826 106.904 201.75 115.876C198.675 124.849 191.24 132.5 190.217 134.06C189.195 135.62 174.833 165.598 184.828 165.852C194.823 166.106 203.325 152.266 203.325 152.266" stroke="#263238" stroke-linecap="round" stroke-linejoin="round"/>
<path d="M186.627 110.479C186.627 110.479 186.365 128.163 190.217 134.06" stroke="#263238" stroke-linecap="round" stroke-linejoin="round"/>
<path d="M206.268 98.1542C209.087 97.4451 210.692 94.1673 209.853 90.8329C209.014 87.4986 206.05 85.3703 203.231 86.0793C200.412 86.7884 198.807 90.0662 199.646 93.4006C200.485 96.7349 203.45 98.8632 206.268 98.1542Z" fill="white" stroke="#263238" stroke-linecap="round" stroke-linejoin="round"/>
<path d="M216.821 135.165L203.056 151.303L204.199 152.632L218.15 136.023L216.821 135.165Z" fill="#263238" stroke="#263238" stroke-linecap="round" stroke-linejoin="round"/>
<path d="M233.236 164.874C232.766 163.74 231.915 161.478 231.915 161.478C231.915 161.478 214.686 152.475 214.522 151.908C214.358 151.341 213.373 149.997 213.947 148.654C214.522 147.31 215.672 141.383 215.672 141.383C215.672 141.383 211.842 137.748 211.268 137.554C210.693 137.36 209.737 139.278 209.737 139.278C209.737 139.278 209.431 139.621 209.088 140.077C208.147 140.763 205.915 142.443 205.915 142.988C205.915 143.675 206.826 143.369 207.356 143.294C207.921 143.173 208.477 143.013 209.021 142.816C209.643 143.031 210.199 143.404 210.633 143.899L211.268 144.645C211.268 144.645 208.595 143.249 207.169 143.533C206.985 143.557 206.808 143.618 206.649 143.714C206.49 143.81 206.352 143.937 206.245 144.089C206.138 144.24 206.063 144.412 206.026 144.594C205.988 144.776 205.989 144.964 206.027 145.145L206.221 145.72C206.221 145.72 203.848 147.049 203.848 147.9C203.848 148.751 205.341 147.803 206.408 147.713C207.475 147.623 207.901 147.616 207.901 147.616C207.901 147.616 207.043 152.363 208.752 153.976C209.64 154.882 210.753 155.536 211.977 155.872C211.977 155.872 222.233 167.36 224.98 169.92C227.727 172.481 231.34 174.287 232.482 172.675C233.624 171.062 233.714 166.016 233.236 164.874Z" fill="white" stroke="#263238" stroke-linecap="round" stroke-linejoin="round"/>
<path d="M206.192 145.705C206.664 145.495 207.169 145.366 207.685 145.324C208.335 145.365 208.949 145.635 209.42 146.086C209.89 146.537 210.185 147.14 210.252 147.788" stroke="#263238" stroke-linecap="round" stroke-linejoin="round"/>
<path d="M209.536 139.965C209.536 139.965 213.119 141.174 213.499 142.316C213.737 143.181 213.833 144.078 213.783 144.973" stroke="#263238" stroke-linecap="round" stroke-linejoin="round"/>
<path d="M211.238 144.63C211.63 145.229 211.823 145.937 211.79 146.653" stroke="#263238" stroke-linecap="round" stroke-linejoin="round"/>
</svg>
