<svg width="358" height="326" viewBox="0 0 358 326" fill="none" xmlns="http://www.w3.org/2000/svg">
<path d="M175.757 326C272.825 326 351.514 316.349 351.514 304.444C351.514 292.539 272.825 282.889 175.757 282.889C78.689 282.889 0 292.539 0 304.444C0 316.349 78.689 326 175.757 326Z" fill="#92E3A9"/>
<path opacity="0.5" d="M175.757 326C272.825 326 351.514 316.349 351.514 304.444C351.514 292.539 272.825 282.889 175.757 282.889C78.689 282.889 0 292.539 0 304.444C0 316.349 78.689 326 175.757 326Z" fill="white"/>
<path d="M18.5961 279.058H351.777" stroke="#263238" stroke-miterlimit="10"/>
<path d="M333.22 107.384C333.144 107.383 333.071 107.361 333.011 107.318C311.764 93.8753 283.917 91.5085 251.652 88.7703C230.639 86.9862 206.836 84.9617 181.142 79.6091C116.358 66.1222 80.1107 21.6708 79.7543 21.2193C79.6947 21.1457 79.6672 21.0536 79.6773 20.9616C79.6873 20.8697 79.7343 20.7847 79.8085 20.7241C79.8914 20.668 79.9942 20.6442 80.0953 20.6578C80.1964 20.6714 80.288 20.7212 80.3509 20.7969C80.7151 21.2411 116.768 65.4887 181.297 78.9173C206.967 84.2626 230.747 86.2798 251.738 88.0639C284.079 90.8167 312.02 93.1616 333.421 106.736C333.507 106.791 333.566 106.875 333.586 106.97C333.607 107.065 333.586 107.164 333.53 107.246C333.492 107.289 333.445 107.323 333.391 107.347C333.338 107.371 333.279 107.384 333.22 107.384Z" fill="#92E3A9"/>
<path d="M322.14 118.57C322.062 118.57 321.986 118.547 321.923 118.504C300.677 105.061 272.837 102.694 240.565 99.956C219.551 98.1718 195.748 96.1473 170.054 90.7875C105.27 77.3006 69.0228 32.8492 68.6663 32.3758C68.6348 32.338 68.6117 32.2945 68.5985 32.248C68.5853 32.2015 68.5822 32.153 68.5894 32.1054C68.5967 32.0578 68.6141 32.0121 68.6406 31.9709C68.6671 31.9298 68.7022 31.8941 68.7438 31.8661C68.7845 31.8374 68.8308 31.8165 68.8801 31.8046C68.9294 31.7928 68.9807 31.7901 69.0311 31.7969C69.0814 31.8037 69.1299 31.8197 69.1737 31.844C69.2174 31.8684 69.2557 31.9006 69.2862 31.9389C69.6426 32.3831 105.704 76.6234 170.225 90.0593C195.895 95.4045 219.675 97.4217 240.665 99.2059C273.007 101.959 300.948 104.304 322.349 117.878C322.434 117.933 322.493 118.017 322.514 118.112C322.534 118.207 322.514 118.306 322.457 118.388C322.425 118.441 322.379 118.485 322.323 118.517C322.268 118.549 322.205 118.567 322.14 118.57Z" fill="#92E3A9"/>
<path d="M311.052 129.748C310.974 129.749 310.898 129.726 310.835 129.683C289.589 116.239 261.749 113.873 229.477 111.134C208.463 109.35 184.66 107.326 158.966 101.966C94.1818 88.4499 57.9348 44.0276 57.5783 43.5761C57.5478 43.5378 57.5256 43.4943 57.513 43.448C57.5003 43.4017 57.4976 43.3535 57.5047 43.3061C57.5119 43.2588 57.529 43.2133 57.5549 43.1721C57.5808 43.131 57.6151 43.095 57.6558 43.0663C57.6965 43.0376 57.7428 43.0168 57.7921 43.0049C57.8414 42.993 57.8927 42.9904 57.9431 42.9972C57.9934 43.0039 58.0419 43.0199 58.0857 43.0443C58.1294 43.0687 58.1677 43.1009 58.1982 43.1391C58.5546 43.5834 94.6157 87.8236 159.137 101.26C184.807 106.605 208.595 108.622 229.577 110.406C261.919 113.159 289.86 115.504 311.261 129.078C311.346 129.131 311.405 129.214 311.425 129.308C311.445 129.402 311.425 129.5 311.369 129.581C311.336 129.631 311.289 129.673 311.233 129.702C311.178 129.732 311.115 129.747 311.052 129.748Z" fill="#92E3A9"/>
<path d="M299.964 140.919C299.887 140.922 299.81 140.902 299.747 140.861C278.501 127.418 250.661 125.051 218.389 122.313C197.383 120.521 173.572 118.504 147.878 113.144C83.0938 99.6574 46.8468 55.1987 46.4904 54.7545C46.4287 54.6772 46.4023 54.5801 46.4168 54.4845C46.4313 54.3889 46.4857 54.3027 46.5679 54.2447C46.6501 54.1868 46.7534 54.1619 46.8551 54.1756C46.9568 54.1892 47.0486 54.2403 47.1103 54.3176C47.4667 54.7618 83.5277 99.002 148.049 112.438C173.719 117.783 197.507 119.8 218.489 121.585C250.831 124.33 278.772 126.682 300.181 140.257C300.264 140.311 300.322 140.394 300.341 140.488C300.359 140.582 300.338 140.68 300.281 140.759C300.247 140.809 300.2 140.85 300.145 140.878C300.089 140.906 300.027 140.92 299.964 140.919Z" fill="#92E3A9"/>
<path d="M106.626 42.2216C106.626 42.2216 103.116 43.3649 104.301 44.1223C105.487 44.8796 109.423 54.6307 108.609 55.8978C107.796 57.1649 105.247 52.9849 103.759 54.3758C102.271 55.7667 104.433 59.1894 106.726 58.9346C109.02 58.6797 110.097 56.5314 109.555 53.8369C109.012 51.1424 107.16 46.9405 106.928 46.023C106.695 45.1054 107.741 44.632 109.353 45.5132C110.965 46.3944 113.801 44.8796 114.614 43.2338C115.428 41.588 114.746 38.8062 114.746 38.8062C114.746 38.8062 115.281 40.1971 112.592 40.8306C109.903 41.4642 107.563 41.8429 106.626 42.2216Z" fill="#92E3A9"/>
<path d="M91.0359 86.0176C91.0359 86.0176 87.5337 87.1609 88.7114 87.9183C89.8892 88.6757 93.8331 98.4267 93.0273 99.6938C92.2214 100.961 89.6567 96.7809 88.1768 98.1718C86.6968 99.5628 88.8509 102.985 91.1366 102.731C93.4224 102.476 94.5072 100.327 93.9726 97.6329C93.4379 94.9385 91.5473 90.671 91.2761 89.7826C91.0049 88.8941 92.051 88.3916 93.7014 89.2728C95.3518 90.154 98.149 88.6392 98.9548 86.9934C99.7606 85.3476 99.0865 82.5658 99.0865 82.5658C99.0865 82.5658 99.6289 83.9567 96.9325 84.5903C94.236 85.2238 91.9812 85.6389 91.0359 86.0176Z" fill="#92E3A9"/>
<path d="M305.38 97.3926C303.623 96.5541 301.918 95.6229 300.274 94.6035C297.794 93.045 296.399 93.7951 296.756 94.8292C297.112 95.8633 294.982 103.197 291.805 107.071C288.628 110.945 288.922 106.525 286.528 105.76C284.134 104.995 282.84 107.216 284.676 109.794C286.513 112.372 290.666 111.593 291.216 110.013C291.766 108.433 295.656 101.507 296.81 99.8176C297.965 98.1281 298.817 98.2228 300.909 100.182C301.802 101.068 302.915 101.731 304.149 102.113C305.382 102.494 306.697 102.581 307.976 102.366C307.976 102.366 303.691 110.086 302.381 112.562C301.072 115.038 299.987 118.169 298.058 118.104C296.128 118.038 293.951 114.462 292.417 116.647C290.883 118.832 295.462 122.553 297.926 121.497C300.39 120.441 301.901 115.591 303.729 112.241C305.558 108.891 310.85 100.065 310.533 98.8054C310.215 97.5455 307.751 98.8418 305.38 97.3926Z" fill="#92E3A9"/>
<path d="M255.697 112.241C254.455 111.648 253.25 110.989 252.086 110.268C250.328 109.168 249.367 109.7 249.599 110.428C249.832 111.156 248.344 116.349 246.097 119.087C243.85 121.825 244.059 118.701 242.362 118.162C240.665 117.623 239.759 119.196 241.06 121.017C242.362 122.837 245.291 122.284 245.709 121.169C246.871 118.699 248.191 116.296 249.661 113.974C250.482 112.795 251.087 112.846 252.567 114.229C253.2 114.853 253.988 115.32 254.86 115.589C255.732 115.857 256.661 115.918 257.565 115.766C257.565 115.766 254.535 121.22 253.605 122.961C252.675 124.701 251.916 126.93 250.506 126.886C249.096 126.842 247.608 124.294 246.523 125.867C245.438 127.44 248.677 130.047 250.397 129.297C252.117 128.546 253.21 125.124 254.496 122.742C255.782 120.361 259.533 114.135 259.308 113.275C259.083 112.416 257.394 113.268 255.697 112.241Z" fill="#92E3A9"/>
<path d="M267.924 122.925C266.99 122.486 266.082 121.999 265.204 121.468C263.879 120.638 263.151 121.038 263.329 121.585C263.508 122.131 262.384 126.049 260.687 128.139C258.99 130.229 259.137 127.84 257.874 127.41C256.611 126.981 255.906 128.19 256.89 129.559C257.874 130.928 260.083 130.52 260.369 129.675C261.25 127.814 262.246 126.002 263.353 124.25C263.972 123.361 264.43 123.398 265.545 124.447C266.022 124.918 266.615 125.271 267.273 125.473C267.93 125.675 268.63 125.72 269.311 125.604C269.311 125.604 267.025 129.719 266.328 131.03C265.631 132.341 265.049 134.023 264.003 133.986C262.957 133.95 261.818 132.035 260.997 133.222C260.176 134.409 262.624 136.368 263.934 135.807C265.243 135.246 266.057 132.661 267.033 130.87C268.009 129.078 270.838 124.381 270.667 123.704C270.497 123.026 269.187 123.696 267.924 122.925Z" fill="#92E3A9"/>
<path d="M88.8276 42.1342C87.592 41.5408 86.3918 40.8844 85.2324 40.168C83.4735 39.061 82.5127 39.5927 82.7452 40.3209C82.9776 41.0491 81.4899 46.2414 79.2429 48.9869C76.9958 51.7323 77.205 48.5936 75.5081 48.0547C73.8112 47.5158 72.9047 49.0961 74.2064 50.9094C75.5081 52.7227 78.437 52.1765 78.8555 51.0623C80.0174 48.5914 81.337 46.1887 82.8071 43.8674C83.6285 42.6876 84.2328 42.7386 85.7128 44.1223C86.3389 44.7405 87.1176 45.2042 87.9798 45.4722C88.8421 45.7402 89.7614 45.8043 90.6563 45.6588C90.6563 45.6588 87.6189 51.1133 86.6968 52.8538C85.7748 54.5943 85.0077 56.8227 83.5975 56.779C82.1873 56.7353 80.6996 54.1865 79.6148 55.7595C78.53 57.3324 81.7689 59.9395 83.489 59.1894C85.2091 58.4394 86.3017 55.0167 87.5879 52.6353C88.8741 50.254 92.6244 44.0203 92.3997 43.1683C92.175 42.3162 90.5013 43.161 88.8276 42.1342Z" fill="#92E3A9"/>
<path d="M335.986 185.443C335.908 185.443 335.833 185.42 335.769 185.378C311.54 170.041 279.787 167.347 243.021 164.223C219.07 162.184 191.928 159.853 162.608 153.773C124.013 145.762 94.6467 128.073 76.8099 114.674C57.4776 100.145 47.1335 87.343 47.0328 87.2192C47.0023 87.1809 46.9801 87.1374 46.9674 87.0911C46.9548 87.0448 46.952 86.9965 46.9592 86.9492C46.9664 86.9019 46.9835 86.8563 47.0094 86.8152C47.0353 86.774 47.0696 86.7381 47.1103 86.7094C47.151 86.6807 47.1973 86.6599 47.2466 86.648C47.2959 86.6361 47.3472 86.6335 47.3975 86.6403C47.4479 86.647 47.4963 86.663 47.5401 86.6874C47.5839 86.7118 47.6222 86.744 47.6527 86.7822C47.7534 86.906 58.051 99.6501 77.3135 114.12C95.0884 127.469 124.339 145.063 162.771 153.066C192.044 159.161 219.163 161.463 243.09 163.494C279.965 166.633 311.803 169.32 336.203 184.773C336.288 184.828 336.348 184.912 336.368 185.008C336.388 185.103 336.368 185.202 336.311 185.283C336.275 185.332 336.226 185.372 336.169 185.4C336.113 185.428 336.05 185.443 335.986 185.443Z" fill="#92E3A9"/>
<path d="M323.348 198.188C323.27 198.188 323.194 198.165 323.131 198.122C298.894 182.785 267.142 180.091 230.383 176.967C206.433 174.928 179.282 172.597 149.963 166.517C111.375 158.506 82.0091 140.817 64.1723 127.418C44.84 112.889 34.4959 100.087 34.3874 99.9633C34.3277 99.8854 34.3025 99.7888 34.3169 99.6937C34.3313 99.5987 34.3844 99.5126 34.4649 99.4535C34.5471 99.3956 34.6504 99.3707 34.7521 99.3844C34.8539 99.398 34.9456 99.4491 35.0073 99.5264C35.108 99.6502 45.4134 112.394 64.6759 126.864C82.443 140.213 111.701 157.807 150.133 165.81C179.406 171.906 206.526 174.207 230.453 176.239C267.32 179.377 299.166 182.064 323.558 197.518C323.628 197.56 323.681 197.623 323.711 197.697C323.74 197.77 323.743 197.851 323.719 197.926C323.696 198.001 323.647 198.067 323.58 198.115C323.513 198.162 323.432 198.187 323.348 198.188Z" fill="#92E3A9"/>
<path d="M310.711 210.932C310.633 210.931 310.557 210.908 310.494 210.866C286.257 195.5 254.504 192.835 217.73 189.711C193.78 187.672 166.637 185.342 137.317 179.261C98.7224 171.25 69.3559 153.561 51.5191 140.162C32.1481 125.634 21.8428 112.831 21.742 112.707C21.7115 112.669 21.6893 112.626 21.6767 112.579C21.664 112.533 21.6612 112.485 21.6684 112.437C21.6756 112.39 21.6927 112.345 21.7186 112.303C21.7445 112.262 21.7788 112.226 21.8195 112.198C21.8602 112.169 21.9065 112.148 21.9558 112.136C22.0051 112.124 22.0564 112.122 22.1068 112.128C22.1571 112.135 22.2056 112.151 22.2494 112.176C22.2931 112.2 22.3314 112.232 22.3619 112.27C22.4626 112.394 32.7603 125.138 52.0228 139.608C69.7976 152.957 99.0478 170.551 137.48 178.554C166.753 184.65 193.873 186.951 217.8 188.983C254.674 192.121 286.513 194.809 310.912 210.262C310.998 210.316 311.057 210.4 311.077 210.496C311.097 210.591 311.077 210.69 311.021 210.771C310.985 210.819 310.939 210.857 310.885 210.885C310.832 210.913 310.772 210.929 310.711 210.932Z" fill="#92E3A9"/>
<path d="M298.065 223.676C297.987 223.676 297.911 223.653 297.848 223.61C273.611 208.274 241.858 205.579 205.1 202.455C181.15 200.416 153.999 198.086 124.679 192.005C86.0925 183.994 56.726 166.305 38.8892 152.906C19.557 138.378 9.21288 125.575 9.1044 125.451C9.04471 125.374 9.01943 125.277 9.03388 125.182C9.04833 125.087 9.10137 125.001 9.18188 124.942C9.26408 124.884 9.36741 124.859 9.46912 124.873C9.57084 124.886 9.66262 124.937 9.72427 125.015C9.825 125.138 20.1304 137.882 39.3929 152.352C57.16 165.701 86.4179 183.295 124.85 191.298C154.123 197.394 181.243 199.695 205.17 201.727C242.037 204.865 273.883 207.553 298.282 223.006C298.366 223.062 298.424 223.146 298.443 223.241C298.462 223.337 298.44 223.435 298.383 223.516C298.348 223.564 298.301 223.605 298.245 223.632C298.19 223.66 298.128 223.675 298.065 223.676Z" fill="#92E3A9"/>
<path d="M87.2392 154.96C87.2392 154.96 83.2411 156.263 84.6203 157.144C85.9995 158.025 90.4626 169.124 89.5405 170.573C88.6184 172.022 85.6663 167.252 84.0081 168.84C82.35 170.427 84.783 174.323 87.3864 174.032C89.9899 173.741 91.2606 171.294 90.6175 168.257C89.9744 165.22 87.8513 160.319 87.5182 159.307C87.185 158.295 88.4402 157.72 90.2843 158.732C92.1285 159.744 95.3518 158.004 96.2739 156.132C97.1959 154.26 96.4288 151.078 96.4288 151.078C96.4288 151.078 97.0409 152.666 93.9726 153.387C90.9042 154.108 88.3317 154.53 87.2392 154.96Z" fill="#92E3A9"/>
<path d="M264.616 156.263C264.616 156.263 260.625 157.567 262.004 158.448C263.384 159.329 267.847 170.427 266.925 171.869C266.002 173.311 263.05 168.548 261.392 170.136C259.734 171.724 262.167 175.627 264.77 175.336C267.374 175.044 268.645 172.59 267.994 169.561C267.343 166.531 265.228 161.623 264.894 160.611C264.561 159.598 265.817 159.023 267.661 160.035C269.505 161.048 272.728 159.307 273.65 157.436C274.572 155.564 273.805 152.382 273.805 152.382C273.805 152.382 274.417 153.969 271.349 154.69C268.281 155.411 265.693 155.833 264.616 156.263Z" fill="#92E3A9"/>
<path d="M245.717 192.988C245.717 192.988 241.719 194.291 243.106 195.173C244.493 196.054 248.941 207.152 248.018 208.609C247.096 210.065 244.183 205.288 242.486 206.875C240.789 208.463 243.261 212.359 245.872 212.068C248.483 211.776 249.708 209.33 249.096 206.293C248.483 203.256 246.329 198.355 245.996 197.343C245.663 196.331 246.918 195.755 248.762 196.767C250.606 197.78 253.838 196.039 254.76 194.168C255.682 192.296 254.907 189.114 254.907 189.114C254.907 189.114 255.527 190.701 252.451 191.422C249.374 192.143 246.794 192.587 245.717 192.988Z" fill="#92E3A9"/>
<path d="M66.9539 133.105C64.9544 132.157 63.0118 131.107 61.1348 129.959C58.2989 128.175 56.7493 129.027 57.1212 130.214C57.4931 131.401 55.0988 139.747 51.4803 144.174C47.8618 148.602 48.1873 143.541 45.4598 142.674C42.7324 141.808 41.2525 144.349 43.3523 147.277C45.4521 150.204 50.1786 149.323 50.7985 147.524C51.4184 145.726 55.8659 137.831 57.1754 135.923C58.4849 134.016 59.4999 134.103 61.8245 136.339C62.8432 137.346 64.1122 138.099 65.5173 138.531C66.9225 138.963 68.4199 139.061 69.875 138.815C69.875 138.815 65.0245 147.583 63.5368 150.386C62.0492 153.19 60.8094 156.787 58.6011 156.715C56.3928 156.642 53.9521 152.535 52.17 155.069C50.3878 157.603 55.649 161.805 58.4539 160.603C61.2588 159.402 62.9945 153.874 65.071 150.051C67.1476 146.228 73.1914 136.171 72.8194 134.758C72.4475 133.346 69.6503 134.758 66.9539 133.105Z" fill="#92E3A9"/>
<path d="M293.447 175.052C292.033 174.373 290.66 173.622 289.333 172.801C287.334 171.541 286.234 172.146 286.497 172.983C286.76 173.821 285.071 179.727 282.507 182.851C279.942 185.975 280.182 182.407 278.253 181.795C276.323 181.183 275.277 182.982 276.757 185.05C278.237 187.118 281.592 186.507 282.026 185.225C283.353 182.407 284.858 179.666 286.536 177.018C287.466 175.678 288.163 175.736 289.852 177.316C290.573 178.029 291.471 178.561 292.465 178.866C293.459 179.171 294.518 179.239 295.547 179.064C295.547 179.064 292.115 185.305 291.038 187.271C289.961 189.238 289.108 191.794 287.543 191.743C285.978 191.692 284.234 188.786 282.995 190.585C281.755 192.384 285.459 195.347 287.442 194.495C289.426 193.643 290.65 189.733 292.091 187.031C293.533 184.329 297.833 177.214 297.577 176.195C297.321 175.175 295.361 176.217 293.447 175.052Z" fill="#92E3A9"/>
<path d="M307.363 187.228C306.297 186.718 305.262 186.151 304.264 185.531C302.753 184.584 301.94 185.043 302.125 185.669C302.311 186.295 301.048 190.767 299.119 193.112C297.19 195.457 297.36 192.777 295.911 192.311C294.462 191.845 293.664 193.206 294.788 194.765C295.911 196.323 298.422 195.857 298.755 194.903C299.757 192.778 300.892 190.711 302.156 188.713C302.854 187.701 303.381 187.745 304.651 188.939C305.195 189.475 305.872 189.876 306.621 190.106C307.37 190.336 308.168 190.388 308.944 190.257C308.944 190.257 306.341 194.947 305.543 196.44C304.744 197.933 304.094 199.855 302.916 199.812C301.738 199.768 300.421 197.583 299.491 198.938C298.561 200.292 301.343 202.528 302.838 201.851C304.334 201.173 305.256 198.26 306.364 196.221C307.472 194.182 310.695 188.822 310.502 188.058C310.308 187.293 308.805 188.109 307.363 187.228Z" fill="#92E3A9"/>
<path d="M57.3382 111.098C55.9227 110.419 54.549 109.665 53.2238 108.84C51.2169 107.581 50.1244 108.185 50.3801 109.023C50.6358 109.86 48.9544 115.766 46.3974 118.897C43.8405 122.029 44.0729 118.446 42.1358 117.834C40.1987 117.222 39.1604 119.021 40.6481 121.089C42.1358 123.158 45.4754 122.546 45.917 121.264C47.2388 118.446 48.7449 115.707 50.4266 113.064C51.3564 111.717 52.046 111.775 53.7352 113.356C54.4559 114.068 55.3537 114.6 56.3478 114.905C57.342 115.211 58.4012 115.279 59.4302 115.103C59.4302 115.103 55.9745 121.322 54.9207 123.31C53.8669 125.299 52.9913 127.833 51.4262 127.782C49.861 127.731 48.1253 124.825 46.8856 126.624C45.6459 128.423 49.3418 131.387 51.3254 130.535C53.309 129.683 54.5333 125.779 55.9745 123.07C57.4157 120.361 61.716 113.254 61.4603 112.241C61.2046 111.229 59.2443 112.263 57.3382 111.098Z" fill="#92E3A9"/>
<path d="M49.5897 253.104C49.5897 253.104 29.0487 219.226 33.783 210.611C38.5173 201.996 50.628 217.5 50.628 217.5C50.628 217.5 40.0979 185.917 45.886 172.139C51.674 158.36 61.6772 172.139 62.2041 181.897C62.731 191.655 60.0965 208.317 60.0965 208.317C60.0965 208.317 64.3117 173.857 74.3071 184.198C84.3025 194.539 61.6772 228.999 61.6772 228.999C61.6772 228.999 76.9416 220.989 76.3992 231.3C75.8568 241.612 57.9967 250.846 57.9967 250.846" fill="#92E3A9"/>
<path d="M49.7447 246.79C49.7447 246.79 30.7534 230.135 40.0049 222.671C49.2565 215.206 54.1303 230.681 54.1303 230.681C54.1303 230.681 43.9024 183.048 60.4375 181.322C76.9725 179.596 64.8231 222.671 64.8231 222.671C64.8231 222.671 78.9484 204.297 77.9953 219.226C77.0423 234.155 56.0829 246.79 56.0829 246.79" stroke="#263238" stroke-miterlimit="10"/>
<path d="M59.0815 243.76L46.2424 230.689" stroke="#263238" stroke-miterlimit="10"/>
<path d="M56.4006 244.765L59.8796 206.555" stroke="#263238" stroke-miterlimit="10"/>
<path d="M55.8659 241.998L67.3723 227.674" stroke="#263238" stroke-miterlimit="10"/>
<path d="M72.5018 239.333H36.9986L40.5474 278.694H68.953L72.5018 239.333Z" fill="#263238"/>
<path d="M135.597 192.901C135.597 192.901 139.138 282.99 135.597 299.718C132.056 316.446 116.908 317.705 82.1872 315.2C47.4667 312.695 -3.73471 307.648 19.4097 298.91C42.5542 290.171 111.089 292.217 105.301 297.657C99.5127 303.097 67.473 301.422 58.1285 298.079C48.7839 294.737 95.5067 283.857 120.433 286.785C145.36 289.712 159.175 300.169 219.233 314.807C279.291 329.445 322.93 313.132 321.597 301.844C320.264 290.557 282.437 290.098 268.637 290.098" stroke="#263238" stroke-width="2" stroke-linecap="round" stroke-linejoin="round"/>
<path d="M204.558 244.052L223.472 238.969L282.065 242.887L271.202 248.319L204.558 244.052Z" fill="#666666" stroke="#263238" stroke-linecap="round" stroke-linejoin="round"/>
<path d="M282.065 242.887L281.6 301.473L270.163 310.248L271.202 248.319L282.065 242.887Z" fill="#2B2B2B" stroke="#263238" stroke-linecap="round" stroke-linejoin="round"/>
<path d="M206.727 301.007L207.618 302.922L210.927 303.396L212.794 301.721L206.727 301.007Z" fill="#263238" stroke="#263238" stroke-linecap="round" stroke-linejoin="round"/>
<path d="M262.392 309.018L263.275 310.933L266.584 311.406L268.451 309.731L262.392 309.018Z" fill="#263238" stroke="#263238" stroke-linecap="round" stroke-linejoin="round"/>
<path d="M204.558 244.052L203.651 300.395L270.163 310.248L271.202 248.319L204.558 244.052Z" fill="#404040" stroke="#263238" stroke-linecap="round" stroke-linejoin="round"/>
<path d="M209.85 249.375L209.091 296.659L264.894 304.925L265.77 252.958L209.85 249.375Z" fill="black" stroke="#263238" stroke-linecap="round" stroke-linejoin="round"/>
<path d="M212.329 295.64L264.918 303.432L265.77 252.958L213.065 249.579L212.329 295.64Z" fill="#263238" stroke="#263238" stroke-linecap="round" stroke-linejoin="round"/>
<path d="M212.926 258.565L265.6 263.124L265.77 252.958L213.065 249.579L212.926 258.565Z" fill="#92E3A9" stroke="#263238" stroke-linecap="round" stroke-linejoin="round"/>
<path d="M221.953 254.109C221.953 254.577 221.805 255.034 221.528 255.424C221.252 255.813 220.858 256.116 220.398 256.295C219.938 256.474 219.432 256.521 218.943 256.43C218.455 256.339 218.006 256.113 217.654 255.782C217.302 255.451 217.062 255.03 216.965 254.57C216.868 254.111 216.917 253.635 217.108 253.203C217.299 252.77 217.621 252.401 218.036 252.141C218.45 251.881 218.937 251.742 219.435 251.742C219.766 251.741 220.094 251.802 220.4 251.92C220.705 252.039 220.984 252.213 221.218 252.433C221.452 252.653 221.637 252.914 221.763 253.202C221.889 253.489 221.954 253.798 221.953 254.109Z" fill="#263238" stroke="#263238" stroke-linecap="round" stroke-linejoin="round"/>
<path d="M228.795 257.153C230.185 257.153 231.313 256.093 231.313 254.786C231.313 253.479 230.185 252.419 228.795 252.419C227.404 252.419 226.276 253.479 226.276 254.786C226.276 256.093 227.404 257.153 228.795 257.153Z" fill="#263238" stroke="#263238" stroke-linecap="round" stroke-linejoin="round"/>
<path d="M240.665 255.463C240.665 255.931 240.518 256.389 240.241 256.778C239.964 257.167 239.571 257.471 239.111 257.65C238.651 257.829 238.144 257.876 237.656 257.784C237.167 257.693 236.719 257.468 236.366 257.137C236.014 256.806 235.774 256.384 235.677 255.925C235.58 255.466 235.63 254.99 235.82 254.557C236.011 254.125 236.334 253.755 236.748 253.495C237.162 253.235 237.649 253.096 238.147 253.096C238.478 253.095 238.806 253.156 239.112 253.275C239.418 253.393 239.696 253.568 239.93 253.787C240.164 254.007 240.349 254.269 240.476 254.556C240.602 254.844 240.666 255.152 240.665 255.463Z" fill="#263238" stroke="#263238" stroke-linecap="round" stroke-linejoin="round"/>
<path d="M250.025 256.14C250.025 256.609 249.878 257.066 249.601 257.455C249.324 257.845 248.931 258.148 248.471 258.327C248.011 258.506 247.504 258.553 247.016 258.462C246.527 258.37 246.079 258.145 245.726 257.814C245.374 257.483 245.134 257.061 245.037 256.602C244.94 256.143 244.99 255.667 245.181 255.235C245.371 254.802 245.694 254.433 246.108 254.173C246.522 253.912 247.009 253.774 247.507 253.774C247.838 253.773 248.166 253.833 248.472 253.952C248.778 254.07 249.056 254.245 249.29 254.465C249.524 254.685 249.709 254.946 249.836 255.234C249.962 255.521 250.026 255.829 250.025 256.14Z" fill="#263238" stroke="#263238" stroke-linecap="round" stroke-linejoin="round"/>
<path d="M230.786 242.515V241.059L233.692 240.36L254.891 241.758L254.643 243.156L252.598 244.044L230.786 242.515Z" fill="#263238"/>
<path d="M207.704 226.181C207.704 226.181 203.178 233.631 203.744 235.495C204.31 237.359 213.654 238.954 217.9 241.612C222.147 244.27 226.106 245.071 228.655 244.27C231.204 243.469 233.467 243.739 232.336 240.811C231.204 237.884 227.803 238.422 225.261 237.09C222.72 235.757 215.622 228.708 215.057 227.907C214.491 227.106 207.704 226.181 207.704 226.181Z" fill="#92E3A9" stroke="#263238" stroke-linecap="round" stroke-linejoin="round"/>
<path d="M215.987 229.123C215.987 229.123 214.553 231.817 213.6 232.036" stroke="#263238" stroke-linecap="round" stroke-linejoin="round"/>
<path d="M217.66 230.696C217.66 230.696 217.66 233.383 216.227 234.06" stroke="#263238" stroke-linecap="round" stroke-linejoin="round"/>
<path d="M220.519 233.609C220.519 233.609 221 234.279 219.566 235.4" stroke="#263238" stroke-linecap="round" stroke-linejoin="round"/>
<path d="M223.154 235.626C223.154 235.626 222.914 235.852 221.48 236.973" stroke="#263238" stroke-linecap="round" stroke-linejoin="round"/>
<path d="M226.075 237.439C225.644 237.698 225.271 238.031 224.975 238.423C224.193 239.371 223.616 240.455 223.278 241.612C220.13 239.441 216.704 237.65 213.081 236.282C210.152 235.137 207.121 234.24 204.023 233.602C203.769 234.2 203.673 234.847 203.744 235.488C204.31 237.345 213.654 238.947 217.9 241.605C222.147 244.263 226.106 245.064 228.655 244.263C231.204 243.462 233.467 243.731 232.336 240.804C231.321 238.189 228.485 238.335 226.075 237.439Z" fill="white" stroke="#263238" stroke-linecap="round" stroke-linejoin="round"/>
<path d="M123.161 117.492L119.194 135.552L121.332 135.261L126.516 118.927L123.161 117.492Z" fill="#263238" stroke="#263238" stroke-linecap="round" stroke-linejoin="round"/>
<path d="M155.231 302.587C155.674 304.14 156.286 305.646 157.06 307.08C157.982 308.464 171.294 315.091 170.55 318.193C170.271 319.395 169.256 321.15 163.158 321.499C157.06 321.849 151.21 317.56 148.374 316.111C143.95 313.86 143.198 312.812 143.725 310.554C144.252 308.297 146.499 300.65 146.499 300.65C149.335 301.563 152.26 302.212 155.231 302.587Z" fill="#92E3A9" stroke="#263238" stroke-linecap="round" stroke-linejoin="round"/>
<path d="M150.141 307.153C150.971 306.527 151.928 306.066 152.953 305.797C153.979 305.528 155.052 305.457 156.107 305.588" stroke="#263238" stroke-linecap="round" stroke-linejoin="round"/>
<path d="M151.807 308.501C151.807 308.501 154.673 306.549 157.06 307.08" stroke="#263238" stroke-linecap="round" stroke-linejoin="round"/>
<path d="M154.193 310.299C154.193 310.299 157.773 308.275 159.919 309.396" stroke="#263238" stroke-linecap="round" stroke-linejoin="round"/>
<path d="M157.06 312.091C157.06 312.091 160.159 310.518 162.546 311.195" stroke="#263238" stroke-linecap="round" stroke-linejoin="round"/>
<path d="M148.552 307.161C148.552 308.457 147.894 309.513 147.08 309.513C146.266 309.513 145.6 308.457 145.6 307.161C145.6 305.864 146.259 304.816 147.08 304.816C147.901 304.816 148.552 305.872 148.552 307.161Z" fill="white" stroke="#263238" stroke-linecap="round" stroke-linejoin="round"/>
<path d="M167.652 314.283C166.009 314.283 163.53 314.567 162.228 316.111C160.19 318.543 160.012 319.242 160.012 319.242C156.737 317.057 153.278 315.128 149.668 313.474C147.478 312.549 145.551 311.152 144.043 309.396C143.919 309.84 143.818 310.226 143.748 310.525C143.198 312.783 143.95 313.831 148.397 316.081C151.233 317.538 157.083 321.813 163.181 321.47C169.279 321.128 170.294 319.366 170.573 318.164C170.798 317.167 169.512 315.754 167.652 314.283Z" fill="white" stroke="#263238" stroke-linecap="round" stroke-linejoin="round"/>
<path d="M163.995 62.015C163.995 62.015 177.322 63.5807 179.492 68.052C181.661 72.5234 190.44 108.76 191.153 110.77C191.866 112.78 209.71 116.363 220.426 116.363C231.142 116.363 226.85 117.485 223.526 119.495C220.202 121.504 210.199 123.747 199.963 125.087C189.727 126.427 182.831 125.532 179.74 121.286C176.648 117.04 172.084 96.4605 168.993 82.624C165.901 68.7876 163.995 62.015 163.995 62.015Z" fill="white" stroke="#263238" stroke-linecap="round" stroke-linejoin="round"/>
<path d="M179.461 68.0593C177.322 63.588 163.964 62.0223 163.964 62.0223C163.964 62.0223 165.862 68.7293 168.962 82.6022C169.969 87.1318 171.139 92.3824 172.355 97.5456C173.355 97.3926 174.517 97.1887 175.858 96.912C179.166 96.2347 183.42 93.9335 186.279 92.2076C183.637 81.7866 180.6 70.4334 179.461 68.0593Z" fill="#92E3A9" stroke="#263238" stroke-linecap="round" stroke-linejoin="round"/>
<path d="M171.41 93.3509C171.983 95.8633 172.58 98.4049 173.184 100.881C178.255 99.8068 182.957 97.5532 186.86 94.3268C186.318 92.2222 185.76 90.0447 185.194 87.8892C181.123 90.7067 176.399 92.5784 171.41 93.3509Z" fill="#263238" stroke="#263238" stroke-linecap="round" stroke-linejoin="round"/>
<path d="M237.775 108.149C237.775 108.149 240.286 103.051 240.557 102.752C240.828 102.454 247.158 102.024 245.492 104.1C245.276 104.362 241.316 104.872 241.316 104.872L240.371 106.962L237.775 108.149Z" fill="white" stroke="#263238" stroke-linecap="round" stroke-linejoin="round"/>
<path d="M242.757 157.741C234.435 150.357 203.969 149.003 191.618 146.781C188.627 146.243 186.248 145.755 184.342 145.325C180.716 129.486 171.774 99.0093 170.201 82.5876C169.814 78.5314 168.132 59.6337 160.128 61.4688C144.632 65.0299 117.512 72.2977 116.559 90.7293C115.784 105.578 122.347 121.366 125.245 135.807C126.686 143.017 128.034 149.068 129.406 154.122H129.29C129.29 154.122 142.377 209.817 142.377 218.986C142.377 228.154 140.471 233.077 139.998 246.499C139.525 259.92 145.755 302.573 147.181 303.447C148.606 304.32 151.698 304.342 153.132 303.891C154.565 303.439 154.797 304.117 155.27 302.551C155.743 300.985 161.469 270.392 163.119 237.964C164.77 205.535 167.365 181.409 177.593 174.702C187.821 167.995 229.236 168.876 229.508 173.806C229.779 178.736 206.107 225.285 207.068 226.181C208.029 227.077 213.267 228.417 214.445 227.972C215.622 227.528 238 193.527 245.144 181.897C252.288 170.267 251.087 165.118 242.757 157.741Z" fill="#1B8C3B" stroke="#263238" stroke-linecap="round" stroke-linejoin="round"/>
<path d="M160.09 61.5052C151.628 63.4496 139.704 66.5082 130.468 71.8753C134.171 76.9219 144.213 89.7971 151.45 91.4502C159.973 93.3946 163.623 70.5353 162.84 61.731C161.981 61.3498 161.006 61.2698 160.09 61.5052Z" fill="#263238" stroke="#263238" stroke-linecap="round" stroke-linejoin="round"/>
<path d="M160.392 57.8641C160.392 57.8641 165.878 97.6985 181.127 118.308L185.388 121.177C186.163 121.177 171.797 90.722 165.242 57.8204L160.392 57.8641Z" fill="#263238" stroke="#263238" stroke-linecap="round" stroke-linejoin="round"/>
<path d="M159.408 66.7194C158.524 65.6198 157.649 64.7677 156.859 63.7482C154.464 60.6314 155.386 53.9899 158.114 51.6741C157.885 51.1977 157.61 50.7418 157.292 50.3123C154.193 46.3216 141.966 48.3606 138.836 51.6377C139.634 52.9527 140.318 54.3262 140.881 55.7449C141.656 57.9733 142.315 60.4784 141.811 62.8306C141.168 65.8747 138.541 66.9816 136.271 68.8823C138.859 73.0259 146.073 82.3764 149.265 83.8038C153.054 85.537 158.238 70.9723 159.408 66.7194Z" fill="white" stroke="#263238" stroke-linecap="round" stroke-linejoin="round"/>
<path d="M155.882 54.8127C156.343 53.6517 157.15 52.6403 158.207 51.8998C161.786 49.7952 170.527 47.057 172.766 43.059C172.99 40.9061 172.748 38.7328 172.054 36.6702C171.36 34.6076 170.229 32.6984 168.729 31.0577C163.584 25.1663 153.72 22.0203 145.771 24.4526C135.326 27.6714 133.04 36.7452 135.179 43.4887C136.38 47.2755 138.464 51.0987 139.828 53.8588C142.082 54.4122 145.647 54.6744 149.73 54.8564C151.78 54.9476 153.834 54.933 155.882 54.8127Z" fill="#263238" stroke="#263238" stroke-linecap="round" stroke-linejoin="round"/>
<path d="M148.514 50.5817C148.514 50.5817 147.034 43.0663 143.934 43.0663C140.835 43.0663 139.394 50.0501 140.835 53.5456C142.276 57.0412 144.965 55.6794 144.965 55.6794C145.985 57.9357 147.203 60.1084 148.606 62.1752C150.265 64.3089 155.782 69.3702 162.127 69.3702C164.808 69.3702 168.528 56.5605 169.357 51.5139C170.186 46.4672 170.178 44.3407 168.737 40.2626C167.296 36.1845 161.298 38.7115 156.138 42.1997C152.953 44.4138 150.345 47.2802 148.514 50.5817Z" fill="white" stroke="#263238" stroke-linecap="round" stroke-linejoin="round"/>
<path d="M152.233 41.3914C152.233 41.3914 158.811 39.5999 164.63 45.819C170.287 51.8707 176.927 48.3897 179.267 44.9015C182.955 39.4106 187.271 43.1537 187.271 36.4612C187.271 29.7688 182.498 29.259 177.601 30.5116C172.704 31.7641 175.377 23.8191 168.698 22.9816C162.019 22.1441 160.245 25.8946 158.462 27.169" fill="#263238"/>
<path d="M152.233 41.3914C152.233 41.3914 158.811 39.5999 164.63 45.8191C170.287 51.8707 176.927 48.3897 179.267 44.9015C182.955 39.4106 187.271 43.1537 187.271 36.4612C187.271 29.7688 182.498 29.259 177.601 30.5116C172.704 31.7641 175.377 23.8191 168.698 22.9816C162.019 22.1441 160.245 25.8946 158.462 27.169" stroke="#263238" stroke-linecap="round" stroke-linejoin="round"/>
<path d="M169.148 47.7052C169.148 47.7052 167.412 47.8362 167.265 49.067C167.117 50.2977 167.985 54.7763 167.699 57.0775C167.412 59.3788 164.227 58.8472 162.631 57.6237" fill="white"/>
<path d="M169.148 47.7052C169.148 47.7052 167.412 47.8362 167.265 49.067C167.117 50.2977 167.985 54.7763 167.699 57.0775C167.412 59.3788 164.227 58.8472 162.631 57.6237" stroke="#263238" stroke-linecap="round" stroke-linejoin="round"/>
<path d="M161.942 46.7512C161.942 46.7512 158.067 44.0349 155.743 47.0206L161.942 46.7512Z" fill="white"/>
<path d="M161.942 46.7512C161.942 46.7512 158.067 44.0349 155.743 47.0206" stroke="#263238" stroke-linecap="round" stroke-linejoin="round"/>
<path d="M161.329 48.9286L161.19 50.6982C161.19 50.6982 158.005 51.7833 155.983 50.0137" fill="white"/>
<path d="M161.329 48.9286L161.19 50.6982C161.19 50.6982 158.005 51.7833 155.983 50.0137" stroke="#263238" stroke-linecap="round" stroke-linejoin="round"/>
<path d="M155.425 168.476C148.523 171.341 141.058 172.817 133.513 172.809C137.333 189.893 142.338 213.349 142.338 219.022C142.338 228.191 140.432 233.114 139.959 246.535C139.487 259.956 145.716 302.609 147.142 303.483C148.568 304.357 151.659 304.379 153.093 303.927C154.526 303.476 154.759 304.153 155.231 302.587C155.704 301.022 161.43 270.428 163.081 238C164.731 205.572 167.327 181.445 177.555 174.738C187.782 168.031 219.76 175.037 220 179.953C220.24 184.868 206.107 225.285 207.068 226.181C208.029 227.077 213.267 228.417 214.445 227.972C215.622 227.528 238 193.527 245.144 181.897C252.288 170.267 251.087 165.148 242.757 157.741C234.428 150.335 203.969 149.003 191.618 146.781C188.627 146.243 186.248 145.755 184.342 145.325C182.273 147.896 173.75 160.873 155.425 168.476Z" fill="#263238"/>
<mask id="mask0_100_887" style="mask-type:luminance" maskUnits="userSpaceOnUse" x="133" y="145" width="117" height="160">
<path d="M155.425 168.476C148.523 171.341 141.058 172.817 133.513 172.809C137.333 189.893 142.338 213.349 142.338 219.022C142.338 228.191 140.432 233.114 139.959 246.535C139.487 259.956 145.716 302.609 147.142 303.483C148.568 304.357 151.659 304.379 153.093 303.927C154.526 303.476 154.759 304.153 155.231 302.587C155.704 301.022 161.43 270.428 163.081 238C164.731 205.572 167.327 181.445 177.555 174.738C187.782 168.031 219.76 175.037 220 179.953C220.24 184.868 206.107 225.285 207.068 226.181C208.029 227.077 213.267 228.417 214.445 227.972C215.622 227.528 238 193.527 245.144 181.897C252.288 170.267 251.087 165.148 242.757 157.741C234.428 150.335 203.969 149.003 191.618 146.781C188.627 146.243 186.248 145.755 184.342 145.325C182.273 147.896 173.75 160.873 155.425 168.476Z" fill="white"/>
</mask>
<g mask="url(#mask0_100_887)">
<path d="M220 179.953C220 179.953 232.971 187.359 238.767 187.854" stroke="#6B6B6B" stroke-linecap="round" stroke-linejoin="round"/>
<path d="M211.919 175.976C211.919 175.976 222.449 186.368 230.344 190.825" stroke="#6B6B6B" stroke-linecap="round" stroke-linejoin="round"/>
<path d="M213.499 183.892C213.499 183.892 221.395 195.77 228.221 198.741" stroke="#6B6B6B" stroke-linecap="round" stroke-linejoin="round"/>
<path d="M179.809 174.003C179.809 174.003 185.07 168.556 206.154 165.097" stroke="#6B6B6B" stroke-linecap="round" stroke-linejoin="round"/>
<path d="M197.181 169.546C197.181 169.546 210.865 168.09 218.234 167.07" stroke="#6B6B6B" stroke-linecap="round" stroke-linejoin="round"/>
<path d="M165.041 228.919C165.041 228.919 157.672 253.679 152.411 268.499" stroke="#6B6B6B" stroke-linecap="round" stroke-linejoin="round"/>
<path d="M161.384 253.657C158.782 264.879 153.772 275.485 146.662 284.826" stroke="#6B6B6B" stroke-linecap="round" stroke-linejoin="round"/>
</g>
<path d="M155.425 168.476C148.523 171.341 141.058 172.817 133.513 172.809C137.333 189.893 142.338 213.349 142.338 219.022C142.338 228.191 140.432 233.114 139.959 246.535C139.487 259.956 145.716 302.609 147.142 303.483C148.568 304.357 151.659 304.379 153.093 303.927C154.526 303.476 154.759 304.153 155.231 302.587C155.704 301.022 161.43 270.428 163.081 238C164.731 205.572 167.327 181.445 177.555 174.738C187.782 168.031 219.76 175.037 220 179.953C220.24 184.868 206.107 225.285 207.068 226.181C208.029 227.077 213.267 228.417 214.445 227.972C215.622 227.528 238 193.527 245.144 181.897C252.288 170.267 251.087 165.148 242.757 157.741C234.428 150.335 203.969 149.003 191.618 146.781C188.627 146.243 186.248 145.755 184.342 145.325C182.273 147.896 173.75 160.873 155.425 168.476Z" stroke="#263238" stroke-linecap="round" stroke-linejoin="round"/>
<path d="M131.242 188.757L132.676 191.852C132.829 192.179 133.078 192.459 133.393 192.658C133.709 192.858 134.078 192.97 134.458 192.981L137.17 193.046C137.579 193.057 137.982 192.951 138.325 192.742C138.669 192.532 138.936 192.23 139.091 191.874L140.641 188.276L131.242 188.757Z" fill="white" stroke="#263238" stroke-linecap="round" stroke-linejoin="round"/>
<path d="M191.099 131.532C191.711 130.178 189.2 125.961 188.573 124.84C183.149 115.213 167.823 114.987 161.074 123.383C158.617 126.442 157.3 130.382 154.1 132.727C147.235 137.744 137.433 131.627 130.08 130.848C114.064 129.151 103.085 143.636 103.511 157.421C103.906 170.26 112.584 182.713 124.966 188.16C125.586 188.437 126.221 188.691 126.857 188.924C141.362 194.306 155.255 187.767 163.274 176.006C165.676 172.474 167.745 168.76 170.178 165.25C171.464 163.4 173.099 161.659 175.276 160.836C179.6 159.191 185.125 160.436 189.758 159.205C192.966 158.353 197.7 156.809 199.227 153.685C200.908 150.226 198.754 150.124 195.67 150.299C192.586 150.474 189.069 147.765 188.735 142.631C188.402 137.496 191.099 131.532 191.099 131.532Z" fill="#757575" stroke="#263238" stroke-linecap="round" stroke-linejoin="round"/>
<path d="M188.867 132.311C189.479 130.964 186.969 126.74 186.349 125.626C180.964 115.999 165.599 115.773 158.842 124.17C156.394 127.228 155.076 131.168 151.869 133.513C145.004 138.523 135.21 132.413 127.849 131.634C111.833 129.937 100.861 144.422 101.287 158.207C101.682 171.046 110.36 183.499 122.735 188.946C123.362 189.223 123.99 189.478 124.633 189.711C139.138 195.093 153.031 188.546 161.05 176.785C163.445 173.26 165.521 169.546 167.954 166.036C169.233 164.186 170.875 162.446 173.053 161.616C177.369 159.977 182.901 161.222 187.527 159.992C190.742 159.14 195.477 157.596 196.995 154.472C198.684 151.013 196.53 150.911 193.439 151.085C190.347 151.26 186.837 148.551 186.512 143.417C186.186 138.283 188.867 132.319 188.867 132.311Z" fill="#757575"/>
<mask id="mask1_100_887" style="mask-type:luminance" maskUnits="userSpaceOnUse" x="101" y="118" width="97" height="74">
<path d="M188.867 132.311C189.479 130.964 186.969 126.74 186.349 125.626C180.964 115.999 165.599 115.773 158.842 124.17C156.394 127.228 155.076 131.168 151.869 133.513C145.004 138.523 135.21 132.413 127.849 131.634C111.833 129.937 100.861 144.422 101.287 158.207C101.682 171.046 110.36 183.499 122.735 188.946C123.362 189.223 123.99 189.478 124.633 189.711C139.138 195.093 153.031 188.546 161.05 176.785C163.445 173.26 165.521 169.546 167.954 166.036C169.233 164.186 170.875 162.446 173.053 161.616C177.369 159.977 182.901 161.222 187.527 159.992C190.742 159.14 195.477 157.596 196.995 154.472C198.684 151.013 196.53 150.911 193.439 151.085C190.347 151.26 186.837 148.551 186.512 143.417C186.186 138.283 188.867 132.319 188.867 132.311Z" fill="white"/>
</mask>
<g mask="url(#mask1_100_887)">
<path opacity="0.19" d="M195.647 150.35C192.548 150.532 189.045 147.816 188.712 142.682C188.379 137.547 191.099 131.569 191.099 131.569C191.711 130.214 189.2 125.998 188.573 124.876C184.21 117.07 173.285 115.446 165.707 119.596L136.542 190.869C147.344 191.131 157.068 185.152 163.251 176.056C165.653 172.525 167.722 168.811 170.155 165.3C171.433 163.451 173.076 161.71 175.253 160.887C179.577 159.242 185.101 160.487 189.735 159.256C192.943 158.404 197.677 156.86 199.204 153.736C200.885 150.241 198.731 150.139 195.647 150.35Z" fill="white"/>
<path opacity="0.19" d="M138.851 124.41C140.245 123.653 141.744 123.084 143.307 122.721C138.053 118.104 129.576 117.623 123.355 121.017L94.1818 192.289C101.558 192.464 108.431 189.733 114.018 185.087L138.851 124.41Z" fill="white"/>
</g>
<path d="M188.867 132.311C189.479 130.964 186.969 126.74 186.349 125.626C180.964 115.999 165.599 115.773 158.842 124.17C156.394 127.228 155.076 131.168 151.869 133.513C145.004 138.523 135.21 132.413 127.849 131.634C111.833 129.937 100.861 144.422 101.287 158.207C101.682 171.046 110.36 183.499 122.735 188.946C123.362 189.223 123.99 189.478 124.633 189.711C139.138 195.093 153.031 188.546 161.05 176.785C163.445 173.26 165.521 169.546 167.954 166.036C169.233 164.186 170.875 162.446 173.053 161.616C177.369 159.977 182.901 161.222 187.527 159.992C190.742 159.14 195.477 157.596 196.995 154.472C198.684 151.013 196.53 150.911 193.439 151.085C190.347 151.26 186.837 148.551 186.512 143.417C186.186 138.283 188.867 132.319 188.867 132.311Z" stroke="#263238" stroke-linecap="round" stroke-linejoin="round"/>
<path d="M176.656 136.142L180.181 144.072L266.421 102.505L263.407 96.4022L176.656 136.142Z" fill="#263238" stroke="#263238" stroke-linecap="round" stroke-linejoin="round"/>
<path d="M187.511 138.21C187.511 138.21 170.984 162.489 165.297 164.915C159.609 167.34 155.75 159.431 159.23 154.158C162.709 148.886 187.511 138.21 187.511 138.21Z" fill="white" stroke="#263238" stroke-linecap="round" stroke-linejoin="round"/>
<path d="M183.966 144.184L178.37 133.348C177.95 132.534 176.907 132.194 176.041 132.589L171.426 134.694C170.56 135.089 170.198 136.07 170.619 136.884L176.215 147.72C176.635 148.534 177.678 148.874 178.544 148.479L183.159 146.374C184.025 145.978 184.387 144.998 183.966 144.184Z" fill="white" stroke="#263238" stroke-linecap="round" stroke-linejoin="round"/>
<path d="M164.334 154.767L159.087 143.778C158.692 142.952 157.661 142.583 156.782 142.954L152.102 144.928C151.224 145.298 150.831 146.268 151.226 147.093L156.473 158.082C156.867 158.908 157.899 159.277 158.777 158.906L163.457 156.932C164.336 156.562 164.728 155.592 164.334 154.767Z" fill="white" stroke="#263238" stroke-linecap="round" stroke-linejoin="round"/>
<path d="M137.681 168.33L129.646 152.396C129.586 152.278 129.551 152.149 129.545 152.017C129.539 151.886 129.561 151.755 129.611 151.632C129.66 151.508 129.735 151.396 129.832 151.301C129.928 151.206 130.044 151.13 130.173 151.078C130.297 151.021 130.432 150.988 130.57 150.98C130.708 150.972 130.846 150.99 130.976 151.033C131.106 151.076 131.226 151.142 131.329 151.229C131.432 151.315 131.516 151.42 131.576 151.537L139.611 167.471C139.728 167.707 139.742 167.976 139.649 168.222C139.556 168.467 139.364 168.668 139.115 168.781C138.99 168.843 138.853 168.881 138.712 168.891C138.571 168.902 138.429 168.886 138.295 168.844C138.161 168.801 138.038 168.734 137.932 168.646C137.827 168.558 137.741 168.45 137.681 168.33Z" fill="white" stroke="#263238" stroke-linecap="round" stroke-linejoin="round"/>
<path d="M129.848 153.03L104.766 172.328C104.387 172.618 104.125 173.021 104.023 173.47C103.922 173.919 103.987 174.387 104.208 174.797L105.866 177.899C106.109 178.354 106.526 178.706 107.033 178.884C107.54 179.062 108.101 179.054 108.602 178.86L137.511 167.689L136.426 165.883L117.644 169.058L131.01 155.579L129.848 153.03Z" fill="white" stroke="#263238" stroke-linecap="round" stroke-linejoin="round"/>
<path d="M158.478 160.327C158.197 160.101 157.832 159.989 157.464 160.015C157.095 160.041 156.752 160.203 156.51 160.465C153.581 163.152 150.101 165.251 146.282 166.633C143.806 167.582 141.27 168.384 138.689 169.036C138.038 169.189 137.387 169.342 136.736 169.451C135.186 169.714 132.66 170.289 132.862 172.19C132.903 172.666 133.128 173.112 133.493 173.444C133.859 173.776 134.341 173.972 134.849 173.994C135.357 174.016 135.857 173.864 136.254 173.565C136.651 173.267 136.919 172.842 137.007 172.372C140.589 171.693 144.088 170.676 147.452 169.335C151.729 167.805 155.564 165.353 158.648 162.176C158.767 162.044 158.856 161.892 158.912 161.728C158.967 161.563 158.988 161.39 158.972 161.218C158.956 161.046 158.904 160.879 158.819 160.726C158.735 160.573 158.619 160.437 158.478 160.327Z" fill="white" stroke="#263238" stroke-linecap="round" stroke-linejoin="round"/>
<path d="M128.879 178.751C128.842 178.362 128.684 177.992 128.423 177.688C128.163 177.384 127.812 177.16 127.416 177.043C127.02 176.926 126.596 176.923 126.197 177.032C125.799 177.142 125.444 177.36 125.177 177.66C124.911 177.959 124.745 178.326 124.7 178.714C124.655 179.102 124.734 179.494 124.926 179.84C125.118 180.186 125.415 180.47 125.78 180.658C126.144 180.845 126.559 180.926 126.973 180.892C127.248 180.869 127.515 180.796 127.76 180.676C128.004 180.556 128.221 180.391 128.398 180.193C128.575 179.994 128.709 179.764 128.791 179.517C128.874 179.269 128.904 179.009 128.879 178.751Z" fill="white" stroke="#263238" stroke-linecap="round" stroke-linejoin="round"/>
<path d="M144.577 180.826C144.54 180.437 144.381 180.067 144.12 179.763C143.86 179.459 143.509 179.235 143.112 179.119C142.715 179.002 142.291 178.999 141.892 179.109C141.494 179.22 141.139 179.439 140.873 179.739C140.607 180.039 140.441 180.406 140.398 180.795C140.354 181.183 140.434 181.575 140.627 181.921C140.821 182.266 141.119 182.55 141.484 182.737C141.849 182.923 142.265 183.003 142.679 182.967C143.232 182.919 143.743 182.667 144.099 182.266C144.455 181.864 144.627 181.347 144.577 180.826Z" fill="white" stroke="#263238" stroke-linecap="round" stroke-linejoin="round"/>
<path d="M207.618 121.963L206.704 122.378L210.075 129.551L210.981 129.115L207.618 121.963Z" fill="white" stroke="#263238" stroke-linecap="round" stroke-linejoin="round"/>
<path d="M213.778 119.138L212.872 119.553L216.18 126.595L217.087 126.158L213.778 119.138Z" fill="white" stroke="#263238" stroke-linecap="round" stroke-linejoin="round"/>
<path d="M199.622 125.626L198.708 126.041L202.171 133.382L203.07 132.945L199.622 125.626Z" fill="white" stroke="#263238" stroke-linecap="round" stroke-linejoin="round"/>
<path d="M219.946 116.312L219.039 116.727L222.286 123.645L223.185 123.209L219.946 116.312Z" fill="white" stroke="#263238" stroke-linecap="round" stroke-linejoin="round"/>
<path d="M192.083 129.078L191.168 129.493L194.709 136.994L195.616 136.557L192.083 129.078Z" fill="white" stroke="#263238" stroke-linecap="round" stroke-linejoin="round"/>
<path d="M186.349 141.036L187.256 140.599L183.629 132.952L182.715 133.367L186.349 141.036Z" fill="white" stroke="#263238" stroke-linecap="round" stroke-linejoin="round"/>
<path d="M226.114 113.487L225.199 113.902L228.384 120.689L229.291 120.252L226.114 113.487Z" fill="white" stroke="#263238" stroke-linecap="round" stroke-linejoin="round"/>
<path d="M256.952 99.3588L256.038 99.7739L259.192 106L260.09 105.563L256.952 99.3588Z" fill="white" stroke="#263238" stroke-linecap="round" stroke-linejoin="round"/>
<path d="M244.617 105.01L243.703 105.425L246.988 111.914L247.887 111.477L244.617 105.01Z" fill="white" stroke="#263238" stroke-linecap="round" stroke-linejoin="round"/>
<path d="M250.785 102.184L249.87 102.599L253.086 108.957L253.992 108.52L250.785 102.184Z" fill="white" stroke="#263238" stroke-linecap="round" stroke-linejoin="round"/>
<path d="M232.281 110.661L231.367 111.076L234.784 117.82L235.683 117.383L232.281 110.661Z" fill="white" stroke="#263238" stroke-linecap="round" stroke-linejoin="round"/>
<path d="M238.457 107.835L237.543 108.258L240.882 114.863L241.789 114.426L238.457 107.835Z" fill="white" stroke="#263238" stroke-linecap="round" stroke-linejoin="round"/>
<path d="M264.027 96.6644L132.901 157.938" stroke="white" stroke-width="0.5" stroke-linecap="round" stroke-linejoin="round"/>
<path d="M264.763 97.6985L133.637 158.972" stroke="white" stroke-width="0.5" stroke-linecap="round" stroke-linejoin="round"/>
<path d="M265.491 98.7399L134.373 160.014" stroke="white" stroke-width="0.5" stroke-linecap="round" stroke-linejoin="round"/>
<path d="M266.227 99.774L135.109 161.048" stroke="white" stroke-width="0.5" stroke-linecap="round" stroke-linejoin="round"/>
<path d="M266.963 100.808L135.845 162.082" stroke="white" stroke-width="0.5" stroke-linecap="round" stroke-linejoin="round"/>
<path d="M267.699 101.849L136.581 163.123" stroke="white" stroke-width="0.5" stroke-linecap="round" stroke-linejoin="round"/>
<path d="M263.445 96.4022L265.584 88.8868C265.584 88.8868 272.348 90.2923 280.484 83.3304C284.333 87.0795 286.813 91.8819 287.566 97.0431C287.566 97.0431 276.044 99.4899 273.774 104.995L266.46 102.505L263.445 96.4022Z" fill="#263238" stroke="#263238" stroke-linecap="round" stroke-linejoin="round"/>
<path d="M271.016 93.1834C270.989 92.9627 270.894 92.7542 270.742 92.5844C270.589 92.4147 270.387 92.2913 270.16 92.2299C269.932 92.1685 269.691 92.1719 269.466 92.2396C269.241 92.3073 269.042 92.4363 268.895 92.6102C268.748 92.7842 268.66 92.9952 268.64 93.2166C268.621 93.438 268.672 93.6597 268.787 93.8537C268.903 94.0478 269.076 94.2053 269.287 94.3063C269.497 94.4074 269.735 94.4475 269.97 94.4214C270.283 94.3867 270.568 94.237 270.764 94.0051C270.96 93.7732 271.051 93.4778 271.016 93.1834Z" fill="white" stroke="#263238" stroke-linecap="round" stroke-linejoin="round"/>
<path d="M274.874 91.4211C274.848 91.2006 274.753 90.9923 274.601 90.8225C274.45 90.6528 274.247 90.5292 274.021 90.4674C273.794 90.4056 273.553 90.4084 273.328 90.4754C273.103 90.5425 272.904 90.6707 272.757 90.8439C272.609 91.0172 272.52 91.2276 272.499 91.4486C272.479 91.6697 272.529 91.8914 272.643 92.0857C272.757 92.28 272.93 92.4382 273.139 92.5402C273.349 92.6423 273.586 92.6837 273.821 92.6591C274.135 92.6261 274.423 92.4772 274.62 92.2451C274.818 92.013 274.909 91.7166 274.874 91.4211Z" fill="white" stroke="#263238" stroke-linecap="round" stroke-linejoin="round"/>
<path d="M278.733 89.6515C278.707 89.431 278.612 89.2227 278.46 89.0529C278.308 88.8832 278.106 88.7596 277.879 88.6978C277.653 88.636 277.412 88.6388 277.187 88.7058C276.962 88.7729 276.763 88.9011 276.615 89.0743C276.468 89.2476 276.378 89.458 276.358 89.679C276.338 89.9001 276.388 90.1218 276.502 90.3161C276.616 90.5104 276.789 90.6686 276.998 90.7707C277.208 90.8727 277.445 90.9141 277.679 90.8895C277.994 90.8566 278.281 90.7077 278.479 90.4755C278.676 90.2434 278.768 89.947 278.733 89.6515Z" fill="white" stroke="#263238" stroke-linecap="round" stroke-linejoin="round"/>
<path d="M274.076 99.2278C274.05 99.007 273.955 98.7985 273.802 98.6288C273.65 98.459 273.447 98.3356 273.22 98.2742C272.993 98.2128 272.752 98.2162 272.527 98.2839C272.302 98.3516 272.103 98.4806 271.956 98.6546C271.809 98.8285 271.72 99.0396 271.701 99.261C271.682 99.4823 271.733 99.7041 271.848 99.8981C271.963 100.092 272.137 100.25 272.347 100.351C272.558 100.452 272.796 100.492 273.03 100.466C273.343 100.431 273.629 100.281 273.825 100.049C274.021 99.8175 274.111 99.5221 274.076 99.2278Z" fill="white" stroke="#263238" stroke-linecap="round" stroke-linejoin="round"/>
<path d="M277.935 97.4654C277.909 97.2449 277.814 97.0366 277.662 96.8669C277.51 96.6971 277.308 96.5735 277.081 96.5117C276.855 96.45 276.614 96.4528 276.388 96.5198C276.163 96.5868 275.965 96.715 275.817 96.8883C275.67 97.0615 275.58 97.2719 275.56 97.493C275.54 97.714 275.59 97.9357 275.704 98.13C275.818 98.3243 275.99 98.4825 276.2 98.5846C276.41 98.6866 276.647 98.728 276.881 98.7034C277.196 98.6705 277.483 98.5216 277.681 98.2894C277.878 98.0573 277.97 97.7609 277.935 97.4654Z" fill="white" stroke="#263238" stroke-linecap="round" stroke-linejoin="round"/>
<path d="M281.794 95.7322C281.768 95.5118 281.673 95.3034 281.521 95.1337C281.369 94.9639 281.167 94.8403 280.94 94.7786C280.713 94.7168 280.472 94.7196 280.247 94.7866C280.022 94.8536 279.823 94.9819 279.676 95.1551C279.528 95.3283 279.439 95.5388 279.419 95.7598C279.399 95.9808 279.449 96.2025 279.563 96.3968C279.676 96.5911 279.849 96.7493 280.059 96.8514C280.268 96.9535 280.505 96.9948 280.74 96.9702C281.054 96.9373 281.342 96.7884 281.539 96.5563C281.737 96.3241 281.828 96.0277 281.794 95.7322Z" fill="white" stroke="#263238" stroke-linecap="round" stroke-linejoin="round"/>
<path d="M245.841 112.482C245.841 112.482 241.262 105.928 241.332 105.199C241.649 102.17 246.81 109.219 247.995 110.341C249.181 111.462 248.948 112.802 247.755 114.142C246.562 115.482 238.728 115.926 238.728 115.926L245.841 112.482Z" fill="white" stroke="#263238" stroke-linecap="round" stroke-linejoin="round"/>
<path d="M248.778 110.603C248.778 110.603 244.811 104.828 246.035 103.714C247.778 102.133 248.088 104.617 249.32 106.743C250.552 108.87 251.784 110.668 251.033 111.309C249.653 112.482 248.778 110.603 248.778 110.603Z" fill="white" stroke="#263238" stroke-linecap="round" stroke-linejoin="round"/>
<path d="M251.242 109.124C251.242 109.124 247.654 102.716 248.499 102.235C249.343 101.755 250.552 103.138 251.784 105.258C253.016 107.377 254.256 109.183 253.497 109.831C252.117 111.025 251.242 109.124 251.242 109.124Z" fill="white" stroke="#263238" stroke-linecap="round" stroke-linejoin="round"/>
<path d="M254.388 110.02C254.388 110.02 251.164 103.634 251.652 103.138C252.83 101.93 253.706 104.034 254.938 106.161C256.17 108.287 257.402 110.086 256.65 110.727C255.263 111.914 254.388 110.02 254.388 110.02Z" fill="white" stroke="#263238" stroke-linecap="round" stroke-linejoin="round"/>
<path d="M126.81 74.242C126.81 74.242 119.968 78.1162 113.305 82.8133C106.641 87.5105 83.3185 141.189 84.5118 143.206C85.705 145.223 146.383 152.6 150.427 153.27C154.472 153.94 156.626 154.836 159.23 154.158C161.833 153.481 164.948 149.913 164.948 149.913C164.948 149.913 168.047 149.469 168.512 147.903C168.977 146.337 167.559 146.337 165.893 145.66C164.227 144.983 163.042 142.747 161.849 141.64C160.655 140.533 154.952 141.859 152.806 142.754C150.66 143.65 147.096 145.216 145.189 145.442C143.283 145.667 132.343 144.32 122.82 139.397C113.297 134.474 110.422 132.916 109.02 131.794C107.617 130.673 130.437 96.9047 130.437 96.9047" fill="#92E3A9"/>
<path d="M126.81 74.242C126.81 74.242 119.968 78.1162 113.305 82.8133C106.641 87.5105 83.3185 141.189 84.5118 143.206C85.705 145.223 146.383 152.6 150.427 153.27C154.472 153.94 156.626 154.836 159.23 154.158C161.833 153.481 164.948 149.913 164.948 149.913C164.948 149.913 168.047 149.469 168.512 147.903C168.977 146.337 167.559 146.337 165.893 145.66C164.227 144.983 163.042 142.747 161.849 141.64C160.655 140.533 154.952 141.859 152.806 142.754C150.66 143.65 147.096 145.216 145.189 145.442C143.283 145.667 132.343 144.32 122.82 139.397C113.297 134.474 110.422 132.916 109.02 131.794C107.617 130.673 130.437 96.9047 130.437 96.9047" stroke="#263238" stroke-linecap="round" stroke-linejoin="round"/>
<path d="M168.512 147.903C168.993 146.337 167.559 146.337 165.893 145.66C164.227 144.983 163.042 142.747 161.849 141.64C160.655 140.533 154.952 141.859 152.806 142.754C150.66 143.65 147.096 145.216 145.189 145.442C143.283 145.667 132.343 144.32 122.82 139.397C113.297 134.474 110.422 132.916 109.02 131.794C108.555 131.43 110.678 127.593 113.739 122.59C107.087 121.694 100.635 119.782 94.6389 116.931C88.7191 130.119 83.9539 142.266 84.5118 143.206C85.6973 145.216 146.383 152.6 150.427 153.27C154.472 153.94 156.626 154.836 159.23 154.158C161.833 153.481 164.948 149.913 164.948 149.913C164.948 149.913 168.039 149.469 168.512 147.903Z" fill="white" stroke="#263238" stroke-linecap="round" stroke-linejoin="round"/>
<path d="M109.02 131.794C109.02 131.794 101.14 129.573 95.7625 135.297" stroke="#263238" stroke-linecap="round" stroke-linejoin="round"/>
<path d="M93.4767 119.538C99.8769 122.218 108.904 123.442 112.948 123.908C114.258 121.723 115.784 119.291 117.388 116.778C110.363 116.063 103.49 114.369 96.9945 111.753C95.7934 114.375 94.608 116.989 93.4767 119.538Z" fill="#263238" stroke="#263238" stroke-linecap="round" stroke-linejoin="round"/>
</svg>
